<svg width="648" height="382" viewBox="0 0 648 382" fill="none" xmlns="http://www.w3.org/2000/svg">
<path fill-rule="evenodd" clip-rule="evenodd" d="M0.345176 127.519C0.345176 127.519 -8.10661 65.0477 58.6333 23.0918C125.402 -18.8642 213.796 2.57612 225.075 38.0017C236.354 73.4273 210.969 132.171 145.133 154.536C79.3256 176.93 10.6913 180.658 0.345176 127.519Z" fill="#ECF5F7"/>
<path fill-rule="evenodd" clip-rule="evenodd" d="M561.486 356.052C561.486 356.052 731.046 99.693 595.409 45.052C480.203 -1.35379 360.712 9.742 205.491 165.545C160.696 210.506 18.4148 171.816 18.2691 275.868C18.2108 322.273 76.3241 356.052 76.3241 356.052H561.486Z" fill="#ECF5F7"/>
<path fill-rule="evenodd" clip-rule="evenodd" d="M405.871 113.929L433.553 71.2942C434.792 69.386 437.321 68.8611 439.197 70.1305L461.242 85.0535V49.4896C461.242 48.2236 460.235 47.1973 458.992 47.1973H408.121C406.878 47.1973 405.871 48.2236 405.871 49.4896V113.929Z" fill="white"/>
<path d="M405.284 116.938L434.508 71.9289C435.4 70.5552 437.216 70.1804 438.562 71.0914L460.655 86.0471L405.284 116.938Z" fill="white"/>
<path d="M478.128 100.845H479.386V105.715H481.902V100.845H483.159V105.715H483.914V108.407H482.656V106.869H478.128V100.845Z" fill="white"/>
<path d="M485.738 104.177C485.738 105.075 486.366 105.844 487.435 105.844C488.19 105.844 488.706 105.459 488.895 104.946L489.951 105.459C489.448 106.356 488.568 106.997 487.372 106.997C485.8 106.997 484.48 105.715 484.48 103.857C484.48 101.998 485.738 100.716 487.372 100.716C488.882 100.716 490.14 101.934 490.14 103.792L490.014 104.177H485.738V104.177ZM485.8 103.049H488.819C488.756 102.383 488.127 101.87 487.372 101.87C486.492 101.87 485.989 102.383 485.8 103.049Z" fill="white"/>
<path d="M491.209 100.845H492.467V103.152H494.982V100.845H496.24V106.869H494.982V104.306H492.467V106.869H491.209V100.845Z" fill="white"/>
<path d="M497.246 100.845H502.277V101.999H500.39V106.869H499.133V101.999H497.246V100.845Z" fill="white"/>
<path d="M503.283 100.845H504.415L504.528 101.358L504.604 101.422L504.666 101.358C505.044 100.973 505.672 100.716 506.302 100.716C507.937 100.716 509.32 101.999 509.32 103.857C509.32 105.716 507.937 106.997 506.302 106.997C505.685 106.997 505.044 106.741 504.666 106.357L504.604 106.292L504.528 106.357V109.587H503.283V100.845ZM506.239 105.844C507.434 105.844 508.063 104.946 508.063 103.857C508.063 102.768 507.434 101.87 506.239 101.87C505.17 101.87 504.415 102.768 504.415 103.857C504.415 104.946 505.17 105.844 506.239 105.844Z" fill="white"/>
<path d="M514.489 103.242H515.37C515.999 103.242 516.314 102.96 516.314 102.575C516.314 102.19 515.999 101.857 515.307 101.857C514.616 101.857 514.225 102.19 514.225 102.511H513.043C513.043 101.614 514.049 100.716 515.307 100.716C516.565 100.716 517.509 101.485 517.509 102.511C517.509 103.024 517.244 103.498 516.779 103.806C517.295 104.088 517.634 104.549 517.634 105.138C517.634 106.1 516.816 106.997 515.307 106.997C514.049 106.997 513.232 106.229 512.968 105.331L514.112 104.946C514.175 105.395 514.552 105.857 515.307 105.857C516.125 105.857 516.439 105.459 516.439 105.075C516.439 104.626 515.999 104.37 515.307 104.37H514.489V103.242Z" fill="white"/>
<path d="M524.426 106.869H523.294L523.168 106.356L523.105 106.292L523.042 106.356C522.665 106.741 522.036 106.997 521.407 106.997C519.772 106.997 518.388 105.715 518.388 103.857C518.388 101.998 519.772 100.716 521.407 100.716C522.036 100.716 522.665 100.973 523.042 101.357L523.105 101.421L523.168 101.357L523.294 100.844H524.426V106.869ZM521.47 101.87C520.275 101.87 519.633 102.768 519.633 103.857C519.633 104.946 520.275 105.844 521.47 105.844C522.539 105.844 523.294 104.946 523.294 103.857C523.294 102.768 522.539 101.87 521.47 101.87Z" fill="white"/>
<path d="M532.476 100.845H533.733V105.715H534.489V108.407H533.231V106.869H525.936V100.845H527.193V105.715H529.205V100.845H530.464V105.715H532.476V100.845Z" fill="white"/>
<path d="M535.368 100.845H536.601V104.946L538.953 100.845H540.399V106.869H539.167V102.768L536.815 106.869H535.368V100.845Z" fill="white"/>
<path d="M541.405 100.845H546.436V101.999H544.55V106.869H543.292V101.999H541.405V100.845Z" fill="white"/>
<path d="M547.442 100.845H548.7V102.639H549.581C551.091 102.639 551.97 103.536 551.97 104.754C551.97 105.971 551.09 106.868 549.581 106.868H547.442V100.845ZM549.643 105.715C550.336 105.715 550.713 105.331 550.713 104.754C550.713 104.177 550.336 103.793 549.643 103.793H548.7V105.715H549.643ZM552.474 100.845H553.732V106.868H552.474V100.845Z" fill="white"/>
<path d="M559.278 103.242H560.159C560.788 103.242 561.102 102.96 561.102 102.575C561.102 102.19 560.788 101.857 560.096 101.857C559.404 101.857 559.014 102.19 559.014 102.511H557.832C557.832 101.614 558.838 100.716 560.096 100.716C561.354 100.716 562.297 101.485 562.297 102.511C562.297 103.024 562.033 103.498 561.567 103.806C562.083 104.088 562.422 104.549 562.422 105.138C562.422 106.1 561.604 106.997 560.096 106.997C558.838 106.997 558.02 106.229 557.756 105.331L558.9 104.946C558.964 105.395 559.341 105.857 560.096 105.857C560.913 105.857 561.227 105.459 561.227 105.075C561.227 104.626 560.788 104.37 560.096 104.37H559.278V103.242H559.278Z" fill="white"/>
<path d="M569.215 106.869H568.082L567.956 106.356L567.894 106.292L567.831 106.356C567.453 106.741 566.824 106.997 566.196 106.997C564.56 106.997 563.177 105.715 563.177 103.857C563.177 101.998 564.56 100.716 566.196 100.716C566.824 100.716 567.453 100.973 567.831 101.357L567.894 101.421L567.956 101.357L568.082 100.844H569.215V106.869ZM566.258 101.87C565.064 101.87 564.422 102.768 564.422 103.857C564.422 104.946 565.064 105.844 566.258 105.844C567.328 105.844 568.083 104.946 568.083 103.857C568.083 102.768 567.328 101.87 566.258 101.87Z" fill="white"/>
<path d="M571.604 104.177C571.604 105.075 572.233 105.844 573.302 105.844C574.057 105.844 574.573 105.459 574.761 104.946L575.818 105.459C575.315 106.356 574.434 106.997 573.239 106.997C571.667 106.997 570.346 105.715 570.346 103.857C570.346 101.998 571.604 100.716 573.239 100.716C574.75 100.716 576.007 101.934 576.007 103.792L575.881 104.177H571.604V104.177ZM571.667 103.049H574.686C574.623 102.383 573.994 101.87 573.239 101.87C572.359 101.87 571.856 102.383 571.667 103.049Z" fill="white"/>
<path d="M581.792 100.845H583.239V106.869H582.107V102.895L580.723 106.228H579.59L578.207 102.895V106.869H577.075V100.845H578.521L580.157 104.766L581.792 100.845Z" fill="white"/>
<path d="M591.288 100.845H592.546V105.715H593.301V108.407H592.043V106.869H584.748V100.845H586.006V105.715H588.018V100.845H589.276V105.715H591.288V100.845Z" fill="white"/>
<path d="M594.18 100.845H595.414V104.946L597.766 100.845H599.212V106.869H597.98V102.768L595.628 106.869H594.18V100.845Z" fill="white"/>
<path d="M604.369 100.845H606.004L603.161 103.741L606.13 106.869H604.495L601.979 104.306V106.869H600.721V100.845H601.979V103.28L604.369 100.845Z" fill="white"/>
<path d="M609.21 100.716C610.846 100.716 612.293 101.999 612.293 103.857C612.293 105.716 610.846 106.997 609.21 106.997C607.575 106.997 606.129 105.716 606.129 103.857C606.129 101.999 607.575 100.716 609.21 100.716ZM609.21 105.844C610.406 105.844 611.035 104.946 611.035 103.857C611.035 102.768 610.406 101.87 609.21 101.87C608.016 101.87 607.387 102.768 607.387 103.857C607.387 104.946 608.016 105.844 609.21 105.844Z" fill="white"/>
<path d="M613.425 100.845H615.94C617.323 100.845 618.079 101.55 618.079 102.575C618.079 103.049 617.827 103.498 617.374 103.793C617.902 104.087 618.204 104.549 618.204 105.075C618.204 106.163 617.387 106.869 616.004 106.869H613.425V100.845H613.425ZM616.003 103.28C616.443 103.28 616.821 103.088 616.821 102.639C616.821 102.191 616.506 101.947 616.003 101.947H614.657V103.28H616.003ZM616.128 105.766C616.632 105.766 616.946 105.459 616.946 105.075C616.946 104.561 616.569 104.37 616.128 104.37H614.657V105.766H616.128Z" fill="white"/>
<path d="M486.722 65.4315C488.789 65.4315 490.374 64.0271 490.925 62.6228L493.785 64.3785C492.441 66.8363 489.823 68.5917 486.549 68.5917C482.208 68.5917 478.28 65.0805 478.28 59.9895C478.28 54.8984 482.208 51.3877 486.549 51.3877C489.823 51.3877 492.407 53.1431 493.75 55.6008L490.891 57.3562C490.34 55.9522 488.789 54.5475 486.722 54.5475C483.448 54.5475 481.657 57.0052 481.657 59.9895C481.657 62.9738 483.448 65.4315 486.722 65.4315Z" fill="white"/>
<path d="M517.557 68.2414H514.111V61.9215L513.939 61.746L513.766 61.9215C512.905 62.9749 511.526 63.6769 509.976 63.6769C506.014 63.6769 503.775 60.8685 503.775 57.0064V51.7402H507.22V56.6554C507.22 59.1131 508.426 60.5175 510.493 60.5175C512.491 60.5175 514.042 59.0428 514.111 57.0068V51.7402H517.557V68.2414H517.557Z" fill="white"/>
<path d="M521.132 51.7402H524.509V62.9749L530.952 51.7402H534.914V68.2414H531.538V57.0068L525.094 68.2414H521.132V51.7402Z" fill="white"/>
<path d="M546.072 65.4315C548.139 65.4315 549.724 64.0271 550.275 62.6228L553.135 64.3785C551.791 66.8363 549.173 68.5917 545.9 68.5917C541.558 68.5917 537.631 65.0805 537.631 59.9895C537.631 54.8984 541.558 51.3877 545.9 51.3877C549.173 51.3877 551.757 53.1431 553.101 55.6008L550.241 57.3562C549.689 55.9522 548.139 54.5475 546.072 54.5475C542.799 54.5475 541.007 57.0052 541.007 59.9895C541.007 62.9738 542.799 65.4315 546.072 65.4315Z" fill="white"/>
<path d="M554.529 51.7402H568.312V54.9H563.143V68.2414H559.698V54.9H554.529V51.7402Z" fill="white"/>
<path d="M577.678 51.3877C582.157 51.3877 586.119 54.8984 586.119 59.9895C586.119 65.0805 582.157 68.5917 577.678 68.5917C573.199 68.5917 569.237 65.0805 569.237 59.9895C569.237 54.8984 573.199 51.3877 577.678 51.3877ZM577.678 65.4315C580.951 65.4315 582.674 62.9738 582.674 59.9895C582.674 57.0052 580.951 54.5475 577.678 54.5475C574.405 54.5475 572.682 57.0052 572.682 59.9895C572.683 62.9738 574.405 65.4315 577.678 65.4315Z" fill="white"/>
<path d="M588.837 51.7402H600.551V54.9H592.282V68.2414H588.837V51.7402Z" fill="white"/>
<path d="M609.762 51.3877C614.242 51.3877 618.204 54.8984 618.204 59.9895C618.204 65.0805 614.242 68.5917 609.762 68.5917C605.283 68.5917 601.321 65.0805 601.321 59.9895C601.321 54.8984 605.283 51.3877 609.762 51.3877ZM609.762 65.4315C613.036 65.4315 614.758 62.9738 614.758 59.9895C614.758 57.0052 613.036 54.5475 609.762 54.5475C606.489 54.5475 604.767 57.0052 604.767 59.9895C604.767 62.9738 606.489 65.4315 609.762 65.4315Z" fill="white"/>
<path d="M480.003 73.6885H492.751V90.1905H489.306V76.8482H483.449V85.4496C483.449 88.9612 481.382 90.892 478.108 90.892L477.591 90.541V87.3813H478.28C479.314 87.3813 480.003 86.6789 480.003 85.6255V73.6885Z" fill="white"/>
<path d="M496.481 73.6885H499.858V84.9239L506.301 73.6885H510.264V90.1905H506.887V78.955L500.443 90.1905H496.481V73.6885Z" fill="white"/>
<path d="M521.422 87.3813C523.489 87.3813 525.074 85.9765 525.626 84.573L528.485 86.3283C527.141 88.7861 524.523 90.5411 521.25 90.5411C516.909 90.5411 512.981 87.0303 512.981 81.9397C512.981 76.8486 516.909 73.3379 521.25 73.3379C524.523 73.3379 527.108 75.0933 528.451 77.551L525.591 79.306C525.04 77.902 523.489 76.4977 521.422 76.4977C518.149 76.4977 516.357 78.9554 516.357 81.9397C516.357 84.924 518.149 87.3813 521.422 87.3813Z" fill="white"/>
<path d="M529.879 73.6885H543.661V76.8482H538.493V90.1905H535.048V76.8482H529.879V73.6885Z" fill="white"/>
<path d="M561.142 90.1901H558.041L557.697 88.7861L557.525 88.6102L557.352 88.7861C556.319 89.8391 554.596 90.5411 552.873 90.5411C548.394 90.5411 544.604 87.0303 544.604 81.9397C544.604 76.8486 548.394 73.3379 552.873 73.3379C554.596 73.3379 556.319 74.0403 557.352 75.0933L557.525 75.2688L557.697 75.0933L558.041 73.6889H561.142V90.1901ZM553.045 76.4972C549.772 76.4972 548.014 78.955 548.014 81.9393C548.014 84.924 549.772 87.3813 553.045 87.3813C555.973 87.3813 558.041 84.924 558.041 81.9393C558.041 78.955 555.973 76.4972 553.045 76.4972Z" fill="white"/>
<path d="M589.988 356.081L569.529 349.724L569.442 349.464C557.667 316.09 555.452 288.09 564.166 282.889C568.538 280.289 572.356 284.536 575.708 288.264C579.117 292.078 581.361 294.274 583.518 292.511C586.083 290.46 587.423 279.017 588.968 265.754C591.387 245.21 594.389 219.637 603.657 209.293C607.037 205.508 611.059 204.034 615.635 204.872C618.899 205.479 621.114 206.779 622.367 208.859C624.961 213.136 622.863 219.637 620.852 225.937C618.87 232.149 616.975 238.015 620.269 240.182C621.143 240.76 622.688 240.615 625.019 240.413C626.651 240.269 628.662 240.066 631.169 240.066C631.198 240.066 631.198 240.066 631.227 240.066C633.937 240.066 635.977 241.164 637.143 243.245C640.495 249.226 636.356 262.951 626.622 278.208C616.305 294.389 610.797 307.623 612.108 309.82C612.167 309.906 612.254 309.993 612.516 309.993C613.041 309.964 614.265 309.155 615.489 308.375C618.52 306.439 622.659 303.752 625.631 305.514C628.225 307.017 629.391 309.82 629.041 313.576C627.788 326.55 608.699 349.435 590.105 355.994L589.988 356.081ZM570.345 348.886L589.959 354.983C608.174 348.453 626.826 326.145 628.021 313.518C628.342 310.137 627.38 307.768 625.136 306.468C622.717 305.052 618.899 307.508 616.101 309.299C614.557 310.311 613.42 311.033 612.633 311.091C612.021 311.12 611.555 310.889 611.263 310.397C609.252 307.074 617.238 291.066 625.777 277.688C635.161 262.98 639.358 249.371 636.269 243.794C635.307 242.06 633.617 241.164 631.285 241.164C631.256 241.164 631.256 241.164 631.227 241.164C628.75 241.193 626.768 241.367 625.165 241.511C622.6 241.742 620.91 241.887 619.715 241.107C615.751 238.506 617.762 232.265 619.861 225.648C621.813 219.58 623.824 213.28 621.464 209.408C620.356 207.588 618.404 206.461 615.431 205.912C611.205 205.132 607.591 206.461 604.444 209.986C595.409 220.071 592.407 245.47 590.017 265.87C588.356 279.913 587.074 290.98 584.159 293.32C581.041 295.834 577.893 292.338 574.862 288.957C571.627 285.345 568.276 281.618 564.662 283.785C557.784 287.946 557.434 312.16 570.345 348.886Z" fill="#0AB4BC"/>
<path fill-rule="evenodd" clip-rule="evenodd" d="M571.89 191.754C551.256 195.163 567.693 291.847 563.088 297.51C558.513 303.203 548.546 286.126 542.046 292.194C535.547 298.262 541.58 323.285 561.456 355.503H589.93C594.826 348.597 619.803 305.948 606.455 301.585C602.025 300.14 596.837 308.144 594.914 308.693C591.213 309.762 594.069 293.523 601.296 273.99C609.719 251.249 608.553 234.172 598.236 236.455C592.058 237.813 589.172 239.575 587.278 238.853C577.136 234.894 595.584 187.853 571.89 191.754Z" fill="#85E3EF"/>
<path fill-rule="evenodd" clip-rule="evenodd" d="M575.795 349.695C578.331 347.615 580.72 345.332 582.964 342.963C590.309 335.19 596.516 325.972 601.675 316.668C604.094 312.305 606.571 307.537 608.465 302.914C608.524 302.769 608.699 302.711 608.844 302.769C608.99 302.827 609.077 303 608.99 303.145C607.067 307.797 604.618 312.565 602.17 316.957C596.983 326.319 590.746 335.565 583.372 343.367C581.012 345.881 578.505 348.25 575.824 350.418C575.882 352.122 575.97 353.827 576.028 355.532C576.028 355.676 575.912 355.821 575.737 355.821C575.591 355.821 575.445 355.705 575.445 355.532C575.183 349.32 574.979 343.078 574.746 336.837C562.913 332.3 554.549 322.013 548.924 311.091C546.767 306.901 544.931 302.48 543.445 298.002C542.833 296.152 542.221 294.158 541.784 292.251C541.755 292.107 541.842 291.933 542.017 291.905C542.163 291.876 542.338 291.962 542.367 292.136C542.804 294.014 543.416 295.979 543.999 297.828C545.485 302.278 547.292 306.67 549.449 310.831C554.957 321.522 563.146 331.693 574.717 336.201C574.629 333.514 574.542 330.827 574.454 328.139C573.813 308.288 573.289 288.437 572.968 268.586C572.735 253.821 572.589 239.026 572.764 224.232C572.822 218.048 572.968 211.865 573.201 205.681C573.376 200.971 573.638 196.203 574.134 191.493C574.163 191.349 574.279 191.233 574.454 191.233C574.6 191.262 574.717 191.378 574.717 191.551C574.221 196.232 573.988 201 573.784 205.71C573.551 211.894 573.405 218.077 573.347 224.232C573.172 238.997 573.318 253.792 573.551 268.557C573.609 272.891 573.697 277.255 573.784 281.589C584.975 276.792 592.407 266.563 597.099 255.757C598.935 251.567 600.422 247.175 601.558 242.725C602.025 240.876 602.491 238.94 602.782 237.061C602.811 236.917 602.957 236.801 603.103 236.83C603.249 236.859 603.365 237.004 603.336 237.148C603.045 239.055 602.578 241.02 602.112 242.869C600.975 247.348 599.489 251.769 597.624 255.988C592.815 266.997 585.238 277.399 573.784 282.196C574.105 297.51 574.513 312.796 575.008 328.081C575.095 330.913 575.183 333.716 575.299 336.548C575.299 336.577 575.299 336.606 575.299 336.634C575.474 341.027 575.62 345.361 575.795 349.695Z" fill="#0AB4BC"/>
<path d="M575.737 355.908C575.649 355.908 575.562 355.879 575.474 355.821C575.416 355.763 575.358 355.676 575.358 355.561C575.125 349.926 574.921 344.032 574.658 336.923C569.15 334.814 564.021 331.289 559.445 326.434C555.511 322.273 551.926 317.13 548.866 311.149C546.738 307.017 544.902 302.625 543.387 298.03C542.862 296.412 542.192 294.303 541.726 292.28C541.667 292.078 541.813 291.876 542.017 291.847C542.221 291.818 542.425 291.933 542.454 292.136C542.891 294.129 543.562 296.21 544.086 297.828C545.602 302.365 547.409 306.728 549.536 310.831C556.035 323.458 564.72 332.213 574.658 336.114C574.571 333.456 574.483 330.797 574.396 328.168C573.697 306.352 573.201 286.848 572.91 268.615C572.618 250.7 572.56 237.032 572.706 224.261C572.793 217.066 572.939 211.171 573.143 205.71C573.318 201.462 573.551 196.434 574.075 191.522C574.105 191.32 574.279 191.175 574.483 191.204C574.687 191.233 574.833 191.407 574.804 191.609C574.309 196.521 574.046 201.52 573.871 205.768C573.667 211.2 573.522 217.095 573.434 224.289C573.289 237.061 573.347 250.729 573.638 268.615C573.697 272.805 573.784 277.139 573.871 281.531C583.489 277.37 591.504 268.47 597.041 255.785C598.848 251.682 600.334 247.29 601.471 242.754C601.879 241.164 602.374 239.055 602.666 237.09C602.695 236.888 602.899 236.743 603.074 236.772C603.161 236.772 603.249 236.83 603.307 236.917C603.365 237.003 603.394 237.09 603.365 237.177C603.074 239.199 602.549 241.309 602.141 242.898C600.975 247.463 599.46 251.884 597.653 256.016C595.03 262.027 591.853 267.228 588.21 271.475C584.014 276.388 579.146 280 573.813 282.253C574.105 296.557 574.513 311.553 575.037 328.11C575.125 330.942 575.212 333.745 575.329 336.577C575.329 336.605 575.329 336.634 575.329 336.692C575.474 341.286 575.62 345.476 575.795 349.522C578.156 347.586 580.516 345.361 582.819 342.905C589.434 335.883 595.729 327.041 601.529 316.639C604.473 311.351 606.688 306.843 608.32 302.885C608.349 302.798 608.436 302.711 608.524 302.682C608.611 302.653 608.728 302.653 608.815 302.682C608.99 302.769 609.107 302.971 609.019 303.174C607.387 307.161 605.143 311.669 602.199 316.986C596.371 327.475 590.046 336.345 583.402 343.425C580.924 346.054 578.389 348.424 575.853 350.475C575.912 352.151 575.97 353.856 576.057 355.532C576.057 355.619 576.028 355.734 575.97 355.792C575.941 355.85 575.853 355.908 575.737 355.908ZM542.075 292.02C542.046 292.02 542.046 292.02 542.017 292.02C541.9 292.049 541.842 292.165 541.871 292.28C542.338 294.303 543.008 296.412 543.532 298.001C545.048 302.567 546.884 306.959 549.012 311.091C555.656 324.007 564.574 332.878 574.775 336.779L574.833 336.808V336.866C575.066 343.974 575.299 349.926 575.533 355.561C575.533 355.619 575.562 355.676 575.591 355.705C575.62 355.734 575.678 355.763 575.737 355.763C575.795 355.763 575.853 355.734 575.882 355.705C575.911 355.676 575.941 355.619 575.941 355.561C575.882 353.856 575.795 352.151 575.737 350.446V350.417L575.766 350.389C578.301 348.337 580.837 345.968 583.314 343.338C589.959 336.288 596.283 327.417 602.083 316.957C605.026 311.64 607.27 307.132 608.903 303.145C608.932 303.087 608.932 303.029 608.903 303C608.873 302.942 608.844 302.914 608.786 302.885C608.728 302.856 608.669 302.856 608.64 302.885C608.582 302.914 608.553 302.942 608.524 303C606.892 306.959 604.677 311.467 601.733 316.754C595.933 327.186 589.638 336.056 583.023 343.078C580.662 345.563 578.243 347.846 575.853 349.811L575.737 349.926V349.753C575.591 345.679 575.445 341.431 575.27 336.75C575.27 336.721 575.27 336.692 575.27 336.663C575.183 333.831 575.095 331 574.979 328.197C574.454 311.64 574.046 296.614 573.755 282.282V282.225L573.813 282.196C583.722 278.035 591.941 268.99 597.624 256.016C599.431 251.884 600.946 247.463 602.112 242.898C602.52 241.28 603.015 239.199 603.336 237.177C603.336 237.119 603.336 237.061 603.307 237.032C603.278 236.974 603.219 236.946 603.161 236.946C603.045 236.917 602.928 237.003 602.928 237.119C602.637 239.113 602.112 241.193 601.704 242.811C600.538 247.348 599.052 251.74 597.245 255.843C594.651 261.738 591.562 266.852 588.006 271.013C583.868 275.868 579.117 279.451 573.871 281.704L573.755 281.762V281.647C573.667 277.197 573.58 272.834 573.522 268.615C573.23 250.729 573.172 237.032 573.318 224.289C573.405 217.095 573.551 211.2 573.755 205.768C573.93 201.52 574.163 196.521 574.687 191.609C574.687 191.493 574.629 191.407 574.513 191.378C574.396 191.378 574.309 191.436 574.279 191.551C573.755 196.463 573.522 201.491 573.347 205.739C573.143 211.171 572.997 217.066 572.91 224.289C572.764 237.061 572.822 250.729 573.114 268.644C573.405 286.906 573.901 306.381 574.6 328.197C574.687 330.884 574.775 333.571 574.862 336.259V336.374L574.746 336.317C569.325 334.207 564.312 330.711 559.795 325.943C555.919 321.84 552.421 316.783 549.42 310.918C547.292 306.814 545.456 302.422 543.97 297.886C543.445 296.297 542.775 294.187 542.308 292.193C542.25 292.078 542.163 292.02 542.075 292.02Z" fill="#0AB4BC"/>
<path fill-rule="evenodd" clip-rule="evenodd" d="M76.4404 355.792H590.25C590.454 355.792 590.629 355.908 590.629 356.052C590.629 356.197 590.454 356.312 590.25 356.312H76.4404C76.2364 356.312 76.0615 356.197 76.0615 356.052C76.0615 355.908 76.2364 355.792 76.4404 355.792Z" fill="#372D96"/>
<path d="M590.251 356.543H76.4408C76.1202 356.543 75.8579 356.341 75.8579 356.081C75.8579 355.821 76.1202 355.619 76.4408 355.619H590.251C590.571 355.619 590.834 355.821 590.834 356.081C590.834 356.341 590.571 356.543 590.251 356.543ZM76.4408 355.994C76.3534 355.994 76.2659 356.052 76.2659 356.052C76.2659 356.052 76.3242 356.11 76.4408 356.11H590.251C590.338 356.11 590.426 356.052 590.426 356.052C590.426 356.052 590.367 355.994 590.251 355.994H76.4408Z" fill="#372D96"/>
<path fill-rule="evenodd" clip-rule="evenodd" d="M108.761 355.532C108.761 355.532 105.584 228.768 76.9935 233.305C48.374 237.87 80.1702 314.385 77.6929 319.471C75.5654 323.834 40.0096 302.307 84.9207 355.532H108.761Z" fill="#85E3EF"/>
<path fill-rule="evenodd" clip-rule="evenodd" d="M88.1557 297.106C88.1266 297.048 88.0974 296.961 88.1266 296.904C86.2322 286.675 84.163 276.504 81.9772 266.39C79.6165 255.583 77.1684 244.69 74.3414 233.999C74.3123 233.854 74.3997 233.71 74.5454 233.681C74.6911 233.652 74.8369 233.739 74.866 233.883C77.6638 244.574 80.1411 255.497 82.5018 266.304C84.6584 276.215 86.6694 286.155 88.5346 296.152C89.6421 293.956 90.429 291.414 91.0701 289.073C91.9444 285.779 92.6148 282.427 93.1976 279.075C94.072 273.932 94.7131 268.731 95.2086 263.53C95.4417 261.131 95.6457 258.733 95.7915 256.335C95.7915 256.19 95.9372 256.075 96.0829 256.075C96.2286 256.075 96.3452 256.219 96.3452 256.364C96.1995 258.762 95.9955 261.189 95.7623 263.587C95.2669 268.789 94.6257 274.019 93.7514 279.162C93.1685 282.514 92.4982 285.895 91.6239 289.218C90.9244 291.818 90.0209 294.65 88.7386 297.019C91.2158 310.427 93.3725 323.863 95.1211 337.328C95.908 343.396 96.6075 349.464 97.1904 355.561C97.1904 355.706 97.1029 355.85 96.9572 355.85C96.8115 355.85 96.6658 355.763 96.6658 355.619C96.3452 352.267 95.9955 348.915 95.6166 345.592C89.7004 338.137 82.152 331.896 74.0208 326.955C71.3687 325.337 68.6 323.834 65.773 322.505C64.6947 321.985 63.5581 321.465 62.4215 321.031C62.2758 320.973 62.2175 320.829 62.2758 320.684C62.334 320.54 62.4798 320.482 62.6255 320.54C63.7621 320.973 64.9279 321.494 66.0062 322.014C68.8332 323.343 71.631 324.874 74.3123 326.492C82.2395 331.318 89.6421 337.386 95.5 344.581C95.2086 342.183 94.9171 339.784 94.6257 337.386C92.7896 323.892 90.633 310.456 88.1557 297.106Z" fill="#0AB4BC"/>
<path d="M96.8411 355.879C96.6662 355.879 96.5205 355.734 96.4913 355.561C96.1999 352.325 95.821 348.973 95.4422 345.563C89.8465 338.513 82.5896 332.243 73.8755 326.955C71.136 325.279 68.3673 323.805 65.6278 322.505C64.5494 321.985 63.4128 321.465 62.2762 321.031C62.1013 320.973 62.0139 320.771 62.0722 320.598C62.1013 320.511 62.1596 320.453 62.247 320.396C62.3345 320.367 62.4219 320.367 62.5093 320.396C63.646 320.829 64.8117 321.378 65.8901 321.869C68.6296 323.169 71.4274 324.672 74.1961 326.348C82.6188 331.462 89.6716 337.473 95.2381 344.234C94.9758 341.951 94.6844 339.64 94.393 337.328C92.7317 324.585 90.6042 311.033 88.0396 297.106C87.9813 297.019 87.9813 296.933 87.9813 296.875C86.1743 287.166 84.1051 276.908 81.8319 266.361C79.8792 257.375 77.2271 245.557 74.1961 233.97C74.1378 233.796 74.2544 233.594 74.4584 233.536C74.6333 233.479 74.8373 233.594 74.8956 233.796C77.9266 245.383 80.5787 257.202 82.5313 266.217C84.7463 276.446 86.7864 286.415 88.535 295.835C89.6716 293.494 90.4585 290.807 90.954 288.986C91.7409 286.068 92.4112 282.918 93.0815 278.989C93.8684 274.25 94.5387 269.193 95.0924 263.443C95.2964 261.305 95.5296 258.791 95.6753 256.248C95.6753 256.161 95.7336 256.075 95.7919 256.017C95.8502 255.959 95.9376 255.93 96.0542 255.93C96.2582 255.93 96.4039 256.104 96.3748 256.306C96.229 258.906 95.9667 261.536 95.7919 263.53C95.2381 269.28 94.597 274.394 93.7809 279.104C93.1106 283.034 92.4403 286.241 91.6534 289.16C91.0705 291.269 90.1671 294.39 88.7682 296.961C91.362 310.918 93.4895 324.47 95.1507 337.27C95.9667 343.57 96.6662 349.724 97.2199 355.503C97.2199 355.59 97.1908 355.677 97.1325 355.763C97.0742 355.821 96.9868 355.879 96.8994 355.879C96.8702 355.879 96.8702 355.879 96.8411 355.879ZM62.4219 320.54C62.3928 320.54 62.3636 320.54 62.3345 320.569C62.2762 320.598 62.247 320.627 62.247 320.685C62.2179 320.771 62.247 320.887 62.3636 320.916C63.5002 321.349 64.6369 321.869 65.7152 322.389C68.4547 323.69 71.2234 325.192 73.963 326.839C82.677 332.127 89.9631 338.426 95.5879 345.477V345.506V345.534C95.9667 348.973 96.3456 352.325 96.6371 355.561C96.6371 355.619 96.6662 355.648 96.6953 355.677C96.7245 355.706 96.7828 355.734 96.8411 355.706C96.8993 355.706 96.9285 355.677 96.9576 355.648C96.9868 355.619 97.0159 355.561 96.9868 355.503C96.433 349.695 95.7336 343.57 94.9175 337.27C93.2563 324.499 91.1288 310.918 88.535 296.961V296.933V296.904C89.9339 294.332 90.8374 291.24 91.4203 289.131C92.2072 286.212 92.8775 283.034 93.5478 279.104C94.3347 274.365 95.005 269.28 95.5587 263.53C95.7627 261.536 95.9959 258.906 96.1416 256.306C96.1416 256.219 96.0833 256.104 95.9667 256.104C95.9085 256.104 95.8793 256.104 95.821 256.161C95.7919 256.19 95.7627 256.248 95.7627 256.277C95.617 258.849 95.3839 261.363 95.1799 263.472C94.6261 269.193 93.9849 274.308 93.1689 279.018C92.4986 282.918 91.8283 286.097 91.0414 289.015C90.5168 290.922 89.7008 293.725 88.5059 296.124L88.3893 296.326L88.331 296.095C86.5824 286.617 84.5423 276.561 82.2982 266.246C80.3455 257.23 77.6934 245.412 74.6624 233.854C74.6333 233.768 74.5458 233.71 74.4293 233.71C74.3418 233.739 74.2835 233.825 74.2835 233.941C77.3145 245.499 79.9375 257.317 81.9193 266.332C84.2217 276.879 86.2909 287.137 88.0687 296.846V296.875V296.904C88.0687 296.961 88.0687 297.019 88.0978 297.048V297.077C90.6625 311.033 92.8192 324.585 94.4804 337.328C94.801 339.726 95.0924 342.154 95.3547 344.523L95.3839 344.812L95.209 344.61C89.6425 337.762 82.5022 331.694 74.0213 326.521C71.2526 324.845 68.4839 323.343 65.7152 322.043C64.6369 321.522 63.4711 321.002 62.3345 320.569C62.4802 320.54 62.4511 320.54 62.4219 320.54Z" fill="#0AB4BC"/>
<path d="M505.957 182.713C507.58 179.779 506.498 176.096 503.54 174.487C500.582 172.877 496.868 173.951 495.245 176.884C493.623 179.818 494.705 183.501 497.663 185.11C500.621 186.719 504.334 185.646 505.957 182.713Z" fill="#FDA800"/>
<path d="M471.391 163.351C472.747 160.897 471.841 157.816 469.369 156.469C466.897 155.122 463.794 156.019 462.439 158.472C461.083 160.926 461.989 164.007 464.461 165.354C466.933 166.701 470.036 165.804 471.391 163.351Z" fill="#FDA800"/>
<path d="M498.361 185.443C501.566 186.139 504.27 185.543 505.872 182.662C507.775 179.186 506.373 176.107 503.669 174.121C486.844 161.805 479.833 163.692 469.117 156.144C467.114 154.753 463.91 155.746 462.107 158.925C460.905 161.01 461.907 163.593 463.709 165.182C483.038 181.669 495.256 184.748 498.361 185.443Z" fill="#0C456B"/>
<path d="M473.724 117.706C473.724 117.706 474.024 116.713 474.225 115.62C473.123 115.322 471.921 115.024 470.82 114.627L467.615 114.031C467.615 114.031 466.714 117.011 467.415 118.898C467.715 119.792 467.515 121.282 467.415 122.275C467.314 122.772 467.615 123.268 468.216 123.467H468.316C468.917 123.665 469.518 123.268 469.718 122.772C469.918 121.977 470.519 120.984 471.621 120.487C472.622 119.991 473.424 118.898 473.724 117.706Z" fill="#EDB170"/>
<path d="M474.425 113.336C473.924 112.939 473.624 113.634 473.323 113.535C472.923 113.336 473.223 112.144 472.622 111.945C471.921 111.747 471.621 112.839 471.22 112.74C470.819 112.541 470.92 111.846 470.419 111.747C469.918 111.647 469.818 112.641 469.417 112.641C469.017 112.641 468.917 111.846 468.516 111.945C468.115 111.945 467.414 113.038 467.314 114.329C467.214 115.422 467.314 116.514 467.815 116.613C468.316 116.713 468.416 115.72 468.716 115.819C469.017 115.918 468.817 117.209 469.417 117.209C470.018 117.209 470.219 116.117 470.619 116.216C471.02 116.316 470.419 117.507 471.22 117.607C471.821 117.706 471.921 116.514 472.222 116.613C472.522 116.713 472.222 117.607 472.622 117.805C473.123 118.004 473.624 117.11 474.124 116.117C474.725 114.925 474.825 113.535 474.425 113.336Z" fill="#F7C589"/>
<path d="M472.122 114.329C472.723 113.634 475.527 115.819 475.126 117.11C474.725 118.401 472.923 120.189 472.021 120.289C471.12 120.388 470.119 119.593 470.519 118.6C470.92 117.607 472.122 117.11 472.723 117.11C473.323 117.11 473.424 116.316 472.622 115.819C472.122 115.422 471.721 114.925 472.122 114.329Z" fill="#EDB170"/>
<path d="M550.739 140.748C550.739 140.748 550.639 139.755 550.539 138.663C551.741 138.563 552.943 138.464 554.044 138.265L557.249 138.166C557.249 138.166 557.549 141.245 556.548 143.033C556.147 143.827 556.047 145.317 555.947 146.31C555.947 146.807 555.546 147.304 554.946 147.403H554.845C554.244 147.502 553.644 147.006 553.644 146.41C553.543 145.615 553.243 144.523 552.141 143.827C551.44 143.132 550.839 141.94 550.739 140.748Z" fill="#EDB170"/>
<path d="M550.739 136.279C551.34 135.981 551.44 136.676 551.841 136.577C552.241 136.478 552.241 135.187 552.842 135.187C553.543 135.087 553.644 136.279 554.044 136.18C554.445 136.08 554.545 135.286 555.046 135.385C555.546 135.385 555.546 136.378 555.847 136.478C556.247 136.478 556.448 135.782 556.848 135.882C557.249 135.981 557.65 137.173 557.549 138.365C557.449 139.457 557.149 140.55 556.648 140.55C556.147 140.55 556.247 139.557 555.947 139.557C555.647 139.557 555.647 140.947 554.946 140.848C554.345 140.749 554.345 139.656 553.844 139.656C553.443 139.656 553.844 140.947 553.043 140.947C552.442 140.947 552.542 139.755 552.241 139.855C551.941 139.954 552.041 140.848 551.641 140.947C551.14 141.047 550.739 140.053 550.439 138.961C550.238 137.769 550.439 136.478 550.739 136.279Z" fill="#F7C589"/>
<path d="M552.942 137.67C552.542 136.875 549.337 138.564 549.537 139.855C549.737 141.146 551.14 143.232 552.041 143.43C552.942 143.629 554.044 143.033 553.844 142.04C553.643 141.047 552.542 140.252 551.941 140.153C551.34 140.054 551.34 139.259 552.341 138.862C552.742 138.762 553.243 138.266 552.942 137.67Z" fill="#EDB170"/>
<path d="M467.809 165.878C470.582 165.365 472.411 162.719 471.894 159.968C471.378 157.218 468.711 155.405 465.938 155.919C463.166 156.433 461.337 159.079 461.853 161.829C462.37 164.579 465.036 166.392 467.809 165.878Z" fill="#FDA800"/>
<path d="M462.607 163.692C462.607 163.592 462.607 163.592 462.607 163.692C462.107 162.897 461.806 162.003 461.806 161.01C461.806 160.911 461.806 160.812 461.806 160.613C461.806 157.435 463.409 138.464 466.914 121.58H467.214H467.314L470.219 121.878H470.319H470.72C471.821 137.074 473.624 150.979 472.422 161.308C472.022 164.884 469.918 165.778 467.214 165.877H467.114C467.114 165.877 467.114 165.877 467.014 165.877C466.914 165.877 466.714 165.877 466.613 165.877H466.513C466.413 165.877 466.313 165.877 466.313 165.877C466.213 165.877 466.213 165.877 466.213 165.877C464.61 165.678 463.409 164.884 462.607 163.692Z" fill="#0C456B"/>
<path d="M471.922 381.702H454.996V381.404C454.996 380.709 455.497 380.212 456.098 380.113C458.602 379.715 462.808 378.822 465.512 374.253C465.612 374.153 465.712 373.955 465.813 373.756C466.413 372.962 467.315 372.366 468.416 372.366C470.019 372.366 471.321 373.558 471.521 375.047C471.521 375.246 471.521 375.345 471.521 375.544C471.721 377.729 471.922 380.411 471.922 381.702Z" fill="#032349"/>
<path d="M471.621 375.544C471.621 377.332 470.219 378.722 468.416 378.722C466.614 378.722 465.212 377.332 465.212 375.544C465.212 375.047 465.312 374.65 465.512 374.253C465.612 374.153 465.712 373.955 465.813 373.756C466.413 372.962 467.315 372.366 468.416 372.366C470.019 372.366 471.321 373.558 471.521 375.047C471.621 375.246 471.621 375.345 471.621 375.544Z" fill="#032349"/>
<path d="M465.412 373.359C467.815 374.253 469.718 375.048 472.322 375.346C476.528 350.118 487.144 332.538 480.134 319.428L466.814 320.024C466.213 333.233 465.312 353.495 465.412 373.359Z" fill="#16B9C1"/>
<path d="M501.67 264.227C503.143 255.684 497.355 247.574 488.74 246.112C480.126 244.651 471.949 250.392 470.475 258.935C469.002 267.478 474.791 275.588 483.405 277.049C492.019 278.51 500.197 272.77 501.67 264.227Z" fill="#0396C8"/>
<path d="M470.419 259.637C468.516 280.494 467.615 296.882 466.914 319.825L478.732 326.381C488.947 311.085 501.465 276.223 501.666 264.305L470.419 259.637Z" fill="#16B9C1"/>
<path d="M525.702 382H513.584V381.702C513.584 381.007 514.085 380.61 514.685 380.411C517.39 379.319 517.89 377.829 519.292 374.551C519.392 374.353 519.493 374.253 519.593 374.055C520.194 373.26 521.095 372.664 522.197 372.664C523.799 372.664 525.101 373.856 525.301 375.346C525.301 375.544 525.301 375.644 525.301 375.842C525.502 377.928 525.702 380.61 525.702 382Z" fill="#032349"/>
<path d="M525.401 375.842C525.401 377.63 523.999 379.021 522.196 379.021C520.394 379.021 518.992 377.63 518.992 375.842C518.992 375.346 519.092 374.948 519.292 374.551C519.392 374.452 519.492 374.253 519.592 374.055C520.193 373.26 521.095 372.664 522.196 372.664C523.799 372.664 525.101 373.856 525.301 375.346C525.401 375.445 525.401 375.644 525.401 375.842Z" fill="#032349"/>
<path d="M509.989 326.733C513.148 325.726 514.888 322.368 513.875 319.234C512.861 316.1 509.479 314.376 506.32 315.384C503.161 316.391 501.421 319.749 502.434 322.883C503.447 326.017 506.829 327.741 509.989 326.733Z" fill="#6ACEF0"/>
<path d="M517.99 373.856C519.793 374.352 522.597 374.75 525.201 374.253C521.195 349.025 525.601 328.267 514.785 318.037L502.367 322.805C505.972 335.617 511.58 355.084 517.99 373.856Z" fill="#19C6D8"/>
<path d="M510.262 326.661C513.372 325.512 514.954 322.081 513.796 318.997C512.637 315.912 509.177 314.343 506.067 315.492C502.957 316.641 501.375 320.072 502.534 323.156C503.692 326.24 507.152 327.81 510.262 326.661Z" fill="#19C6D8"/>
<path d="M502.327 277.213C510.893 275.497 516.439 267.219 514.714 258.722C512.989 250.225 504.646 244.728 496.079 246.444C487.513 248.16 481.967 256.439 483.692 264.936C485.417 273.432 493.76 278.929 502.327 277.213Z" fill="#6ACEF0"/>
<path d="M483.839 265.497C489.648 285.559 494.756 301.252 502.467 322.904L515.887 324.791C519.893 306.914 518.891 269.966 514.785 258.743L483.839 265.497Z" fill="#19C6D8"/>
<path d="M512.983 172.035C521.596 176.305 525.201 186.039 522.597 195.474C515.587 219.907 515.186 239.076 516.588 263.807C496.959 270.363 482.337 271.555 468.416 264.602C471.02 236.395 475.727 212.558 488.446 183.258C493.153 172.134 504.37 167.863 512.983 172.035Z" fill="#144C77"/>
<path d="M515.072 190.612C518.446 190.584 521.158 187.85 521.131 184.503C521.103 181.157 518.345 178.467 514.971 178.495C511.597 178.523 508.885 181.257 508.912 184.604C508.94 187.95 511.698 190.64 515.072 190.612Z" fill="#FDA800"/>
<path d="M546.812 188.824C549.633 188.801 551.901 186.515 551.878 183.717C551.855 180.92 549.549 178.67 546.728 178.694C543.907 178.717 541.639 181.003 541.663 183.801C541.686 186.598 543.992 188.847 546.812 188.824Z" fill="#FDA800"/>
<path d="M514.184 190.608C511.08 189.714 508.876 187.926 508.876 184.55C508.876 180.577 511.58 178.59 514.885 178.094C535.616 175.114 533.914 180.179 546.933 178.491C549.337 178.193 551.74 180.577 551.74 184.252C551.74 186.635 549.737 188.423 547.334 189.019C522.597 194.482 517.289 191.403 514.184 190.608Z" fill="#0C456B"/>
<path d="M551.39 185.836C552.568 183.294 551.446 180.284 548.884 179.113C546.322 177.942 543.291 179.053 542.113 181.595C540.935 184.137 542.057 187.147 544.618 188.318C547.18 189.489 550.212 188.378 551.39 185.836Z" fill="#FDA800"/>
<path d="M550.138 187.43C550.138 187.33 550.238 187.33 550.138 187.43C550.839 186.734 551.24 185.94 551.54 185.046C551.54 184.946 551.641 184.847 551.641 184.748C552.442 181.669 555.546 162.897 556.347 145.615H556.047H555.947L553.043 145.218H552.943L552.542 145.119C547.735 159.52 542.527 172.631 541.225 182.96C540.724 186.436 542.527 187.926 545.131 188.621H545.231C545.231 188.621 545.231 188.621 545.331 188.621C545.431 188.621 545.531 188.721 545.732 188.721H545.832C545.932 188.721 546.032 188.721 546.032 188.721C546.132 188.721 546.132 188.721 546.132 188.721C547.735 188.919 549.137 188.423 550.138 187.43Z" fill="#0C456B"/>
<path d="M513.784 173.624C513.183 171.34 513.984 167.665 514.786 164.983C515.286 163.295 514.385 161.507 512.683 161.01C510.98 160.613 509.378 161.705 508.877 163.493C508.276 166.175 507.174 169.75 505.472 171.439C504.971 173.823 513.083 176.008 513.784 173.624Z" fill="#EDB170"/>
<path d="M505.972 145.417C503.869 150.482 499.462 163.295 505.371 166.473C509.377 168.658 518.49 163.195 520.293 159.222C522.196 155.15 527.304 149.688 517.789 144.324C510.178 140.053 507.174 142.636 505.972 145.417Z" fill="#F7C589"/>
<path d="M516.488 166.771C516.488 166.771 513.684 164.486 515.386 162.599C516.989 160.811 519.092 160.911 520.394 158.726C521.595 156.64 519.893 155.249 518.491 155.547C516.688 155.945 516.087 157.335 515.787 157.931C515.787 157.931 514.485 156.541 516.488 154.653C518.491 152.766 519.993 151.972 519.492 149.091C518.991 146.211 512.281 142.338 508.676 143.232C507.574 143.43 506.773 144.125 506.373 144.721C506.373 144.721 507.875 138.762 513.784 136.279C518.39 134.392 520.894 134.889 522.096 136.279C523.398 137.769 522.797 141.841 521.695 143.232C521.695 143.232 526.102 141.642 527.104 145.218C528.105 148.794 525 149.985 525 149.985C525 149.985 527.304 150.184 527.504 152.369C527.704 154.554 526.403 156.143 523.999 158.03C521.695 159.818 519.392 161.705 517.79 163.493C516.187 165.281 516.488 166.771 516.488 166.771Z" fill="#032349"/>
<path d="M176.782 300.358C176.782 300.358 165.165 319.03 161.058 321.315C161.058 321.315 154.549 323.202 151.745 315.753C151.745 315.753 159.156 293.604 163.262 289.234L176.782 300.358Z" fill="#EDB170"/>
<path d="M186.296 302.941C186.296 302.941 183.492 324.692 180.587 328.466C180.587 328.466 175.38 332.836 169.771 327.175C169.771 327.175 167.368 303.934 169.271 298.272L186.296 302.941Z" fill="#F7C589"/>
<path d="M198.414 186.834C198.414 186.834 200.818 184.748 202.42 182.364C203.922 179.981 205.525 173.922 205.024 173.823C204.423 173.723 203.522 177.299 203.121 177.2C202.721 177.1 203.722 172.035 203.121 171.836C202.52 171.638 201.619 176.504 201.218 176.405C200.818 176.306 201.419 170.645 200.617 170.645C199.716 170.645 199.916 175.809 199.215 176.008C198.614 176.207 198.815 171.141 198.014 171.141C197.212 171.24 196.712 179.087 196.912 180.974C197.012 182.861 197.813 184.55 196.912 185.741C195.81 186.834 198.414 186.834 198.414 186.834Z" fill="#EDB170"/>
<path d="M197.513 183.159C197.413 183.059 195.309 179.186 193.707 178.491C192.105 177.795 196.411 177.597 198.114 180.874C199.716 184.251 197.513 183.159 197.513 183.159Z" fill="#EDB170"/>
<path d="M210.032 183.854C209.831 183.755 206.426 180.974 204.724 180.974C203.021 180.974 206.927 179.186 209.631 181.57C212.435 184.053 210.032 183.854 210.032 183.854Z" fill="#F7C589"/>
<path d="M211.534 187.132C211.534 187.132 213.537 184.649 214.538 181.967C215.54 179.385 215.94 173.127 215.339 173.127C214.738 173.127 214.538 176.802 214.138 176.802C213.737 176.802 213.637 171.638 213.036 171.538C212.435 171.439 212.435 176.405 212.034 176.405C211.634 176.405 211.133 170.744 210.232 170.843C209.33 171.042 210.532 176.107 209.931 176.405C209.33 176.703 208.529 171.638 207.728 171.836C206.927 172.035 208.129 179.881 208.529 181.669C209.03 183.457 210.132 185.046 209.531 186.337C208.93 187.827 211.534 187.132 211.534 187.132Z" fill="#F7C589"/>
<path d="M168.47 213.452C168.47 213.452 175.38 218.517 181.289 213.253C181.289 213.253 193.908 202.328 200.317 184.847L197.012 183.854C197.012 183.854 183.592 202.129 177.083 207.294C175.881 208.188 174.278 208.188 173.177 207.294C172.175 206.499 170.473 205.208 169.371 204.016L168.47 213.452Z" fill="#EDB170"/>
<path d="M184.493 243.248C179.085 223.881 177.182 203.222 177.182 203.222C183.592 198.355 179.786 189.416 179.786 189.416C171.073 187.032 164.463 179.186 159.556 177.497C156.651 176.504 152.746 175.412 149.641 178.789C142.23 186.734 157.352 215.041 157.352 215.041C164.163 232.422 156.752 243.05 156.752 243.05C143.732 252.584 149.941 266.39 153.647 272.548C155.85 276.124 157.353 279.997 158.054 284.169C158.454 286.254 158.454 287.545 158.454 287.545C158.154 295.59 153.046 297.378 153.046 297.378C168.169 309.694 190.602 303.238 190.602 303.238C184.293 283.573 187.998 255.663 184.493 243.248Z" fill="#19C6D8"/>
<path d="M209.631 184.549C209.631 184.549 195.41 209.28 190.302 210.969C188.399 211.664 183.091 218.815 192.105 218.12C192.105 218.12 202.02 217.027 212.836 185.245L209.631 184.549Z" fill="#F7C589"/>
<path d="M188.199 217.822C177.583 214.743 166.667 209.777 156.151 194.084C153.447 190.012 154.048 188.323 155.45 187.132C156.852 185.94 161.459 186.436 164.464 189.019C167.568 191.601 181.088 204.612 188.9 210.571C190.202 211.565 194.008 211.962 193.507 215.041C193.106 218.219 192.706 219.113 188.199 217.822Z" fill="#F7C589"/>
<path d="M160.958 366.804C161.459 366.01 162.36 364.52 162.861 362.235C164.764 353.793 167.167 332.737 169.771 327.076L180.587 328.367L167.468 367.599C166.767 371.274 166.967 374.849 169.07 377.928C168.67 380.809 165.665 382.497 160.558 367.201C160.758 367.201 160.858 367.003 160.958 366.804Z" fill="#F7C589"/>
<path d="M157.153 373.955C158.054 374.75 163.863 378.623 165.966 380.51C168.67 382.993 175.08 381.503 175.08 381.503L174.98 381.106C174.679 380.212 173.878 379.616 172.977 379.616C171.074 379.517 170.473 378.722 169.171 377.928C167.168 379.02 166.767 379.418 160.658 367.201C156.853 371.174 157.153 373.955 157.153 373.955Z" fill="#032349"/>
<path d="M123.403 301.55C123.603 301.649 123.703 301.748 123.903 301.848C124.504 302.344 125.606 303.04 127.308 303.437C135.521 305.721 156.953 309.098 162.561 312.078L161.359 318.931C161.059 320.917 158.956 322.109 156.953 321.414L123.102 308.403C119.296 307.41 115.491 307.41 112.186 309.496C109.482 308.999 107.779 305.92 123.403 301.55Z" fill="#EDB170"/>
<path d="M116.792 297.776C115.891 298.67 111.885 304.232 109.882 306.218C107.278 308.8 108.48 315.256 108.48 315.256L108.881 315.157C109.782 314.859 110.383 314.164 110.483 313.17C110.683 311.283 111.484 310.687 112.286 309.496C111.284 307.509 110.884 307.112 123.402 301.451C119.697 297.676 116.792 297.776 116.792 297.776Z" fill="#032349"/>
<path d="M149.942 178.392C150.944 176.207 150.944 172.333 150.744 169.453C150.643 167.566 151.845 165.977 153.347 165.977C154.85 165.977 156.152 167.466 156.152 169.353C156.152 172.234 156.452 176.107 157.554 178.193C157.554 180.676 150.043 180.875 149.942 178.392Z" fill="#EDB170"/>
<path d="M160.558 148.396C165.665 155.746 163.462 166.274 163.462 166.274C160.658 179.186 150.142 166.374 149.241 165.082C146.737 161.706 145.535 154.852 148.34 151.575C151.745 147.503 159.356 146.807 160.558 148.396Z" fill="#F7C589"/>
<path d="M163.462 156.839C162.661 153.661 162.26 151.376 160.458 148.496C160.858 152.767 157.553 153.561 154.348 155.051C147.438 158.13 152.446 165.678 151.644 171.24C151.244 173.724 149.842 175.909 148.84 178.292C147.638 181.272 148.339 183.358 149.141 186.238C150.142 189.814 150.543 193.786 150.943 197.461C151.244 200.54 151.344 203.719 149.942 206.5C148.54 209.281 145.836 211.068 142.731 211.565C141.029 211.863 139.226 211.466 138.024 210.274C136.722 208.983 136.422 206.798 136.722 205.01C137.023 203.123 137.824 201.434 138.224 199.547C138.925 195.972 137.123 194.482 135.32 191.8C133.417 188.92 131.514 185.543 132.316 182.067C133.117 178.292 137.023 175.611 137.724 171.836C138.325 168.757 136.622 165.679 135.921 162.6C134.719 156.839 137.623 150.582 142.431 147.105C146.236 144.424 151.043 143.331 155.75 143.828C157.253 143.927 159.456 143.927 160.758 144.821C162.36 145.914 163.362 148.297 163.762 150.085C164.063 151.277 164.263 152.469 164.063 153.661C163.863 155.647 163.562 155.945 163.462 156.839Z" fill="#FFD133"/>
<path d="M318.894 237.786C318.894 237.786 318.794 237.786 318.894 237.786C319.495 236.892 317.191 234.806 315.789 233.614C315.789 233.217 315.589 232.621 315.188 232.025C314.888 231.528 314.387 231.131 313.686 230.833C311.583 229.939 309.179 232.522 308.579 233.118C307.978 233.813 305.875 234.111 305.274 234.111C304.873 234.607 304.873 235.998 304.873 235.998C304.873 235.998 305.574 236.792 306.676 237.686C306.475 238.084 306.976 238.779 307.377 238.481C307.377 238.481 307.477 238.481 307.477 238.382L307.577 238.481C306.776 238.68 307.277 239.971 308.078 239.772C308.378 239.673 308.478 239.474 308.579 239.375C308.679 239.474 308.779 239.474 308.779 239.573H308.679C307.978 239.772 308.378 240.964 309.18 240.567C309.38 240.467 309.58 240.368 309.58 240.169C309.68 240.169 309.68 240.269 309.78 240.269C309.38 240.567 309.68 241.262 310.381 241.163C310.582 241.163 310.682 241.063 310.782 240.964C311.683 241.461 312.384 241.659 312.785 241.361C312.985 241.262 312.985 240.666 313.286 240.765C313.486 240.765 314.287 241.56 314.788 241.063C315.289 240.567 314.588 240.368 314.988 239.971C315.289 239.673 316.39 241.063 316.991 240.07C317.392 239.474 316.29 239.176 316.591 238.978C316.891 238.68 318.694 239.772 319.094 238.779C319.295 238.282 319.194 237.984 318.894 237.786ZM312.885 233.316C312.885 233.217 312.885 233.217 312.885 233.118C312.885 232.919 312.985 232.82 313.085 232.72C313.386 232.522 313.686 232.72 313.987 232.919C313.686 233.018 313.286 233.118 312.885 233.316Z" fill="#F7C589"/>
<path d="M307.376 238.58C307.276 238.58 307.276 238.58 307.276 238.481C307.176 238.382 307.276 238.282 307.276 238.282C307.477 238.084 307.577 237.786 307.577 237.686C307.477 237.587 307.276 237.488 306.976 237.587C306.876 237.587 306.776 237.686 306.776 237.786C306.776 237.885 306.675 237.885 306.575 237.885C306.475 237.885 306.475 237.786 306.475 237.686C306.575 237.488 306.675 237.388 306.876 237.289C307.577 237.091 307.777 237.388 307.877 237.587C308.077 237.786 307.877 238.282 307.376 238.58C307.477 238.58 307.477 238.58 307.376 238.58Z" fill="#EDB170"/>
<path d="M309.68 240.269C309.68 240.269 309.58 240.269 309.68 240.269C309.48 240.169 309.48 240.07 309.58 239.971C309.68 239.871 309.68 239.772 309.58 239.673C309.48 239.474 309.18 239.474 308.779 239.573C308.679 239.573 308.579 239.573 308.579 239.474C308.579 239.375 308.579 239.275 308.679 239.275C309.18 239.176 309.58 239.275 309.78 239.474C309.881 239.673 309.981 239.971 309.78 240.169C309.78 240.268 309.68 240.269 309.68 240.269Z" fill="#EDB170"/>
<path d="M310.881 241.063H310.781C310.681 240.964 310.681 240.865 310.781 240.865C310.882 240.765 310.882 240.567 310.781 240.467C310.681 240.368 310.481 240.269 310.08 240.368C309.98 240.368 309.98 240.368 309.98 240.467C309.88 240.567 309.78 240.467 309.78 240.467C309.68 240.368 309.78 240.269 309.78 240.269C309.88 240.169 309.98 240.169 310.08 240.169C310.781 239.971 310.982 240.269 311.082 240.368C311.182 240.567 311.182 240.865 310.982 241.163C310.982 241.063 310.881 241.063 310.881 241.063Z" fill="#EDB170"/>
<path d="M308.478 239.474C308.278 239.375 308.278 239.276 308.378 239.177C308.478 238.978 308.578 238.779 308.478 238.68C308.378 238.481 307.977 238.481 307.577 238.581C307.477 238.581 307.376 238.581 307.376 238.481C307.376 238.382 307.377 238.283 307.477 238.283C308.278 238.084 308.578 238.382 308.779 238.481C308.979 238.68 308.879 239.077 308.678 239.375C308.578 239.474 308.578 239.474 308.478 239.474Z" fill="#EDB170"/>
<path d="M320.797 233.614C320.797 233.614 319.395 233.813 317.992 233.019C317.392 232.721 316.29 232.224 315.188 231.827C313.786 231.429 312.184 231.231 310.782 231.926C310.181 232.224 309.88 232.323 309.88 232.621C309.981 232.919 310.481 233.317 311.282 233.019C311.683 232.82 312.284 232.919 312.785 233.019C314.387 233.416 314.988 235.104 315.389 235.899L315.489 235.998C316.49 236.793 318.093 237.19 318.794 237.687C320.096 236.892 321.398 234.906 321.398 234.906L320.797 233.614Z" fill="#EDB170"/>
<path d="M364.702 223.746C367.303 221.979 367.967 218.456 366.185 215.876C364.404 213.297 360.851 212.638 358.25 214.405C355.649 216.172 354.985 219.696 356.766 222.276C358.548 224.855 362.101 225.514 364.702 223.746Z" fill="#004275"/>
<path d="M366.264 222.192C366.264 222.192 366.264 222.291 366.164 222.291C365.563 223.086 364.862 223.682 363.861 224.179C363.761 224.179 363.66 224.278 363.46 224.377C360.155 225.768 347.436 231.826 320.596 236.991L320.496 236.594V236.494L319.495 233.415V233.316L319.395 232.919C334.617 224.874 348.238 216.729 359.554 213.253C363.46 212.061 365.363 213.75 366.665 216.531C366.665 216.531 366.665 216.63 366.765 216.63C366.765 216.63 366.765 216.63 366.765 216.729C366.865 216.829 366.865 217.027 366.965 217.127V217.226C366.965 217.325 367.066 217.425 367.066 217.524C367.066 217.623 367.066 217.623 367.066 217.723C367.466 219.312 367.166 220.901 366.264 222.192Z" fill="#004275"/>
<path d="M356.95 382H335.919V381.603C335.919 380.808 336.52 380.113 337.321 379.914C347.036 377.928 349.239 372.266 349.339 372.068C350.04 371.075 351.242 370.379 352.644 370.379C354.647 370.379 356.249 371.869 356.55 373.756C356.55 373.955 356.55 374.154 356.55 374.352C356.75 377.034 356.95 380.312 356.95 382Z" fill="#032349"/>
<path d="M352.134 319.909C355.771 319.605 358.472 316.433 358.165 312.825C357.859 309.218 354.662 306.54 351.024 306.845C347.386 307.149 344.686 310.321 344.992 313.929C345.298 317.537 348.496 320.214 352.134 319.909Z" fill="#004275"/>
<path d="M347.435 373.756C349.238 374.749 354.145 374.551 356.749 373.061C358.752 345.052 368.467 325.387 359.453 311.78L345.032 313.866C345.532 328.366 345.132 352.104 347.435 373.756Z" fill="#004275"/>
<path d="M351.728 319.817C355.377 319.705 358.243 316.68 358.13 313.062C358.017 309.443 354.968 306.601 351.319 306.713C347.671 306.825 344.804 309.85 344.917 313.468C345.03 317.087 348.08 319.929 351.728 319.817Z" fill="#004275"/>
<path d="M346.034 246.228C346.034 246.426 345.934 246.625 345.934 246.923C345.934 246.923 345.934 247.022 345.934 247.122C345.934 247.42 345.934 247.618 345.934 247.916C345.934 248.313 345.934 248.711 345.934 249.009C346.234 257.352 352.544 264.403 361.157 265.496C367.666 266.291 373.776 263.41 377.381 258.544C379.083 256.259 380.185 253.577 380.586 250.598C381.787 241.162 375.077 232.521 365.563 231.329C355.949 230.138 347.236 236.792 346.034 246.228Z" fill="#004275"/>
<path d="M345.934 246.923C345.934 247.022 345.934 247.022 345.934 247.121C345.934 247.419 345.934 247.618 345.934 247.916C345.934 248.214 345.934 248.611 345.934 249.009C344.932 270.959 344.732 288.737 345.132 313.17L355.748 318.434L358.452 319.825C367.265 305.224 377.28 275.229 379.984 258.345C380.485 255.266 380.685 252.683 380.685 250.598L345.934 246.923Z" fill="#004275"/>
<path d="M404.922 382H389.8V381.603C389.8 380.808 390.401 380.312 391.102 380.014C396.51 378.424 397.712 372.862 397.812 372.664C398.513 371.671 399.614 371.075 400.816 371.075C402.619 371.075 404.221 372.465 404.422 374.154C404.422 374.352 404.422 374.551 404.422 374.75C404.722 377.332 404.922 380.411 404.922 382Z" fill="#032349"/>
<path d="M383.917 324.305C387.294 322.929 388.909 319.098 387.525 315.748C386.141 312.397 382.282 310.797 378.905 312.173C375.528 313.549 373.913 317.38 375.297 320.731C376.681 324.081 380.54 325.681 383.917 324.305Z" fill="#004E97"/>
<path d="M396.61 374.352C399.414 374.253 402.218 374.253 404.121 371.571C397.511 344.258 401.216 324.791 388.497 314.561L375.378 320.818C380.285 334.425 387.897 354.29 396.61 374.352Z" fill="#004E97"/>
<path d="M377.89 270.105C387.415 268.747 394.03 259.987 392.665 250.539C391.299 241.092 382.47 234.534 372.944 235.893C363.419 237.251 356.804 246.011 358.169 255.458C359.535 264.906 368.364 271.463 377.89 270.105Z" fill="#004E97"/>
<path d="M358.353 256.16C363.46 278.607 368.067 296.087 375.178 320.222L389.799 323.103C395.308 303.735 396.509 263.113 392.704 250.598L358.353 256.16Z" fill="#004E97"/>
<path d="M350.541 252.286C355.148 255.067 364.962 255.067 369.269 254.868C366.264 233.018 366.364 208.386 369.97 187.827C373.174 169.651 380.385 166.075 384.291 165.479C382.989 164.585 381.487 163.89 379.985 163.394C377.18 162.4 374.076 162.202 371.171 162.798C366.665 165.181 360.255 170.644 356.249 184.052C348.738 209.181 349.739 239.275 350.541 252.286Z" fill="white"/>
<path d="M363.56 255.961C355.749 255.961 349.84 253.379 349.54 253.18L350.541 250.995C350.641 250.995 358.853 254.67 368.368 253.18L368.768 255.465C366.865 255.862 365.163 255.961 363.56 255.961Z" fill="#FF6766"/>
<path d="M359.154 256.458L355.648 255.862C355.148 255.763 354.847 255.365 354.847 254.968V252.783C354.847 252.187 355.348 251.79 355.949 251.889L359.454 252.485C359.955 252.584 360.255 252.982 360.255 253.379V255.564C360.155 256.16 359.654 256.557 359.154 256.458Z" fill="#FFD133"/>
<path d="M380.185 164.089C378.983 161.904 378.883 157.931 378.983 155.051C379.083 153.164 377.681 151.575 375.879 151.575C374.076 151.575 372.574 153.065 372.674 155.051C372.674 157.931 372.474 161.904 371.272 164.089C371.172 166.572 380.085 166.672 380.185 164.089Z" fill="#EDB170"/>
<path d="M363.861 137.67C363.26 143.43 362.759 157.733 369.67 159.123C374.377 160.116 381.888 151.873 382.589 147.304C383.19 142.636 386.695 135.584 375.478 133.002C366.465 131.015 364.262 134.491 363.861 137.67Z" fill="#F7C589"/>
<path d="M386.695 134.789C386.094 133.002 385.092 130.916 383.39 129.923C379.083 127.44 375.177 128.234 369.369 128.135C363.56 128.035 365.062 125.453 365.062 125.453C365.062 125.453 361.858 128.532 361.958 131.71C362.158 134.889 364.361 135.783 364.361 135.783C364.361 135.783 368.267 134.193 372.774 134.889C377.281 135.584 379.784 138.464 378.182 141.642C376.58 144.821 376.079 145.417 376.68 147.502L377.681 147.304C377.781 146.609 377.982 145.019 379.684 144.126C380.986 143.43 383.189 144.324 382.589 146.807C381.887 149.489 380.686 148.794 379.884 150.581C378.883 152.965 380.285 153.362 380.586 153.362C380.586 151.972 382.288 149.588 382.889 148.694C383.89 147.105 384.491 145.019 384.892 142.934C384.992 142.338 385.092 141.543 385.192 140.947C385.293 140.153 385.493 139.954 386.094 138.762C386.995 136.974 387.195 136.577 386.695 134.789Z" fill="#FFD133"/>
<path d="M352.043 258.643C351.242 245.632 349.94 209.777 357.551 184.649C361.658 171.141 366.765 165.182 371.272 162.798C364.362 164.188 357.952 169.75 355.348 178.491C345.734 211.267 343.13 225.47 344.131 255.862C346.535 257.749 349.239 258.345 352.043 258.643Z" fill="#004E97"/>
<path d="M369.569 167.963C368.768 169.055 368.067 170.347 367.466 171.638C366.865 172.929 366.264 174.22 365.663 175.611C364.562 178.292 363.66 181.073 362.959 183.854C362.559 185.245 362.358 186.635 362.058 188.026C361.858 189.416 361.758 190.807 361.758 192.297C361.657 195.177 361.657 198.157 361.657 201.037C361.657 206.897 361.557 212.757 361.457 218.617C361.357 221.596 361.257 224.477 361.057 227.456C360.856 230.436 360.556 233.416 359.855 236.395L357.651 237.587L356.55 235.601C357.251 232.919 357.651 230.039 357.952 227.158C358.252 224.278 358.453 221.398 358.653 218.517C358.953 212.657 359.154 206.897 359.454 201.037C359.554 198.157 359.654 195.177 359.855 192.297C359.955 190.906 360.055 189.317 360.355 187.827C360.656 186.337 360.956 184.847 361.457 183.457C362.258 180.577 363.36 177.796 364.462 175.114C365.062 173.723 365.663 172.432 366.364 171.141C367.065 169.85 367.767 168.559 368.768 167.268L369.569 167.963Z" fill="#FF6766"/>
<path d="M372.373 167.068L367.967 169.055L369.269 164.089L371.773 162.897L372.373 167.068Z" fill="#FF6766"/>
<path d="M381.587 164.089L379.284 161.606C379.284 161.606 376.58 164.784 372.574 162.897C371.873 162.5 372.173 160.812 372.173 160.812L366.965 166.076L371.172 163.89L371.071 168.956C371.071 168.956 376.98 169.552 381.587 164.089Z" fill="white"/>
<path d="M371.572 169.254C371.272 169.254 371.071 169.254 370.971 169.254C370.771 169.254 370.671 169.055 370.671 168.956L370.771 164.387L367.866 165.976C367.666 166.075 367.466 165.976 367.466 165.877C367.366 165.678 367.466 165.479 367.566 165.479L370.971 163.692C371.071 163.592 371.171 163.592 371.272 163.692C371.372 163.791 371.472 163.89 371.472 163.99L371.372 168.757C371.672 168.757 372.273 168.757 373.074 168.658C373.274 168.658 373.375 168.757 373.475 168.956C373.475 169.154 373.375 169.254 373.174 169.353C372.473 169.254 371.973 169.254 371.572 169.254Z" fill="#B2EBF3"/>
<path d="M366.464 187.33C362.859 207.989 363.66 241.559 366.665 263.509C375.778 265.595 385.693 264.701 396.409 259.537C391.702 233.415 389.198 213.948 393.405 187.032C394.707 178.292 392.103 170.247 385.192 165.777L381.687 163.592C377.681 164.188 369.669 169.154 366.464 187.33Z" fill="#004E97"/>
<path d="M366.165 206.896C366.065 206.896 366.065 206.896 366.165 206.896C365.864 206.797 365.764 206.598 365.864 206.499L372.775 183.258L370.371 180.377C370.271 180.278 370.271 180.179 370.371 179.98C370.471 179.881 370.571 179.781 370.671 179.781H374.677L377.482 167.763C377.482 167.565 377.682 167.466 377.882 167.565C378.082 167.565 378.183 167.763 378.082 167.962L375.178 180.179C375.178 180.377 374.978 180.477 374.878 180.477H371.272L373.375 182.96C373.476 183.059 373.476 183.158 373.476 183.258L366.565 206.697C366.365 206.797 366.265 206.896 366.165 206.896Z" fill="#0071BC"/>
<path d="M352.444 204.215C352.244 204.215 352.144 204.016 352.144 203.917C352.444 193.885 355.949 179.98 355.949 179.881C355.949 179.782 356.049 179.682 356.049 179.682L357.852 178.59L357.051 178.192C356.851 178.093 356.851 177.894 356.851 177.795C358.954 173.425 361.658 169.651 364.963 166.175C365.063 166.075 365.263 166.075 365.463 166.175C365.564 166.274 365.564 166.473 365.463 166.671C362.259 170.048 359.755 173.723 357.652 177.795L358.653 178.292C358.753 178.391 358.854 178.49 358.854 178.59C358.854 178.689 358.753 178.788 358.653 178.888L356.45 180.278C356.049 181.768 353.045 194.68 352.744 204.115C352.744 204.115 352.544 204.215 352.444 204.215Z" fill="#0071BC"/>
<path d="M375.678 264.9C372.574 264.9 369.569 264.602 366.465 263.907C366.264 263.907 366.164 263.708 366.164 263.51L365.964 262.318C365.964 262.119 366.064 261.821 366.364 261.821C366.565 261.821 366.865 261.92 366.865 262.218L366.965 263.112C375.378 264.999 384.191 264.105 393.004 260.431C393.204 260.331 393.505 260.431 393.605 260.629C393.705 260.828 393.605 261.126 393.405 261.225C387.396 263.708 381.487 264.9 375.678 264.9Z" fill="#004275"/>
<path d="M389.925 183.515C393.52 181.815 395.047 177.545 393.336 173.978C391.625 170.412 387.325 168.899 383.73 170.6C380.136 172.3 378.609 176.57 380.32 180.137C382.03 183.704 386.331 185.216 389.925 183.515Z" fill="#004E97"/>
<path d="M408.654 223.759C411.65 222.344 412.922 218.788 411.495 215.816C410.067 212.845 406.482 211.584 403.485 212.999C400.489 214.415 399.218 217.971 400.645 220.943C402.072 223.914 405.658 225.175 408.654 223.759Z" fill="#004E97"/>
<path d="M392.904 173.028C390.3 170.148 387.295 168.857 383.69 170.545C379.384 172.532 378.683 176.505 379.884 180.279C387.496 203.719 395.608 206.698 400.515 221.299C401.417 223.98 405.222 225.271 409.228 223.384C411.832 222.192 412.733 219.113 412.032 216.332C405.022 187.231 395.408 175.809 392.904 173.028Z" fill="#004E97"/>
<path d="M390.4 203.321C390.3 203.321 390.1 203.221 390 203.122C386.594 197.858 382.989 191.402 379.384 180.377C378.082 176.405 379.083 172.928 382.288 170.843C382.488 170.743 382.789 170.743 382.889 170.942C382.989 171.141 382.989 171.439 382.789 171.538C379.985 173.326 379.083 176.504 380.285 180.079C383.79 191.005 387.396 197.361 390.801 202.625C390.901 202.824 390.901 203.122 390.701 203.221C390.6 203.321 390.5 203.321 390.4 203.321Z" fill="#004275"/>
<path d="M412.934 264.602C412.934 264.602 411.432 267.979 412.633 270.164C414.236 273.044 413.535 273.938 414.136 273.938C414.636 273.938 415.037 273.442 414.837 272.051C414.536 270.164 412.934 264.602 412.934 264.602Z" fill="#F7C589"/>
<path d="M426.354 265.397L438.973 295.591C439.273 296.286 439.073 296.981 438.472 297.279L416.239 308.006C415.538 308.403 414.436 307.907 414.035 307.013L399.914 276.62C399.614 275.925 399.814 275.13 400.415 274.833L407.626 271.654L410.43 270.462L411.832 269.866L421.346 265.695L424.151 264.503C424.952 264.106 425.953 264.602 426.354 265.397Z" fill="#FF6766"/>
<g clip-path="url(#clip0)">
<path fill-rule="evenodd" clip-rule="evenodd" d="M411.663 292.98L412.524 288.751C412.562 288.562 412.757 288.422 412.96 288.441L415.337 288.656L414.105 286.049C414.062 285.956 413.941 285.921 413.836 285.97L409.543 287.998C409.438 288.047 409.388 288.163 409.432 288.255L411.663 292.98Z" fill="white"/>
<path d="M411.718 293.224L412.626 288.759C412.654 288.623 412.794 288.523 412.939 288.536L415.322 288.752L411.718 293.224Z" fill="#FFD133"/>
<path d="M417.309 289.141L417.415 289.091L417.583 289.448L417.796 289.348L417.627 288.991L417.733 288.941L417.902 289.298L417.966 289.268L418.059 289.465L417.953 289.515L417.899 289.402L417.517 289.583L417.309 289.141Z" fill="white"/>
<path d="M418.066 289.082C418.097 289.148 418.177 289.179 418.267 289.137C418.331 289.107 418.361 289.058 418.359 289.013L418.466 289.008C418.455 289.094 418.403 289.176 418.302 289.224C418.169 289.286 418.013 289.245 417.949 289.109C417.885 288.972 417.946 288.828 418.084 288.763C418.212 288.703 418.36 288.742 418.424 288.878L418.427 288.912L418.066 289.082L418.066 289.082ZM418.032 288.997L418.287 288.877C418.259 288.83 418.188 288.818 418.124 288.848C418.05 288.883 418.025 288.94 418.032 288.997Z" fill="white"/>
<path d="M418.413 288.62L418.519 288.569L418.599 288.739L418.811 288.638L418.731 288.469L418.837 288.419L419.046 288.861L418.94 288.911L418.851 288.723L418.639 288.823L418.727 289.011L418.621 289.061L418.413 288.62Z" fill="white"/>
<path d="M418.922 288.379L419.347 288.178L419.387 288.263L419.227 288.338L419.396 288.695L419.29 288.745L419.121 288.388L418.962 288.464L418.922 288.379Z" fill="white"/>
<path d="M419.432 288.138L419.527 288.093L419.554 288.126L419.563 288.128L419.566 288.121C419.585 288.078 419.629 288.034 419.682 288.009C419.82 287.943 419.981 287.982 420.045 288.119C420.11 288.255 420.037 288.404 419.899 288.469C419.847 288.494 419.784 288.5 419.739 288.487L419.732 288.485L419.728 288.493L419.839 288.73L419.734 288.779L419.432 288.138ZM419.854 288.387C419.955 288.339 419.977 288.249 419.939 288.169C419.902 288.089 419.817 288.048 419.717 288.096C419.626 288.138 419.594 288.234 419.631 288.314C419.669 288.394 419.764 288.43 419.854 288.387Z" fill="white"/>
<path d="M420.46 287.868L420.535 287.833C420.588 287.807 420.605 287.774 420.591 287.746C420.578 287.718 420.54 287.706 420.481 287.734C420.423 287.761 420.402 287.801 420.413 287.825L420.313 287.872C420.282 287.806 420.336 287.7 420.442 287.65C420.548 287.6 420.654 287.619 420.69 287.694C420.708 287.731 420.702 287.777 420.673 287.818C420.726 287.818 420.771 287.838 420.791 287.881C420.825 287.952 420.787 288.05 420.659 288.11C420.553 288.161 420.458 288.137 420.404 288.082L420.488 288.008C420.508 288.038 420.556 288.057 420.62 288.027C420.689 287.994 420.702 287.953 420.688 287.924C420.673 287.891 420.627 287.89 420.568 287.918L420.499 287.95L420.46 287.868Z" fill="white"/>
<path d="M421.425 287.737L421.329 287.782L421.301 287.75L421.293 287.748L421.29 287.755C421.271 287.798 421.227 287.842 421.174 287.867C421.036 287.932 420.875 287.893 420.811 287.757C420.746 287.621 420.819 287.472 420.957 287.407C421.01 287.381 421.072 287.375 421.117 287.388L421.124 287.391L421.128 287.383L421.12 287.341L421.216 287.296L421.425 287.737ZM421.002 287.489C420.901 287.536 420.878 287.628 420.916 287.708C420.953 287.787 421.039 287.828 421.14 287.78C421.23 287.737 421.262 287.641 421.225 287.562C421.187 287.482 421.092 287.446 421.002 287.489Z" fill="white"/>
<path d="M421.895 286.975L422.001 286.925L422.17 287.282L422.234 287.252L422.327 287.449L422.221 287.5L422.168 287.387L421.552 287.677L421.343 287.236L421.45 287.186L421.618 287.543L421.788 287.463L421.619 287.106L421.726 287.055L421.894 287.412L422.064 287.332L421.895 286.975Z" fill="white"/>
<path d="M422.139 286.86L422.244 286.811L422.386 287.111L422.442 286.717L422.564 286.659L422.773 287.101L422.669 287.15L422.527 286.849L422.47 287.244L422.348 287.302L422.139 286.86Z" fill="white"/>
<path d="M422.649 286.619L423.074 286.419L423.114 286.503L422.954 286.578L423.123 286.935L423.017 286.986L422.848 286.629L422.689 286.704L422.649 286.619Z" fill="white"/>
<path d="M423.158 286.378L423.265 286.328L423.327 286.46L423.401 286.425C423.529 286.365 423.634 286.395 423.676 286.485C423.718 286.574 423.675 286.675 423.548 286.735L423.367 286.82L423.158 286.378ZM423.513 286.648C423.571 286.62 423.59 286.577 423.57 286.535C423.55 286.492 423.505 286.479 423.446 286.507L423.367 286.544L423.433 286.685L423.513 286.648ZM423.583 286.178L423.689 286.128L423.898 286.569L423.792 286.62L423.583 286.178Z" fill="white"/>
<path d="M424.24 286.082L424.315 286.047C424.368 286.022 424.385 285.989 424.371 285.961C424.358 285.933 424.32 285.921 424.261 285.948C424.203 285.976 424.182 286.016 424.193 286.039L424.093 286.087C424.062 286.021 424.116 285.915 424.222 285.865C424.328 285.815 424.434 285.833 424.47 285.909C424.488 285.946 424.482 285.992 424.453 286.033C424.506 286.033 424.551 286.053 424.571 286.096C424.605 286.167 424.567 286.265 424.439 286.325C424.333 286.375 424.238 286.352 424.184 286.296L424.267 286.223C424.288 286.253 424.336 286.272 424.4 286.242C424.469 286.209 424.482 286.167 424.468 286.139C424.453 286.106 424.407 286.105 424.348 286.133L424.279 286.165L424.24 286.083L424.24 286.082Z" fill="white"/>
<path d="M425.205 285.952L425.109 285.997L425.081 285.965L425.073 285.963L425.07 285.97C425.051 286.013 425.007 286.057 424.954 286.082C424.816 286.147 424.655 286.108 424.591 285.972C424.526 285.836 424.599 285.687 424.737 285.621C424.79 285.596 424.852 285.59 424.897 285.603L424.904 285.605L424.908 285.598L424.9 285.556L424.996 285.511L425.205 285.952ZM424.782 285.704C424.681 285.751 424.658 285.843 424.696 285.922C424.733 286.002 424.819 286.042 424.92 285.995C425.01 285.952 425.042 285.856 425.005 285.776C424.967 285.697 424.872 285.661 424.782 285.704Z" fill="white"/>
<path d="M425.313 285.66C425.344 285.726 425.424 285.757 425.514 285.714C425.578 285.684 425.608 285.635 425.606 285.59L425.713 285.586C425.702 285.672 425.65 285.754 425.549 285.801C425.416 285.864 425.26 285.823 425.196 285.686C425.131 285.55 425.193 285.406 425.331 285.341C425.459 285.281 425.607 285.32 425.671 285.456L425.674 285.489L425.313 285.66L425.313 285.66ZM425.279 285.575L425.534 285.454C425.506 285.408 425.435 285.395 425.371 285.425C425.297 285.46 425.272 285.518 425.279 285.575Z" fill="white"/>
<path d="M426.057 285.009L426.18 284.952L426.388 285.393L426.293 285.438L426.155 285.147L426.154 285.447L426.058 285.492L425.826 285.303L425.963 285.594L425.868 285.639L425.659 285.197L425.781 285.14L426.055 285.362L426.057 285.009Z" fill="white"/>
<path d="M426.859 284.631L426.965 284.581L427.134 284.938L427.197 284.908L427.291 285.105L427.184 285.155L427.131 285.043L426.516 285.333L426.307 284.892L426.413 284.841L426.582 285.199L426.752 285.118L426.583 284.761L426.689 284.711L426.858 285.068L427.028 284.988L426.859 284.631Z" fill="white"/>
<path d="M427.103 284.516L427.207 284.466L427.349 284.767L427.406 284.373L427.528 284.315L427.736 284.757L427.632 284.806L427.49 284.505L427.434 284.9L427.312 284.957L427.103 284.516Z" fill="white"/>
<path d="M427.963 284.109L428.101 284.044L427.961 284.37L428.32 284.481L428.182 284.546L427.881 284.459L427.97 284.646L427.864 284.697L427.655 284.255L427.761 284.205L427.845 284.383L427.963 284.109Z" fill="white"/>
<path d="M428.367 283.907C428.505 283.842 428.672 283.879 428.736 284.015C428.8 284.151 428.723 284.303 428.584 284.368C428.447 284.433 428.28 284.397 428.216 284.261C428.151 284.124 428.229 283.973 428.367 283.907ZM428.545 284.283C428.645 284.236 428.667 284.145 428.63 284.065C428.592 283.985 428.508 283.944 428.407 283.992C428.306 284.04 428.284 284.131 428.322 284.21C428.36 284.29 428.444 284.331 428.545 284.283Z" fill="white"/>
<path d="M428.727 283.749L428.939 283.649C429.056 283.594 429.144 283.615 429.18 283.69C429.196 283.725 429.191 283.768 429.163 283.808C429.217 283.808 429.259 283.83 429.277 283.869C429.315 283.948 429.27 284.033 429.153 284.088L428.936 284.191L428.727 283.749L428.727 283.749ZM429.029 283.825C429.066 283.807 429.091 283.778 429.076 283.745C429.06 283.712 429.025 283.707 428.983 283.727L428.869 283.781L428.916 283.878L429.029 283.825ZM429.126 284.002C429.168 283.982 429.184 283.947 429.171 283.919C429.153 283.881 429.115 283.882 429.077 283.9L428.953 283.958L429.002 284.061L429.126 284.002Z" fill="white"/>
<path d="M416.808 286.202C416.982 286.12 417.067 285.954 417.065 285.829L417.367 285.843C417.339 286.077 417.179 286.31 416.903 286.441C416.536 286.614 416.083 286.513 415.907 286.139C415.731 285.766 415.941 285.352 416.307 285.179C416.583 285.049 416.862 285.074 417.061 285.201L416.88 285.444C416.785 285.363 416.605 285.322 416.431 285.404C416.155 285.534 416.089 285.786 416.192 286.005C416.295 286.224 416.532 286.332 416.808 286.202Z" fill="white"/>
<path d="M419.507 285.179L419.217 285.316L418.998 284.853L418.977 284.847L418.969 284.867C418.933 284.978 418.84 285.085 418.71 285.147C418.375 285.304 418.089 285.188 417.955 284.905L417.773 284.519L418.064 284.381L418.234 284.742C418.319 284.922 418.469 284.977 418.644 284.894C418.813 284.815 418.892 284.645 418.828 284.493L418.645 284.107L418.936 283.969L419.507 285.179L419.507 285.179Z" fill="white"/>
<path d="M419.238 283.827L419.523 283.693L419.912 284.516L420.067 283.436L420.401 283.278L420.972 284.488L420.687 284.622L420.298 283.799L420.144 284.879L419.809 285.037L419.238 283.827Z" fill="white"/>
<path d="M421.817 283.837C421.991 283.754 422.076 283.588 422.074 283.463L422.376 283.478C422.348 283.712 422.188 283.945 421.912 284.075C421.545 284.248 421.092 284.147 420.916 283.774C420.74 283.401 420.95 282.987 421.316 282.814C421.592 282.684 421.871 282.709 422.07 282.836L421.889 283.079C421.794 282.998 421.614 282.956 421.44 283.039C421.164 283.169 421.098 283.421 421.201 283.64C421.304 283.858 421.541 283.967 421.817 283.837Z" fill="white"/>
<path d="M422.057 282.496L423.22 281.947L423.329 282.178L422.893 282.384L423.355 283.363L423.064 283.5L422.602 282.522L422.166 282.728L422.057 282.496Z" fill="white"/>
<path d="M423.998 281.547C424.376 281.369 424.832 281.468 425.008 281.842C425.184 282.215 424.972 282.63 424.594 282.809C424.216 282.987 423.76 282.888 423.583 282.514C423.407 282.141 423.62 281.726 423.998 281.547ZM424.484 282.577C424.76 282.447 424.821 282.198 424.717 281.979C424.614 281.76 424.384 281.649 424.107 281.779C423.831 281.909 423.771 282.158 423.874 282.377C423.977 282.596 424.208 282.707 424.484 282.577Z" fill="white"/>
<path d="M424.952 281.128L425.941 280.662L426.05 280.893L425.352 281.223L425.814 282.201L425.523 282.338L424.952 281.128Z" fill="white"/>
<path d="M426.706 280.269C427.084 280.09 427.54 280.19 427.716 280.563C427.892 280.936 427.679 281.351 427.301 281.53C426.923 281.708 426.467 281.609 426.291 281.236C426.115 280.862 426.328 280.447 426.706 280.269ZM427.192 281.298C427.468 281.168 427.529 280.919 427.425 280.7C427.322 280.481 427.091 280.37 426.815 280.5C426.539 280.631 426.479 280.88 426.582 281.098C426.685 281.317 426.916 281.429 427.192 281.298Z" fill="white"/>
<path d="M416.527 287.075L417.603 286.567L418.174 287.777L417.883 287.914L417.421 286.936L416.927 287.17L417.225 287.8C417.346 288.058 417.239 288.282 416.962 288.412L416.907 288.407L416.797 288.175L416.855 288.148C416.943 288.107 416.976 288.028 416.94 287.95L416.527 287.075Z" fill="white"/>
<path d="M417.917 286.418L418.202 286.284L418.591 287.108L418.746 286.027L419.081 285.869L419.652 287.079L419.367 287.214L418.978 286.39L418.823 287.47L418.489 287.628L417.917 286.418Z" fill="white"/>
<path d="M420.496 286.429C420.671 286.346 420.756 286.18 420.754 286.055L421.056 286.07C421.028 286.304 420.867 286.537 420.591 286.667C420.225 286.84 419.772 286.739 419.596 286.366C419.419 285.993 419.629 285.579 419.996 285.406C420.272 285.275 420.551 285.301 420.749 285.428L420.569 285.67C420.473 285.589 420.294 285.548 420.12 285.631C419.843 285.761 419.777 286.013 419.88 286.231C419.984 286.45 420.22 286.559 420.496 286.429Z" fill="white"/>
<path d="M420.736 285.087L421.899 284.538L422.009 284.77L421.572 284.976L422.034 285.954L421.744 286.091L421.282 285.113L420.845 285.319L420.736 285.087Z" fill="white"/>
<path d="M423.946 285.052L423.684 285.175L423.606 285.086L423.586 285.08L423.577 285.1C423.527 285.218 423.405 285.338 423.26 285.407C422.882 285.585 422.441 285.479 422.264 285.106C422.088 284.732 422.286 284.324 422.664 284.146C422.81 284.077 422.98 284.06 423.103 284.096L423.124 284.102L423.132 284.082L423.113 283.965L423.375 283.842L423.946 285.052ZM422.788 284.37C422.512 284.501 422.449 284.751 422.552 284.97C422.656 285.189 422.889 285.299 423.165 285.168C423.412 285.052 423.502 284.789 423.398 284.57C423.295 284.351 423.036 284.254 422.788 284.37Z" fill="white"/>
</g>
<path d="M415.037 307.211C414.937 307.211 414.837 307.112 414.737 307.013L400.916 276.72C400.716 276.223 400.916 275.727 401.317 275.528L411.131 271.058C411.332 270.959 411.532 271.058 411.532 271.257C411.632 271.456 411.532 271.654 411.332 271.654L401.517 276.124C401.417 276.124 401.417 276.323 401.417 276.422L415.237 306.616C415.337 306.814 415.237 307.013 415.037 307.013C415.137 307.112 415.137 307.211 415.037 307.211Z" fill="#D3EDEE"/>
<path d="M422.248 267.185C422.148 267.185 422.047 267.086 421.947 266.986C421.847 266.788 421.947 266.589 422.148 266.589L423.85 265.794C424.05 265.695 424.251 265.794 424.251 265.993C424.351 266.192 424.251 266.39 424.05 266.39L422.348 267.185C422.348 267.185 422.348 267.185 422.248 267.185Z" fill="#D3EDEE"/>
<path d="M412.733 268.376C413.234 270.462 416.138 276.123 417.04 275.428C418.041 274.733 415.037 271.455 415.437 271.058C416.038 270.462 418.041 276.521 419.243 275.925C420.345 275.329 416.739 270.859 417.541 270.462C418.542 269.966 419.143 275.627 420.345 274.932C421.346 274.336 418.943 269.37 419.544 268.972C420.144 268.575 421.046 272.449 421.947 272.051C422.648 271.654 421.146 268.277 419.744 265.993C418.141 263.41 416.639 263.41 416.539 262.218C416.439 260.629 415.037 260.331 413.935 261.126C413.234 261.623 412.233 266.191 412.733 268.376Z" fill="#F7C589"/>
<path d="M415.137 273.839C415.037 273.839 415.037 273.839 414.937 273.74C413.935 272.051 412.834 269.667 412.533 268.476C412.433 268.178 412.433 267.88 412.333 267.482C412.333 267.383 412.433 267.284 412.533 267.284C412.633 267.284 412.734 267.383 412.734 267.482C412.734 267.88 412.834 268.178 412.934 268.476C413.234 269.667 414.336 272.051 415.337 273.64C415.438 273.74 415.337 273.839 415.237 273.938C415.237 273.839 415.237 273.839 415.137 273.839Z" fill="#F49373"/>
<path d="M408.587 224.17C411.593 222.777 412.895 219.23 411.494 216.246C410.093 213.262 406.52 211.973 403.513 213.366C400.506 214.759 399.204 218.306 400.605 221.29C402.006 224.274 405.58 225.563 408.587 224.17Z" fill="#004E97"/>
<path d="M410.029 214.345C410.13 214.445 410.13 214.445 410.029 214.345C410.831 215.14 411.432 216.034 411.732 217.126C411.732 217.226 411.832 217.325 411.832 217.524C412.733 221.199 416.539 235.6 417.04 262.318L416.639 262.417H416.539L413.134 262.913H413.034L412.533 263.013C406.724 245.93 401.216 232.124 399.514 219.808C398.913 215.637 401.016 213.948 404.121 213.054H404.221C404.221 213.054 404.221 213.054 404.321 213.054C404.421 213.054 404.621 212.955 404.722 212.955H404.822C404.922 212.955 405.022 212.955 405.122 212.955C405.222 212.955 405.222 212.955 405.322 212.955C407.225 212.657 408.828 213.253 410.029 214.345Z" fill="#004E97"/>
<path d="M282.339 381.803H299.164V381.505C299.164 380.809 298.664 380.313 298.063 380.213C295.559 379.816 291.353 378.922 288.649 374.353C288.549 374.254 288.448 374.055 288.348 373.857C287.747 373.062 286.846 372.466 285.744 372.466C284.142 372.466 282.84 373.658 282.64 375.148C282.64 375.347 282.64 375.446 282.64 375.645C282.44 377.73 282.339 380.412 282.339 381.803Z" fill="#032349"/>
<path d="M282.639 375.544C282.639 377.332 284.041 378.723 285.844 378.723C287.547 378.723 289.049 377.332 289.049 375.544C289.049 375.048 288.949 374.651 288.748 374.253C288.648 374.154 288.548 373.955 288.448 373.757C287.847 372.962 286.946 372.366 285.844 372.366C284.242 372.366 282.94 373.558 282.74 375.048C282.639 375.247 282.639 375.445 282.639 375.544Z" fill="#032349"/>
<path d="M288.571 320.79C288.578 317.554 285.939 314.925 282.676 314.917C279.412 314.91 276.761 317.528 276.753 320.764C276.746 324 279.386 326.63 282.649 326.637C285.912 326.644 288.564 324.027 288.571 320.79Z" fill="#004E97"/>
<path d="M289.45 373.657C287.046 374.452 285.143 375.246 282.539 375.544C278.633 350.416 268.418 332.836 275.529 319.924L288.748 320.719C289.149 333.829 289.85 353.992 289.45 373.657Z" fill="#0AB4BC"/>
<path d="M272.866 272.371C281.445 271.037 287.313 263.059 285.973 254.55C284.632 246.041 276.591 240.224 268.011 241.557C259.432 242.89 253.564 250.869 254.904 259.378C256.245 267.887 264.287 273.704 272.866 272.371Z" fill="#0AB4BC"/>
<path d="M286.044 255.167C287.647 275.826 288.348 297.776 288.648 320.521L276.831 326.877C266.916 311.582 254.998 271.258 254.998 259.438L286.044 255.167Z" fill="#0AB4BC"/>
<path d="M238.875 382H250.892V381.702C250.892 381.007 250.392 380.61 249.791 380.411C247.087 379.319 246.686 377.829 245.284 374.551C245.184 374.353 245.084 374.253 244.984 374.055C244.383 373.26 243.481 372.664 242.38 372.664C240.777 372.664 239.475 373.856 239.275 375.346C239.275 375.544 239.275 375.644 239.275 375.842C238.975 378.027 238.875 380.709 238.875 382Z" fill="#032349"/>
<path d="M239.174 375.842C239.174 377.63 240.577 379.021 242.379 379.021C244.082 379.021 245.584 377.63 245.584 375.842C245.584 375.346 245.484 374.948 245.284 374.551C245.183 374.452 245.083 374.253 244.983 374.055C244.382 373.26 243.481 372.664 242.379 372.664C240.777 372.664 239.475 373.856 239.275 375.346C239.174 375.544 239.174 375.644 239.174 375.842Z" fill="#032349"/>
<path d="M259.224 323.499C260.097 320.38 258.256 317.15 255.112 316.284C251.968 315.418 248.711 317.244 247.838 320.362C246.964 323.481 248.805 326.71 251.949 327.576C255.094 328.442 258.351 326.617 259.224 323.499Z" fill="#0071BC"/>
<path d="M245.885 374.65C244.082 375.246 241.378 375.743 238.774 375.346C241.779 350.118 236.571 329.757 246.887 319.13L259.405 323.401C256.301 336.213 251.493 355.779 245.885 374.65Z" fill="#85E3EF"/>
<path d="M259.224 323.499C260.097 320.381 258.256 317.151 255.112 316.285C251.968 315.419 248.711 317.245 247.838 320.363C246.964 323.481 248.805 326.711 251.949 327.577C255.094 328.443 258.351 326.617 259.224 323.499Z" fill="#85E3EF"/>
<path d="M272.948 258.707C273.929 250.15 267.73 242.421 259.102 241.445C250.474 240.469 242.684 246.614 241.703 255.171C240.721 263.728 246.92 271.457 255.548 272.433C264.176 273.409 271.966 267.264 272.948 258.707Z" fill="#85E3EF"/>
<path d="M272.824 259.339C268.818 279.7 265.113 301.153 259.304 323.203L246.185 326.182C240.777 308.801 238.573 266.589 241.678 255.167L272.824 259.339Z" fill="#85E3EF"/>
<path d="M320.196 194.581C320.196 194.581 321.197 194.581 322.399 194.581C322.399 195.773 322.399 197.064 322.599 198.256L322.399 201.633C322.399 201.633 319.094 201.732 317.291 200.54C316.49 200.044 314.888 199.746 313.886 199.646C313.285 199.547 312.885 199.15 312.885 198.554V198.455C312.885 197.759 313.386 197.263 313.986 197.263C314.888 197.263 315.989 196.965 316.791 195.972C317.592 195.078 318.894 194.581 320.196 194.581Z" fill="#EDB170"/>
<path d="M324.903 194.978C325.203 195.574 324.402 195.674 324.502 196.071C324.602 196.567 325.904 196.567 325.904 197.263C325.904 198.057 324.702 197.958 324.802 198.455C324.903 198.951 325.704 199.05 325.604 199.547C325.503 200.044 324.502 199.944 324.402 200.342C324.302 200.739 325.003 201.037 324.903 201.434C324.802 201.831 323.5 202.229 322.199 201.931C320.997 201.732 319.995 201.335 319.995 200.838C319.995 200.342 321.097 200.441 321.097 200.143C321.097 199.845 319.695 199.746 319.895 199.05C320.095 198.455 321.197 198.554 321.197 198.057C321.197 197.561 319.795 197.958 319.895 197.163C319.895 196.567 321.197 196.766 321.097 196.369C320.997 196.071 320.095 196.071 319.995 195.574C319.895 195.078 320.997 194.68 322.098 194.482C323.3 194.283 324.702 194.581 324.903 194.978Z" fill="#EDB170"/>
<path d="M322.098 202.03C320.997 201.831 319.695 201.434 319.695 200.739C319.695 200.342 320.095 200.242 320.496 200.143C320.596 200.143 320.796 200.044 320.796 200.044C320.796 200.044 320.496 199.944 320.396 199.845C319.995 199.646 319.394 199.448 319.594 198.951C319.695 198.554 320.095 198.355 320.496 198.256C320.696 198.157 320.896 198.057 320.997 197.958C320.997 197.859 320.796 197.859 320.596 197.859C320.195 197.759 319.595 197.66 319.695 197.064C319.695 196.567 320.195 196.468 320.596 196.369C320.696 196.369 320.896 196.269 320.997 196.269C320.997 196.269 320.796 196.17 320.696 196.17C320.396 196.071 319.995 195.971 319.895 195.574C319.795 194.978 320.596 194.68 322.198 194.382C322.299 194.382 322.399 194.382 322.399 194.482C322.399 194.581 322.399 194.68 322.299 194.68C320.396 194.978 320.296 195.376 320.296 195.574C320.296 195.773 320.596 195.872 320.796 195.971C321.097 196.071 321.297 196.17 321.297 196.369C321.397 196.667 320.997 196.766 320.696 196.865C320.296 196.965 320.095 196.965 320.095 197.263C320.095 197.561 320.296 197.66 320.796 197.759C321.097 197.859 321.497 197.859 321.397 198.256C321.397 198.554 320.997 198.653 320.696 198.752C320.396 198.852 320.095 198.951 319.995 199.249C319.895 199.448 320.195 199.646 320.596 199.746C320.896 199.845 321.197 200.044 321.197 200.242C321.197 200.54 320.896 200.54 320.596 200.64C320.296 200.739 320.095 200.739 320.095 200.938C320.095 201.235 320.596 201.633 322.198 201.831C322.299 201.831 322.299 201.931 322.299 202.03C322.299 202.03 322.198 202.03 322.098 202.03Z" fill="#F7C589"/>
<path d="M320.196 192.694C320.196 191.8 319.996 190.807 319.595 190.807C319.395 190.807 319.094 191.204 318.894 192.495C318.694 193.886 318.193 194.382 317.792 194.978C317.392 195.375 317.191 195.673 317.191 195.872C317.191 196.17 317.191 196.369 317.191 196.567C317.492 197.461 318.594 198.156 319.395 197.461C319.895 197.064 320.096 196.468 320.196 195.971C320.296 195.077 320.196 193.588 320.196 192.694Z" fill="#EDB170"/>
<path d="M281.939 223.295C284.979 222.468 286.77 219.353 285.938 216.337C285.107 213.321 281.968 211.546 278.928 212.373C275.887 213.2 274.096 216.315 274.928 219.331C275.759 222.347 278.898 224.122 281.939 223.295Z" fill="white"/>
<path d="M316.49 200.54C300.166 212.956 284.643 222.292 282.84 222.987C279.635 224.278 276.631 223.086 275.229 220.206C273.927 217.425 273.827 214.843 277.232 212.658C287.247 206.301 298.163 203.321 314.187 196.965L316.49 200.54Z" fill="white"/>
<path d="M257.502 166.572C267.817 165.38 274.928 173.723 278.934 184.053C289.349 211.366 286.745 247.022 285.443 248.115C284.542 248.81 285.143 249.704 284.542 250.002C264.813 255.663 256.2 254.571 243.08 250.399C241.979 242.95 246.786 234.508 240.677 188.423C239.875 177.497 247.186 167.764 257.502 166.572Z" fill="white"/>
<path d="M249.812 186.819C253.566 186.589 256.421 183.384 256.189 179.661C255.957 175.938 252.726 173.107 248.972 173.337C245.218 173.567 242.363 176.771 242.595 180.494C242.827 184.217 246.058 187.049 249.812 186.819Z" fill="white"/>
<path d="M264.412 176.008L260.907 173.624L262.51 171.042L265.414 172.135L264.412 176.008Z" fill="#FFD133"/>
<path d="M264.313 174.021C266.716 179.186 268.319 184.55 269.52 190.112C270.722 195.574 271.423 201.236 271.824 206.798C272.224 212.359 271.824 212.459 272.525 217.921C273.226 223.384 274.127 228.946 275.329 234.31L274.528 235.998L272.925 234.905C271.824 229.343 271.023 223.781 270.422 218.219C269.821 212.657 270.321 212.558 270.021 206.897C269.721 201.335 269.12 195.872 268.118 190.409C267.017 185.046 265.614 179.583 263.311 174.518L264.313 174.021Z" fill="#FFD133"/>
<path d="M263.411 254.174C251.393 254.174 242.88 251.194 242.58 251.095L242.78 248.512C242.68 248.512 263.811 255.365 285.343 248.214L285.043 250.797C277.231 253.379 269.92 254.174 263.411 254.174Z" fill="#032349"/>
<path d="M274.327 253.975L270.621 254.372C270.221 254.372 269.82 254.174 269.82 253.677L269.52 251.393C269.52 250.995 269.72 250.598 270.221 250.598L273.926 250.201C274.327 250.201 274.727 250.399 274.727 250.896L275.028 253.18C275.028 253.578 274.727 253.975 274.327 253.975Z" fill="#0A3C5F"/>
<path d="M270.622 254.769C270.321 254.769 270.121 254.67 269.921 254.571C269.72 254.372 269.52 254.074 269.52 253.876L269.22 251.591C269.22 251.293 269.22 250.995 269.42 250.797C269.62 250.598 269.921 250.399 270.121 250.399L273.827 250.002C274.427 249.903 275.028 250.399 275.028 250.995L275.329 253.28C275.429 253.876 274.928 254.471 274.327 254.471L270.622 254.869C270.622 254.769 270.622 254.769 270.622 254.769ZM274.027 250.598L270.321 250.995C270.221 250.995 270.121 251.095 270.121 251.095C270.021 251.194 270.021 251.293 270.021 251.392L270.321 253.677C270.321 253.776 270.422 253.876 270.422 253.876C270.522 253.975 270.622 253.975 270.722 253.975L274.427 253.578C274.628 253.578 274.728 253.379 274.728 253.18L274.427 250.896C274.327 250.797 274.227 250.598 274.027 250.598Z" fill="#FFD133"/>
<path d="M249.326 191.311C252.79 189.857 254.411 185.892 252.948 182.456C251.485 179.02 247.491 177.413 244.028 178.868C240.565 180.323 238.943 184.288 240.407 187.724C241.87 191.16 245.863 192.766 249.326 191.311Z" fill="white"/>
<path d="M266.326 229.834C269.23 228.617 270.588 225.295 269.36 222.415C268.132 219.536 264.783 218.188 261.879 219.406C258.975 220.624 257.617 223.946 258.845 226.825C260.073 229.705 263.422 231.052 266.326 229.834Z" fill="white"/>
<path d="M240.076 186.833C239.675 183.258 240.577 180.179 244.082 178.788C248.188 177.1 251.493 178.987 253.496 182.165C265.514 202.228 262.509 209.876 269.82 222.49C271.222 224.873 269.72 228.35 265.814 229.939C263.311 231.031 260.607 229.641 259.004 227.456C242.48 204.314 240.477 190.31 240.076 186.833Z" fill="#DDEFF2"/>
<path d="M269.652 227.327C271.115 224.557 270.037 221.133 267.246 219.679C264.455 218.226 261.007 219.292 259.544 222.062C258.082 224.832 259.159 228.256 261.95 229.71C264.741 231.164 268.19 230.097 269.652 227.327Z" fill="white"/>
<path d="M305.173 236.991C278.333 237.984 264.613 230.734 262.81 230.039C259.605 228.847 258.203 225.867 259.205 222.888C260.206 219.908 261.909 218.021 265.915 218.716C277.532 220.802 290.051 227.357 306.075 233.515L305.173 236.991Z" fill="#DDEFF2"/>
<path d="M254.398 168.459C255.499 166.274 255.399 162.301 255.199 159.322C254.998 157.435 256.401 155.746 258.203 155.647C260.006 155.547 261.508 157.037 261.608 158.924C261.708 161.805 262.109 165.778 263.511 167.863C263.511 170.545 254.598 171.141 254.398 168.459Z" fill="#EDB170"/>
<path d="M265.814 139.656C267.717 145.119 271.623 158.925 265.213 161.904C260.807 163.99 251.593 157.633 249.89 153.363C248.188 148.992 243.08 142.934 253.496 137.868C261.708 133.697 264.713 136.677 265.814 139.656Z" fill="#F7C589"/>
<path d="M255.399 138.564C262.209 134.69 264.913 137.968 264.913 137.968C264.913 137.968 267.317 133.2 262.71 128.532C259.605 125.255 253.897 126.745 253.897 126.745C253.897 126.745 259.605 129.923 254.397 133.498C254.397 133.498 253.196 132.207 253.997 129.526C253.997 129.526 249.791 132.108 246.886 135.981C243.982 139.855 244.282 142.437 244.883 144.126C244.883 144.126 242.88 144.722 243.681 146.708C244.483 148.794 246.085 150.582 246.486 151.178C248.589 153.462 250.792 155.846 252.294 157.931C253.897 160.017 253.496 161.606 253.496 161.606C253.496 161.606 256.601 159.322 254.998 157.236C253.396 155.15 251.193 155.25 249.991 152.767C248.789 150.482 250.792 148.993 252.194 149.489C254.498 150.383 256.601 153.959 257.001 157.038C257.402 160.017 259.004 163.096 264.512 162.302C270.121 161.507 269.019 152.071 268.919 151.873C268.819 151.575 269.019 149.588 265.514 151.376C262.509 152.866 259.805 154.852 258.403 152.667C256.4 149.588 254.498 148.794 253.496 147.801C253.296 147.602 252.995 147.304 252.795 147.105C251.994 146.51 248.789 142.239 255.399 138.564ZM262.509 157.236C262.309 155.25 264.312 154.455 266.415 154.058C268.218 153.661 268.318 154.654 268.218 155.945C268.218 157.236 267.717 157.931 266.515 158.428C265.915 158.527 262.61 159.223 262.509 157.236Z" fill="#032349"/>
<defs>
<clipPath id="clip0">
<rect width="21" height="6" fill="white" transform="translate(409 287.967) rotate(-25.2782)"/>
</clipPath>
</defs>
</svg>
