<svg width="734" height="428" viewBox="0 0 734 428" fill="none" xmlns="http://www.w3.org/2000/svg">
<path d="M308.264 428C366.714 428 414.097 423.895 414.097 418.831C414.097 413.768 366.714 409.663 308.264 409.663C249.815 409.663 202.432 413.768 202.432 418.831C202.432 423.895 249.815 428 308.264 428Z" fill="#B3DEE5"/>
<path d="M732.346 422.102H726C725.097 422.102 724.345 421.349 724.345 420.445C724.345 419.541 725.097 418.787 726 418.787H732.346C733.248 418.787 734 419.541 734 420.445C734 421.349 733.248 422.102 732.346 422.102Z" fill="#B3DEE5"/>
<path d="M717.368 422.102H704.104C703.202 422.102 702.45 421.349 702.45 420.445C702.45 419.541 703.202 418.787 704.104 418.787H717.368C718.27 418.787 719.022 419.541 719.022 420.445C719.022 421.349 718.27 422.102 717.368 422.102Z" fill="#B3DEE5"/>
<path d="M19.1208 422.102H12.5943C11.692 422.102 10.9401 421.349 10.9401 420.445C10.9401 419.541 11.692 418.787 12.5943 418.787H19.1208C20.0231 418.787 20.775 419.541 20.775 420.445C20.775 421.349 20.0231 422.102 19.1208 422.102Z" fill="#B3DEE5"/>
<path d="M6.66956 422.102H2.4589C1.55662 422.102 0.804714 421.349 0.804714 420.445C0.804714 419.541 1.55662 418.787 2.4589 418.787H6.66956C7.57185 418.787 8.32375 419.541 8.32375 420.445C8.32375 421.349 7.57185 422.102 6.66956 422.102Z" fill="#B3DEE5"/>
<path d="M31.484 422.433C30.4013 422.433 29.499 421.529 29.499 420.444C29.499 419.359 30.4013 418.455 31.484 418.455L291.762 418.425L665.338 418.395H697.188C698.271 418.395 699.173 419.299 699.173 420.383C699.173 421.468 698.271 422.372 697.188 422.372H665.338L291.762 422.403L31.484 422.433Z" fill="#B3DEE5"/>
<path d="M628.914 418.636C619.109 408.661 608.612 405.919 612.462 392.237C616.883 376.566 633.155 385.336 634.809 373.974C636.463 362.613 631.41 370.207 633.636 355.652C635.831 341.096 650.448 343.447 656.674 340.132C662.93 336.817 659.321 309.483 674.69 316.023C687.201 321.357 676.825 327.595 671.742 340.192C666.088 354.205 676.614 344.622 681.066 357.038C688.795 378.645 656.313 379.218 663.892 390.579C677.035 410.228 658.328 418.606 658.328 418.606L628.914 418.636Z" fill="#FFD133"/>
<path d="M652.945 416.527C657.517 415.08 665.096 411.645 665.908 408.541C666.028 408.029 666.089 407.275 665.096 406.221C661.036 401.941 659.321 398.687 659.742 395.914C660.224 392.72 663.322 390.972 666.63 389.133C670.059 387.205 673.608 385.216 674.209 381.509C675.623 372.649 681.127 371.022 685.548 369.696C686.901 369.304 688.164 368.912 689.247 368.37C690.661 367.646 691.172 364.542 691.623 361.8C692.195 358.365 692.706 355.11 695.022 354.236C696.586 353.633 698.511 354.326 701.067 356.406C703.714 358.576 702.691 362.523 701.518 367.104C700.435 371.263 699.232 375.994 700.375 380.364C701.157 383.287 699.984 385.698 696.886 387.566C694.39 389.043 690.992 390.038 687.713 390.972C683.683 392.117 679.533 393.322 678.931 395.07C678.721 395.673 678.961 396.456 679.653 397.391C682.179 400.826 682.901 404.171 681.848 407.305C679.262 414.87 667.051 418.426 666.54 418.576L666.389 418.606L646.81 418.516L652.945 416.527ZM679.924 406.612C680.766 404.111 680.134 401.399 678.029 398.536C676.916 397.029 676.585 395.643 677.006 394.377C677.939 391.605 682.209 390.399 687.142 388.983C694.45 386.903 699.533 385.095 698.42 380.846C697.127 375.964 698.42 370.992 699.563 366.562C700.586 362.644 701.428 359.269 699.804 357.943C697.969 356.466 696.526 355.803 695.744 356.104C694.51 356.556 694.029 359.51 693.608 362.101C693.067 365.477 692.495 368.972 690.149 370.148C688.916 370.781 687.563 371.172 686.119 371.594C681.848 372.86 677.427 374.186 676.194 381.78C675.442 386.451 671.292 388.802 667.622 390.851C664.765 392.448 662.088 393.955 661.758 396.185C661.457 398.265 663.021 401.067 666.6 404.804C668.164 406.432 668.164 407.999 667.893 409.023C667.081 412.187 662.479 414.809 658.69 416.497L666.119 416.527C667.382 416.135 677.788 412.79 679.924 406.612Z" fill="#FFD133"/>
<path d="M643.05 418.847L644.013 418.576C637.185 394.105 654.72 348.962 675.081 315.089L674.209 314.577C663.171 332.929 653.908 352.849 648.163 370.66C641.667 390.851 639.892 407.516 643.05 418.847Z" fill="white"/>
<path d="M291.978 104.055C297.7 103.296 304.114 116.702 304.995 118.409C308.705 126.187 308.83 133.142 308.893 138.011C309.019 153.756 302.919 155.78 304.995 168.047C306.63 177.785 310.214 184.994 310.214 184.994C312.226 189.041 313.61 190.685 314.113 194.163C314.93 200.043 312.415 207.695 308.893 208.517C302.102 210.098 287.765 186.828 282.923 162.799C277.389 135.482 283.803 105.13 291.978 104.055Z" fill="#FFD133"/>
<path d="M310.213 392.717C308.075 393.728 308.012 394.93 303.736 399.23C301.472 401.506 301.41 401.253 301.158 401.822C299.9 404.794 303.359 409.031 310.276 417.504C313.42 421.425 318.074 426.673 318.074 426.673C325.431 426.23 332.788 425.345 340.146 425.345C340.146 425.345 339.328 420.539 338.259 420.097C336.75 419.464 335.178 418.832 333.669 418.2C331.09 417.125 328.449 416.05 325.871 414.912C323.482 412.382 318.074 406.691 318.074 400.558C318.074 399.799 318.137 399.23 318.074 397.965C317.948 395.499 317.885 393.665 316.753 392.717C315.055 391.325 312.1 391.768 310.213 392.717Z" fill="#032349"/>
<path d="M434.849 409.663C434.786 412.762 436.169 417.504 436.169 417.504C436.169 417.504 437.427 417.504 437.49 417.504C439.879 417.504 476.855 418.642 478.364 418.642C478.678 418.642 480.376 414.848 480.376 414.848C477.798 410.928 477.798 410.928 477.798 410.928C475.031 406.944 466.856 408.082 458.304 405.679C448.054 402.834 446.105 397.396 441.451 399.166C437.615 400.684 434.974 405.679 434.849 409.663Z" fill="#032349"/>
<path d="M245.444 417.503C244.061 417.187 265.315 320.25 265.315 320.25C265.63 318.859 267.013 317.974 268.459 318.29C269.843 318.606 270.723 319.997 270.409 321.451C270.409 321.388 246.827 417.819 245.444 417.503Z" fill="#017382"/>
<path d="M348.321 417.503C349.704 417.187 328.45 320.25 328.45 320.25C328.136 318.859 326.752 317.974 325.306 318.29C323.922 318.606 323.042 319.997 323.356 321.451C323.356 321.388 346.938 417.819 348.321 417.503Z" fill="#017382"/>
<path d="M268.908 317.688L268.274 318.853L331.235 353.449L331.868 352.283L268.908 317.688Z" fill="black"/>
<path d="M324.402 316.373L261.4 352.322L262.052 353.477L325.054 317.528L324.402 316.373Z" fill="black"/>
<path d="M242.677 200.739C244.437 195.554 247.707 191.76 247.896 191.57C249.783 189.357 252.235 186.575 254.373 186.322C261.353 185.563 273.112 210.224 277.766 238.553C283.173 271.624 274.118 281.046 282.985 289.456C292.732 298.751 306.88 290.404 346.623 298.624C357.627 300.901 364.607 302.355 364.796 305.138C365.236 310.955 336.121 321.768 307.635 319.492C297.951 318.733 261.73 316.203 246.575 290.784C241.23 281.741 246.953 284.081 240.099 237.225C240.036 237.288 237.08 216.99 242.677 200.739Z" fill="#E0EAF3"/>
<path d="M304.995 269.916C305.812 270.042 307.07 269.41 310.214 271.244C329.456 282.436 341.656 278.958 356.999 293.439C357.439 293.818 356.999 293.439 360.898 297.359C370.142 306.591 373.097 309.374 377.247 314.369C378.631 316.013 379.637 317.341 380.329 318.226C400.011 343.393 443.966 399.229 443.966 399.229C443.966 399.861 443.904 403.149 441.388 405.742C438.244 408.903 434.094 408.397 433.591 408.334C388.629 360.15 363.476 336.501 363.476 336.501C356.559 330.051 353.163 326.826 350.459 324.739C326.375 306.022 302.982 294.767 299.838 293.376C282.797 285.977 275.314 285.598 275.188 281.614C274.937 275.86 290.72 267.703 304.995 269.916Z" fill="#16B9C1"/>
<path d="M269.905 281.677C265.44 283.827 264.874 292.427 266.006 298.624C267.012 304.125 270.093 307.856 271.225 309.057C285.94 325.941 323.418 317.72 327.065 316.898C330.147 316.203 343.918 312.978 343.918 312.978C321.594 365.651 310.15 392.652 310.15 392.652C310.276 392.525 310.464 392.336 310.59 392.399C311.282 392.589 309.898 396.256 311.407 397.9C312.791 399.355 315.558 398.153 317.884 400.493C336.938 371.722 351.401 350.159 360.771 337.829C362.091 336.121 368.38 327.838 371.146 315.634C372.341 310.512 373.473 305.074 371.146 299.952C368.883 294.956 363.852 291.795 351.653 288.19C329.455 281.677 309.458 281.677 297.133 281.677C282.544 281.677 281.601 283.321 275.061 281.677C273.74 281.361 271.791 280.792 269.905 281.677Z" fill="#19C6D8"/>
<path d="M242.677 200.739C240.728 200.612 236.263 224.262 237.458 252.97C238.715 281.551 239.47 300.205 253.053 311.714C263.68 320.756 277.451 321.199 293.298 322.147C318.451 323.602 339.014 317.215 329.644 316.899C302.605 316.077 275.565 312.156 266.007 306.465C230.918 285.472 246.387 200.928 242.677 200.739Z" fill="#C9D5F6"/>
<path d="M297.197 183.729C300.089 182.275 304.177 191.444 321.847 205.924C330.399 212.943 342.598 221.606 342.598 221.606C342.598 221.606 345.176 220.342 345.176 220.278C359.891 209.402 376.681 201.688 391.961 191.57C393.156 188.345 395.169 183.666 398.438 178.481C400.073 176.015 400.891 174.687 402.337 173.233C408.563 167.099 418.938 165.455 420.51 167.984C421.517 169.628 419.253 173.675 416.612 175.825C414.725 177.343 413.027 177.533 411.392 179.746C410.323 181.263 409.569 183.287 410.072 183.666C411.015 184.425 415.794 179.113 416.549 179.746C417.555 180.568 411.141 190.053 411.329 190.179C411.455 190.306 414.159 186.449 413.908 186.259C413.719 186.132 411.644 189.547 407.179 191.823C406.236 192.266 405.733 192.392 404.79 192.835C403.909 193.214 400.325 194.859 395.672 198.083C386.868 204.091 374.417 215.536 363.224 224.199C353.225 231.913 348.069 235.834 343.73 235.96C337.442 236.15 330.399 231.281 316.439 221.606C309.396 216.674 305.812 214.208 303.422 211.173C295.373 200.613 293.738 185.437 297.197 183.729Z" fill="#F7C589"/>
<path d="M275.125 171.968C269.655 172.537 264.75 179.809 264.75 179.809C265.001 178.481 265.253 176.9 264.875 176.774C263.995 176.458 258.399 184.172 256.952 192.898C255.191 203.522 260.914 207.379 263.429 225.527C263.806 228.436 264.121 231.155 265.127 235.454C266.196 240.007 267.328 242.6 267.957 246.267C268.46 249.113 268.523 251.2 268.586 254.235C268.774 270.17 264.498 279.908 268.586 282.943C269.403 283.575 270.975 284.144 272.484 284.271C275.063 284.46 277.012 283.322 277.704 282.943C281.225 281.046 282.168 281.994 291.978 279.022C303.108 275.671 308.642 273.964 310.151 271.181C312.415 266.945 308.831 263.973 306.253 251.579C303.863 240.197 302.542 234.443 304.932 228.056C307.322 221.67 312.289 217.117 312.73 207.189C312.73 206.557 312.792 205.735 312.73 204.597C312.415 198.716 309.082 193.214 302.354 182.402C299.587 177.975 295.877 171.968 295.877 171.968C295.877 171.968 294.556 171.525 291.978 170.64C291.978 170.64 289.526 174.814 286.759 175.889C282.86 177.406 280.345 171.462 275.125 171.968Z" fill="#032349"/>
<path d="M301.096 147.18C300.781 151.606 300.656 153.819 299.775 155.021C297.197 158.752 292.418 158.372 289.714 159.89C289.022 160.269 288.456 160.775 288.079 161.597C287.262 163.431 288.205 165.454 289.463 167.478C291.035 170.007 292.984 172.6 291.978 174.686C290.532 177.722 283.614 178.607 278.961 176.014C274.496 173.485 274.056 168.553 271.163 159.068C265.63 140.604 262.36 142.121 262.045 134.28C261.605 120.622 271.163 104.813 281.539 104.244C286.57 103.928 290.909 107.343 291.915 108.165C292.732 108.797 293.235 109.429 293.55 109.746C294.179 110.441 296.568 113.097 298.392 118.661C299.146 121.064 299.524 122.961 299.65 123.72C299.65 123.72 299.65 123.783 299.65 123.91C301.85 136.114 301.096 147.18 301.096 147.18Z" fill="#F7C589"/>
<path d="M293.298 109.303C294.682 111.2 286.13 120.559 281.602 124.985C274.936 131.562 272.673 131.625 271.226 135.419C270.031 138.58 270.346 141.489 275.125 155.021C279.338 166.972 281.413 172.916 284.243 178.544C290.091 190.242 293.738 190.179 295.939 198.146C297.889 205.355 296.945 211.362 295.939 217.749C293.487 233.051 287.324 238.995 290.72 247.785C292.229 251.642 294.87 254.108 294.619 254.298C294.241 254.614 286.444 249.176 284.243 241.208C281.099 229.826 292.544 224.578 290.72 211.173C289.714 203.648 285.123 197.767 280.344 191.57C274.748 184.362 272.169 184.172 268.648 178.481C263.995 170.956 263.743 163.431 263.429 156.286C263.051 146.232 262.423 130.866 272.547 119.737C280.281 111.2 291.978 107.47 293.298 109.303Z" fill="#FFD133"/>
<path d="M284.243 200.739L325.809 243.865C338.889 246.267 385.548 239.944 385.548 239.944C385.548 239.944 389.509 236.15 393.345 234.696C396.615 233.431 399.445 233.431 402.463 233.368C403.784 233.368 409.569 233.368 416.738 235.96C419.819 237.099 421.957 237.604 421.957 238.553C421.957 239.122 421.203 239.565 420.637 239.881C415.48 242.473 402.526 242.473 402.463 242.473C397.307 242.473 395.986 243.612 385.611 246.394C357.942 253.855 321.973 258.155 321.973 258.155C321.973 258.155 319.521 256.891 319.395 256.827C291.978 242.473 277.829 220.278 277.829 220.215C278.206 212.121 284.243 200.739 284.243 200.739Z" fill="#F7C589"/>
<path d="M291.978 107.976C292.23 104.688 284.181 99.5026 276.383 100.135C265.001 101.02 258.021 114.046 254.311 121.002C251.922 125.428 247.017 134.85 247.834 147.117C248.463 156.729 251.796 156.666 254.311 167.984C258.524 186.955 250.098 191.823 255.632 207.189C258.398 214.777 261.417 216.295 263.429 225.464C265.567 235.265 263.932 241.841 263.429 243.738C261.857 249.619 259.216 252.654 259.53 252.907C260.348 253.476 276.949 240.197 275.125 226.792C274.182 219.836 268.774 216.295 263.429 202.004C262.36 199.222 261.48 196.313 262.109 192.835C262.863 189.104 264.75 188.535 266.007 183.666C267.139 179.493 266.07 178.608 267.328 175.825C269.089 171.778 272.107 171.778 273.805 169.312C278.081 163.115 265.944 154.01 266.007 139.276C266.007 138.201 266.259 125.302 275.125 117.081C282.671 110.126 291.727 111.39 291.978 107.976Z" fill="#FFD133"/>
<path d="M290.72 105.383C290.72 104.813 289.399 104.055 289.399 104.055C289.399 104.055 284.306 105.446 281.602 106.647C276.571 108.924 273.867 113.224 271.855 116.448C268.648 121.57 267.956 125.87 267.327 130.17C266.824 133.458 266.95 135.102 267.956 136.051C269.34 137.379 272.169 137.316 273.175 136.051C273.993 134.976 273.05 133.205 272.547 131.498C270.346 123.91 276.885 115.563 277.766 114.551C278.52 113.666 282.293 108.987 288.142 106.711C288.33 106.584 290.72 106.078 290.72 105.383Z" fill="#CECEF9"/>
<path d="M271.226 144.525C270.974 144.714 272.861 148.445 276.445 151.038C283.614 156.286 293.298 153.883 293.298 153.63C293.298 153.44 286.129 154.958 279.023 151.038C274.118 148.382 271.477 144.335 271.226 144.525Z" fill="#EBEBFA"/>
<path d="M270.599 149.14C274.176 149.14 277.076 145.035 277.076 139.972C277.076 134.908 274.176 130.803 270.599 130.803C267.022 130.803 264.122 134.908 264.122 139.972C264.122 145.035 267.022 149.14 270.599 149.14Z" fill="#E2E2F7"/>
<path d="M270.598 149.457C266.825 149.457 263.806 145.22 263.806 139.972C263.806 134.723 266.888 130.487 270.598 130.487C274.371 130.487 277.389 134.723 277.389 139.972C277.389 145.22 274.308 149.457 270.598 149.457ZM270.598 131.182C267.202 131.182 264.435 135.166 264.435 139.972C264.435 144.841 267.202 148.761 270.598 148.761C273.993 148.761 276.76 144.778 276.76 139.972C276.76 135.103 273.993 131.182 270.598 131.182Z" fill="#050079"/>
<path d="M294.734 155.001C296.151 154.864 297.244 154.161 297.174 153.431C297.104 152.701 295.899 152.22 294.482 152.357C293.064 152.494 291.972 153.196 292.041 153.926C292.111 154.656 293.316 155.137 294.734 155.001Z" fill="#032349"/>
<path d="M366.997 106.648H324.74C322.476 106.648 320.59 108.482 320.59 110.821V135.546C320.59 137.822 322.413 139.719 324.74 139.719H327.192V149.836C327.192 150.153 327.318 150.532 327.57 150.722C327.821 150.975 328.073 151.038 328.387 151.038C328.701 151.038 329.016 150.911 329.204 150.722L340.209 139.719H367.06C369.324 139.719 371.21 137.885 371.21 135.546V110.821C371.148 108.545 369.261 106.648 366.997 106.648ZM367.312 137.696H339.895C339.58 137.696 339.329 137.822 339.077 138.012C339.077 138.012 339.077 138.012 339.014 138.075L329.645 147.497V138.897C329.645 138.834 329.645 138.834 329.645 138.771C329.582 138.138 329.079 137.696 328.45 137.696H324.866C323.859 137.696 323.105 136.874 323.105 135.925V111.011C323.105 109.999 323.922 109.241 324.866 109.241H367.312C368.318 109.241 369.072 110.063 369.072 111.011V135.925C369.072 136.874 368.318 137.696 367.312 137.696Z" fill="#FFD133"/>
<path d="M338.008 115.311H330.65C330.147 115.311 329.707 115.563 329.518 116.069C329.141 117.018 329.77 117.903 330.65 117.903H338.008C338.511 117.903 338.951 117.65 339.14 117.144C339.517 116.196 338.888 115.311 338.008 115.311Z" fill="#FFD133"/>
<path d="M350.018 121.951H330.964C330.461 121.951 329.958 122.267 329.832 122.709C329.518 123.595 330.084 124.48 330.901 124.48H349.892C350.395 124.48 350.898 124.164 351.024 123.721C351.401 122.773 350.773 121.951 350.018 121.951Z" fill="#FFD133"/>
<path d="M361.401 115.311H343.982C343.479 115.311 343.039 115.563 342.851 116.069C342.473 117.018 343.102 117.903 343.982 117.903H361.401C361.904 117.903 362.344 117.65 362.533 117.144C362.973 116.196 362.281 115.311 361.401 115.311Z" fill="#FFD133"/>
<path d="M361.024 121.951H356.433C355.93 121.951 355.49 122.204 355.301 122.709C354.924 123.658 355.553 124.543 356.433 124.543H361.024C361.527 124.543 361.967 124.29 362.156 123.784C362.533 122.836 361.841 121.951 361.024 121.951Z" fill="#FFD133"/>
<path d="M341.907 129.033H330.462C329.959 129.033 329.519 129.286 329.33 129.792C328.953 130.74 329.582 131.625 330.462 131.625H341.907C342.41 131.625 342.85 131.372 343.039 130.866C343.479 129.918 342.787 129.033 341.907 129.033Z" fill="#FFD133"/>
<path d="M361.338 129.033H347.315C346.812 129.033 346.372 129.286 346.183 129.792C345.806 130.74 346.435 131.625 347.315 131.625H361.338C361.841 131.625 362.281 131.372 362.47 130.866C362.847 129.918 362.156 129.033 361.338 129.033Z" fill="#FFD133"/>
<path d="M433.59 17.6143V47.5237C433.59 50.306 435.854 52.5192 438.558 52.5192H470.942L484.211 65.8614C484.462 66.1144 484.84 66.3041 485.217 66.3041C485.594 66.3041 485.909 66.1776 486.223 65.9247C486.537 65.6717 486.663 65.2291 486.663 64.8497V52.5824H489.619C492.386 52.5824 494.586 50.306 494.586 47.587V17.7407C494.586 14.9585 492.323 12.7453 489.619 12.7453H438.558C435.791 12.6188 433.59 14.8952 433.59 17.6143ZM436.042 47.9031V17.8672C436.042 16.6657 436.986 15.7172 438.18 15.7172H489.43C490.625 15.7172 491.568 16.6657 491.568 17.8672V47.9031C491.568 49.1046 490.625 50.053 489.43 50.053H485.091C484.337 50.053 483.771 50.6222 483.645 51.381C483.645 51.4442 483.645 51.4442 483.645 51.5074V61.8777L472.326 50.4957L472.263 50.4325C472.011 50.1795 471.697 50.053 471.32 50.053H438.18C436.986 50.1163 436.042 49.1046 436.042 47.9031Z" fill="#FFD133"/>
<path d="M472.2 25.2654C472.452 25.8345 473.018 26.1507 473.584 26.1507H482.513C483.582 26.1507 484.337 25.0757 483.896 23.9375C483.645 23.3684 483.079 23.0522 482.513 23.0522H473.584C472.515 23.0522 471.76 24.1272 472.2 25.2654Z" fill="#FFD133"/>
<path d="M457.799 33.2325C457.987 33.8016 458.616 34.181 459.182 34.181H482.197C483.141 34.181 483.895 33.106 483.518 32.031C483.329 31.4619 482.701 31.0825 482.135 31.0825H459.119C458.113 31.0825 457.359 32.0943 457.799 33.2325Z" fill="#FFD133"/>
<path d="M443.902 25.2654C444.153 25.8345 444.719 26.1507 445.285 26.1507H466.288C467.357 26.1507 468.112 25.0757 467.671 23.9375C467.42 23.3684 466.854 23.0522 466.288 23.0522H445.285C444.216 23.0522 443.398 24.1272 443.902 25.2654Z" fill="#FFD133"/>
<path d="M444.406 33.2327C444.657 33.8018 445.223 34.118 445.789 34.118H451.323C452.392 34.118 453.147 33.043 452.706 31.9048C452.455 31.3357 451.889 31.0195 451.323 31.0195H445.789C444.72 31.0828 443.966 32.1577 444.406 33.2327Z" fill="#FFD133"/>
<path d="M467.421 41.8323C467.672 42.4014 468.238 42.7176 468.804 42.7176H482.638C483.707 42.7176 484.462 41.6426 484.022 40.5044C483.77 39.9353 483.204 39.6191 482.638 39.6191H468.804C467.798 39.6824 466.98 40.6941 467.421 41.8323Z" fill="#FFD133"/>
<path d="M444.028 41.8323C444.279 42.4014 444.845 42.7176 445.411 42.7176H462.327C463.396 42.7176 464.213 41.6426 463.71 40.5044C463.459 39.9353 462.893 39.6191 462.327 39.6191H445.411C444.342 39.6824 443.588 40.6941 444.028 41.8323Z" fill="#FFD133"/>
<path d="M448.872 222.998C447.74 224.199 447.74 225.59 448.872 226.792C449.69 227.614 450.507 228.372 451.262 229.194C452.331 230.396 453.714 230.839 455.286 230.712C457.55 230.586 459.625 229.827 461.637 228.878C466.102 226.665 469.938 223.63 473.145 219.836C475.535 216.99 477.484 213.892 478.742 210.414C479.371 208.707 479.811 207 479.685 205.166C479.622 204.028 479.182 203.079 478.364 202.32C477.484 201.498 476.604 200.55 475.786 199.728C474.654 198.589 473.208 198.589 472.076 199.728C471.384 200.423 470.693 201.119 470.001 201.814C469.309 202.51 468.617 203.206 467.989 203.838C466.794 205.039 466.794 206.43 467.989 207.632C468.869 208.517 469.687 209.339 470.567 210.224C470.818 210.477 470.818 210.604 470.693 210.92C470.127 212.311 469.309 213.513 468.366 214.651C466.479 216.927 464.404 219.014 461.889 220.595C461.323 220.911 460.757 221.164 460.191 221.48C459.877 221.67 459.688 221.606 459.499 221.354C458.619 220.468 457.802 219.583 456.921 218.761C455.789 217.623 454.343 217.623 453.211 218.761C451.639 220.215 450.256 221.606 448.872 222.998Z" fill="#19517F"/>
<path d="M456.983 207.885C458.43 206.431 460.253 205.482 462.266 205.229L461.888 202.51C459.247 202.89 456.921 204.091 455.034 205.925C453.273 207.695 452.079 209.972 451.701 212.438L454.405 212.881C454.72 211.047 455.663 209.276 456.983 207.885Z" fill="#19517F"/>
<path d="M444.595 212.058L447.299 212.501C447.928 208.959 449.563 205.735 452.141 203.142C454.845 200.423 458.241 198.716 461.951 198.21L461.573 195.491C457.234 196.123 453.273 198.083 450.191 201.182C447.236 204.154 445.349 207.885 444.595 212.058Z" fill="#19517F"/>
<path d="M319.709 76.6109C318.703 76.0418 318.012 75.1566 317.131 74.2081C316.314 72.9434 315.874 71.6155 314.805 70.6038C314.05 70.0346 313.107 70.6038 313.044 71.3626C312.855 74.2081 316.251 77.3697 318.766 78.0653C319.961 78.6344 320.716 77.2433 319.709 76.6109Z" fill="#85E3EF"/>
<path d="M313.169 63.3329C311.912 62.7006 311.031 62.005 310.528 60.8035C310.088 59.7286 310.465 58.4639 310.528 57.389C310.591 56.3772 309.459 55.8714 308.768 56.4405C307.133 57.6419 307.195 59.9815 308.139 61.6256C309.019 63.5226 310.78 64.724 312.792 65.1034C313.547 65.1667 314.05 63.7755 313.169 63.3329Z" fill="#85E3EF"/>
<path d="M311.094 49.2943C309.648 47.334 311.157 45.3738 311.912 43.4768C312.415 42.3386 310.843 41.9592 310.277 42.718C308.265 44.9312 307.636 48.1561 309.962 50.559C310.717 51.1281 311.849 50.1163 311.094 49.2943Z" fill="#85E3EF"/>
<path d="M316.44 33.9919C316.691 32.0317 317.509 30.1347 318.829 28.5538C319.835 27.1627 321.47 26.5304 322.602 25.3289C323.042 24.6966 322.413 24.001 321.91 24.254C317.697 24.6966 315.496 30.3244 315.371 33.8022C315.056 34.6875 316.377 34.814 316.44 33.9919Z" fill="#85E3EF"/>
<path d="M336.562 13.4418C337.379 12.9992 337.065 11.5448 336.185 11.861C332.852 12.8095 330.274 15.7182 328.639 18.627C328.324 19.1328 329.079 19.7019 329.393 19.1961C331.406 16.4138 333.984 14.9594 336.562 13.4418Z" fill="#85E3EF"/>
<path d="M356.999 2.56511C353.729 2.43864 350.081 3.19744 347.566 5.41062C346.874 6.04295 347.818 7.11791 348.509 6.54881C350.962 4.65181 354.232 4.77828 356.999 4.08271C357.942 3.95624 358.068 2.62834 356.999 2.56511Z" fill="#85E3EF"/>
<path d="M378.253 3.63993C376.996 2.75466 375.486 2.37527 373.851 1.8694C372.468 1.36353 370.896 0.984124 369.387 0.857657C368.632 0.794423 368.506 2.12233 369.261 2.18556C372.091 2.69143 374.795 4.96783 377.876 4.9046C378.379 4.96783 378.882 4.08256 378.253 3.63993Z" fill="#85E3EF"/>
<path d="M397.747 10.5952C396.489 9.70991 394.98 9.33051 393.722 8.69817C392.213 8.06584 390.83 7.30704 389.195 6.54824C388.44 6.23207 387.874 7.24381 388.629 7.55998C390.956 9.20405 394.288 11.9231 397.307 11.7334C398.061 11.7966 398.376 11.0378 397.747 10.5952Z" fill="#85E3EF"/>
<path d="M478.866 79.1404C478.74 79.0139 478.74 79.0139 478.677 78.8242C478.677 78.8242 478.677 78.8242 478.552 78.6977C478.426 78.5713 478.426 78.5713 478.363 78.3816C478.237 78.2551 478.174 78.0654 478.049 77.939C477.86 77.6228 477.608 77.3699 477.42 77.0537C477.105 76.6111 476.665 76.042 476.225 75.7258C475.659 75.0302 474.653 75.8523 475.156 76.5478C475.47 76.9905 475.911 77.5595 476.099 78.0654L476.728 78.9507C476.854 79.0772 476.917 79.2669 477.042 79.3933C477.168 79.5198 477.168 79.5198 477.231 79.7095C477.357 79.836 477.42 80.0257 477.546 80.1521C477.86 80.5948 478.363 80.4051 478.615 80.2154C478.866 80.0257 479.055 79.6463 478.866 79.1404Z" fill="#85E3EF"/>
<path d="M479.369 105.193C479.558 104.371 478.3 104.055 477.985 104.751C477.482 105.952 477.231 107.28 476.791 108.481C476.413 109.873 475.722 111.011 475.219 112.275C474.904 112.908 475.847 113.919 476.413 113.287C478.551 111.39 478.677 107.849 479.369 105.193Z" fill="#85E3EF"/>
<path d="M464.906 124.542C465.472 123.467 466.289 122.392 467.232 121.507C467.924 120.811 467.107 119.483 466.226 120.116C465.22 120.875 464.277 121.823 463.459 122.835C462.768 123.783 461.824 124.922 461.699 126.123C461.762 126.755 462.139 127.261 462.768 127.008C463.9 126.629 464.214 125.491 464.906 124.542Z" fill="#85E3EF"/>
<path d="M453.838 132.763C454.593 132.194 453.65 130.929 452.895 131.498C450.506 133.142 447.236 134.723 445.349 137C444.783 137.632 445.727 138.833 446.481 138.517C449.248 137.379 451.638 134.66 453.838 132.763Z" fill="#85E3EF"/>
<path d="M437.552 139.781C436.232 140.161 434.911 140.287 433.591 140.414C432.27 140.54 431.013 140.224 429.881 140.856C429.378 141.236 429.629 142.121 430.069 142.437C431.327 143.006 433.025 142.564 434.22 142.311C435.666 142.058 436.861 141.552 438.244 141.236C439.062 140.983 438.37 139.528 437.552 139.781Z" fill="#85E3EF"/>
<path d="M422.083 140.54C420.825 140.224 419.442 139.971 418.058 139.465C416.675 139.022 415.229 138.137 413.908 138.517C413.405 138.643 413.216 139.465 413.531 139.908C414.348 140.983 416.109 141.172 417.367 141.552C418.876 141.931 420.385 142.058 421.768 142.311C422.9 142.5 423.152 140.983 422.083 140.54Z" fill="#85E3EF"/>
<path d="M407.242 136.052C406.425 134.724 405.356 133.586 404.35 132.447C403.281 131.309 401.897 129.792 400.199 129.349C399.256 129.159 398.816 130.171 399.193 130.993C399.885 132.194 401.457 132.953 402.463 133.712C403.784 134.66 405.041 135.862 406.236 136.874C406.865 137.443 407.431 136.621 407.242 136.052Z" fill="#85E3EF"/>
<path d="M396.992 131.815C395.923 128.527 395.231 125.175 394.728 121.887C395.734 122.393 396.866 122.836 397.998 123.531C399.758 124.543 401.393 125.934 403.343 126.63C404.6 127.199 405.669 125.744 404.852 124.606C403.72 122.836 401.582 121.887 399.947 121.002C397.809 119.8 395.734 118.852 393.47 117.714C392.464 117.208 391.206 118.156 391.395 119.295C392.59 123.784 393.344 128.59 395.734 132.574C396.048 133.585 397.243 132.7 396.992 131.815Z" fill="#85E3EF"/>
<path d="M411.708 20.7141C409.633 15.4657 406.488 10.66 402.778 6.54979C401.835 5.41159 400.137 6.86596 400.955 8.13063C403.659 11.8614 406.111 15.8451 407.746 20.0185C405.923 20.3979 404.036 20.7773 402.212 21.1567C400.64 21.5361 398.251 21.6626 397.37 23.117C396.93 23.7493 396.993 24.6346 397.748 24.9507C399.383 25.9625 401.269 25.0772 402.841 24.6978C405.357 24.0022 407.872 23.4964 410.387 23.0537C411.645 23.1802 412.148 21.7891 411.708 20.7141Z" fill="#85E3EF"/>
<path d="M465.158 245.128H528.545L562.124 196.817H498.801L465.158 245.128Z" fill="#16B9C1"/>
<path d="M478.74 87.8667C479.621 90.9019 479.872 94.0003 479.495 97.162C479.369 98.4267 481.319 98.4267 481.444 97.162C481.822 93.8106 481.507 90.5857 480.627 87.3608C480.312 86.1594 478.426 86.6652 478.74 87.8667Z" fill="#85E3EF"/>
<path d="M412.021 179.873C413.468 185.058 414.977 190.18 416.423 195.365C416.8 196.566 418.624 196.06 418.31 194.859C416.863 189.674 415.354 184.552 413.908 179.367C413.593 178.165 411.707 178.671 412.021 179.873Z" fill="#19C6D8"/>
<path d="M408.437 165.454C409.758 170.576 411.141 175.635 412.462 180.757C412.776 181.958 414.663 181.452 414.349 180.251C413.028 175.129 411.645 170.07 410.324 164.948C409.947 163.747 408.123 164.253 408.437 165.454Z" fill="#19C6D8"/>
<path d="M289.525 167.351C287.136 167.921 283.866 165.96 282.923 165.391C279.527 163.368 277.074 159.763 277.703 158.878C278.269 158.056 280.722 160.206 285.501 160.206C287.639 160.206 288.834 159.763 289.714 159.827C289.022 160.206 288.456 160.712 288.079 161.534C287.262 163.368 288.268 165.391 289.525 167.351Z" fill="#E1AA5E"/>
</svg>
