<svg width="198" height="66" viewBox="0 0 198 66" fill="none" xmlns="http://www.w3.org/2000/svg">
<path fill-rule="evenodd" clip-rule="evenodd" d="M0.667908 62.2594L26.394 23.0811C27.5451 21.3276 29.8959 20.8453 31.6388 22.0118L52.126 35.7249V3.0445C52.126 1.88107 51.1901 0.937988 50.0354 0.937988H2.75891C1.60388 0.937988 0.667908 1.88107 0.667908 3.0445V62.2594Z" fill="#222222"/>
<path d="M0.12262 65.0244L27.2813 23.6644C28.1099 22.4021 29.7982 22.0577 31.0491 22.8948L51.5811 36.6379L0.12262 65.0244Z" fill="#222222"/>
<path d="M67.8187 50.2358H68.9878V54.7116H71.3259V50.2358H72.4946V54.7116H73.196V57.1848H72.0269V55.7713H67.8187V50.2358Z" fill="#222222"/>
<path d="M74.8907 53.2979C74.8907 54.1229 75.4752 54.8292 76.4684 54.8292C77.1698 54.8292 77.6492 54.4755 77.8247 54.004L78.8064 54.4755C78.3388 55.3004 77.5209 55.889 76.4101 55.889C74.949 55.889 73.7217 54.7114 73.7217 53.0036C73.7217 51.2955 74.8907 50.1172 76.4101 50.1172C77.8129 50.1172 78.982 51.2368 78.982 52.9442L78.8651 53.2976H74.8907V53.2979ZM74.949 52.2616H77.7543C77.6957 51.6492 77.1115 51.1777 76.4101 51.1777C75.5921 51.1777 75.1245 51.6492 74.949 52.2616Z" fill="#222222"/>
<path d="M79.9752 50.2358H81.1443V52.3561H83.4823V50.2358H84.651V55.7713H83.4823V53.4162H81.1443V55.7713H79.9752V50.2358Z" fill="#222222"/>
<path d="M85.5856 50.2358H90.2614V51.2963H88.5078V55.7713H87.3391V51.2963H85.5856V50.2358Z" fill="#222222"/>
<path d="M91.1965 50.2358H92.2482L92.3533 50.707L92.4238 50.7657L92.482 50.707C92.8328 50.354 93.4169 50.1177 94.0018 50.1177C95.5212 50.1177 96.8071 51.2963 96.8071 53.0041C96.8071 54.712 95.5212 55.8895 94.0018 55.8895C93.4287 55.8895 92.8328 55.6543 92.482 55.3009L92.4238 55.2415L92.3533 55.3009V58.2691H91.1965V50.2358ZM93.9432 54.8294C95.0539 54.8294 95.6384 54.0045 95.6384 53.0038C95.6384 52.0027 95.0539 51.1778 93.9432 51.1778C92.9497 51.1778 92.2482 52.0027 92.2482 53.0038C92.2482 54.0048 92.9497 54.8294 93.9432 54.8294Z" fill="#222222"/>
<path d="M101.611 52.4382H102.429C103.014 52.4382 103.306 52.1792 103.306 51.8259C103.306 51.4721 103.014 51.1663 102.371 51.1663C101.728 51.1663 101.365 51.4721 101.365 51.7664H100.267C100.267 50.9426 101.202 50.1177 102.371 50.1177C103.54 50.1177 104.417 50.8241 104.417 51.7664C104.417 52.2387 104.171 52.6738 103.739 52.9566C104.218 53.2156 104.533 53.6392 104.533 54.181C104.533 55.0646 103.773 55.8891 102.371 55.8891C101.202 55.8891 100.442 55.1831 100.197 54.3582L101.26 54.0048C101.318 54.4173 101.669 54.8413 102.371 54.8413C103.131 54.8413 103.423 54.4756 103.423 54.123C103.423 53.7105 103.014 53.4749 102.371 53.4749H101.611V52.4382Z" fill="#222222"/>
<path d="M110.845 55.7712H109.793L109.676 55.3004L109.618 55.2413L109.559 55.3004C109.208 55.6538 108.624 55.889 108.04 55.889C106.52 55.889 105.234 54.7114 105.234 53.0036C105.234 51.2955 106.52 50.1172 108.04 50.1172C108.624 50.1172 109.208 50.3535 109.559 50.7061L109.618 50.7656L109.676 50.7061L109.793 50.2353H110.845V55.7712ZM108.098 51.1777C106.987 51.1777 106.391 52.0026 106.391 53.0036C106.391 54.004 106.987 54.8292 108.098 54.8292C109.091 54.8292 109.793 54.004 109.793 53.0036C109.793 52.0026 109.091 51.1777 108.098 51.1777Z" fill="#222222"/>
<path d="M118.326 50.2358H119.495V54.7116H120.197V57.1848H119.028V55.7713H112.248V50.2358H113.417V54.7116H115.287V50.2358H116.456V54.7116H118.326V50.2358Z" fill="#222222"/>
<path d="M121.014 50.2358H122.16V54.0048L124.346 50.2358H125.69V55.7713H124.545V52.0027L122.359 55.7713H121.014V50.2358Z" fill="#222222"/>
<path d="M126.624 50.2358H131.3V51.2963H129.547V55.7713H128.378V51.2963H126.624V50.2358Z" fill="#222222"/>
<path d="M132.235 50.2358H133.404V51.8846H134.223C135.626 51.8846 136.443 52.7091 136.443 53.8279C136.443 54.9468 135.625 55.771 134.223 55.771H132.235V50.2358ZM134.281 54.7116C134.924 54.7116 135.274 54.3582 135.274 53.8279C135.274 53.2981 134.924 52.9447 134.281 52.9447H133.404V54.7116H134.281ZM136.911 50.2358H138.08V55.771H136.911V50.2358Z" fill="#222222"/>
<path d="M143.235 52.4382H144.053C144.637 52.4382 144.93 52.1792 144.93 51.8259C144.93 51.4721 144.637 51.1663 143.995 51.1663C143.351 51.1663 142.989 51.4721 142.989 51.7664H141.89C141.89 50.9426 142.825 50.1177 143.994 50.1177C145.163 50.1177 146.04 50.8241 146.04 51.7664C146.04 52.2387 145.794 52.6738 145.362 52.9566C145.841 53.2156 146.156 53.6392 146.156 54.181C146.156 55.0646 145.396 55.8891 143.994 55.8891C142.825 55.8891 142.065 55.1831 141.82 54.3582L142.884 54.0048C142.942 54.4173 143.293 54.8413 143.994 54.8413C144.754 54.8413 145.046 54.4756 145.046 54.123C145.046 53.7105 144.637 53.4749 143.994 53.4749H143.234V52.4382H143.235Z" fill="#222222"/>
<path d="M152.469 55.7712H151.417L151.299 55.3004L151.241 55.2413L151.183 55.3004C150.832 55.6538 150.247 55.889 149.663 55.889C148.143 55.889 146.858 54.7114 146.858 53.0036C146.858 51.2955 148.143 50.1172 149.663 50.1172C150.247 50.1172 150.832 50.3535 151.183 50.7061L151.241 50.7656L151.299 50.7061L151.417 50.2353H152.469V55.7712ZM149.721 51.1777C148.611 51.1777 148.015 52.0026 148.015 53.0036C148.015 54.004 148.611 54.8292 149.721 54.8292C150.715 54.8292 151.417 54.004 151.417 53.0036C151.417 52.0026 150.715 51.1777 149.721 51.1777Z" fill="#222222"/>
<path d="M154.69 53.2979C154.69 54.1229 155.274 54.8292 156.268 54.8292C156.969 54.8292 157.448 54.4755 157.624 54.004L158.605 54.4755C158.138 55.3004 157.32 55.889 156.209 55.889C154.748 55.889 153.521 54.7114 153.521 53.0036C153.521 51.2955 154.69 50.1172 156.209 50.1172C157.613 50.1172 158.781 51.2368 158.781 52.9442L158.664 53.2976H154.69V53.2979ZM154.748 52.2616H157.553C157.495 51.6492 156.91 51.1777 156.209 51.1777C155.391 51.1777 154.924 51.6492 154.748 52.2616Z" fill="#222222"/>
<path d="M164.157 50.2358H165.502V55.7713H164.45V52.1201L163.164 55.1827H162.111L160.826 52.1201V55.7713H159.774V50.2358H161.118L162.638 53.8395L164.157 50.2358Z" fill="#222222"/>
<path d="M172.982 50.2358H174.151V54.7116H174.853V57.1848H173.684V55.7713H166.905V50.2358H168.073V54.7116H169.944V50.2358H171.112V54.7116H172.982V50.2358Z" fill="#222222"/>
<path d="M175.67 50.2358H176.816V54.0048L179.002 50.2358H180.346V55.7713H179.201V52.0027L177.015 55.7713H175.67V50.2358Z" fill="#222222"/>
<path d="M185.139 50.2358H186.658L184.017 52.8975L186.776 55.7713H185.256L182.918 53.4162V55.7713H181.749V50.2358H182.918V52.4735L185.139 50.2358Z" fill="#222222"/>
<path d="M189.638 50.1177C191.158 50.1177 192.503 51.2963 192.503 53.0041C192.503 54.712 191.158 55.8895 189.638 55.8895C188.119 55.8895 186.775 54.712 186.775 53.0041C186.775 51.2963 188.119 50.1177 189.638 50.1177ZM189.638 54.8294C190.749 54.8294 191.333 54.0045 191.333 53.0038C191.333 52.0027 190.749 51.1778 189.638 51.1778C188.528 51.1778 187.943 52.0027 187.943 53.0038C187.944 54.0048 188.528 54.8294 189.638 54.8294Z" fill="#222222"/>
<path d="M193.555 50.2358H195.892C197.178 50.2358 197.88 50.8835 197.88 51.8255C197.88 52.2617 197.645 52.6738 197.225 52.9447C197.716 53.2156 197.997 53.6396 197.997 54.123C197.997 55.1233 197.237 55.7717 195.951 55.7717H193.555V50.2358H193.555ZM195.951 52.4739C196.36 52.4739 196.711 52.297 196.711 51.8849C196.711 51.4728 196.418 51.2488 195.951 51.2488H194.7V52.4739H195.951ZM196.067 54.7584C196.535 54.7584 196.828 54.4756 196.828 54.123C196.828 53.6511 196.477 53.4749 196.067 53.4749H194.7V54.7584H196.067Z" fill="#222222"/>
<path d="M75.8055 17.6942C77.7264 17.6942 79.1994 16.4037 79.712 15.1132L82.3698 16.7266C81.1207 18.9851 78.6871 20.5981 75.645 20.5981C71.6109 20.5981 67.9607 17.3717 67.9607 12.6934C67.9607 8.01516 71.6109 4.78906 75.645 4.78906C78.6871 4.78906 81.0886 6.40211 82.3373 8.6606L79.6799 10.2737C79.1676 8.98351 77.7264 7.69263 75.8055 7.69263C72.7634 7.69263 71.0983 9.95112 71.0983 12.6934C71.0983 15.4357 72.763 17.6942 75.8055 17.6942Z" fill="#222222"/>
<path d="M104.462 20.276H101.259V14.4686L101.099 14.3073L100.939 14.4686C100.138 15.4365 98.8572 16.0816 97.4167 16.0816C93.7344 16.0816 91.6534 13.5009 91.6534 9.95194V5.11279H94.8552V9.6294C94.8552 11.8879 95.9759 13.1784 97.8969 13.1784C99.7541 13.1784 101.195 11.8232 101.259 9.95231V5.11279H104.461V20.276H104.462Z" fill="#222222"/>
<path d="M107.784 5.11279H110.922V15.4365L116.91 5.11279H120.592V20.276H117.454V9.95231L111.466 20.276H107.784V5.11279Z" fill="#222222"/>
<path d="M130.961 17.6942C132.882 17.6942 134.355 16.4037 134.868 15.1132L137.525 16.7266C136.277 18.9851 133.843 20.5981 130.801 20.5981C126.767 20.5981 123.117 17.3717 123.117 12.6934C123.117 8.01516 126.766 4.78906 130.801 4.78906C133.843 4.78906 136.245 6.40211 137.494 8.6606L134.836 10.2737C134.323 8.98351 132.882 7.69263 130.961 7.69263C127.92 7.69263 126.254 9.95112 126.254 12.6934C126.254 15.4357 127.92 17.6942 130.961 17.6942Z" fill="#222222"/>
<path d="M138.821 5.11279H151.63V8.01636H146.827V20.276H143.624V8.01636H138.821V5.11279Z" fill="#222222"/>
<path d="M160.334 4.78906C164.497 4.78906 168.179 8.01516 168.179 12.6934C168.179 17.3717 164.497 20.5981 160.334 20.5981C156.171 20.5981 152.49 17.3717 152.49 12.6934C152.49 8.01516 156.171 4.78906 160.334 4.78906ZM160.334 17.6942C163.376 17.6942 164.977 15.4357 164.977 12.6934C164.977 9.95112 163.376 7.69263 160.334 7.69263C157.292 7.69263 155.691 9.95112 155.691 12.6934C155.692 15.4357 157.292 17.6942 160.334 17.6942Z" fill="#222222"/>
<path d="M170.704 5.11279H181.591V8.01636H173.906V20.276H170.704V5.11279Z" fill="#222222"/>
<path d="M190.151 4.78906C194.314 4.78906 197.996 8.01516 197.996 12.6934C197.996 17.3717 194.314 20.5981 190.151 20.5981C185.989 20.5981 182.307 17.3717 182.307 12.6934C182.307 8.01516 185.989 4.78906 190.151 4.78906ZM190.151 17.6942C193.193 17.6942 194.794 15.4357 194.794 12.6934C194.794 9.95112 193.193 7.69263 190.151 7.69263C187.109 7.69263 185.508 9.95112 185.508 12.6934C185.508 15.4357 187.109 17.6942 190.151 17.6942Z" fill="#222222"/>
<path d="M69.5618 25.2812H81.409V40.4452H78.2068V28.1848H72.7636V36.0888C72.7636 39.3156 70.8426 41.0899 67.8005 41.0899L67.3204 40.7674V37.8638H67.9606C68.9213 37.8638 69.5618 37.2184 69.5618 36.2504V25.2812Z" fill="#222222"/>
<path d="M84.8754 25.2812H88.0134V35.6057L94.001 25.2812H97.6836V40.4453H94.5453V30.1208L88.5574 40.4453H84.8754V25.2812Z" fill="#222222"/>
<path d="M108.054 37.8642C109.975 37.8642 111.448 36.5734 111.96 35.2836L114.618 36.8966C113.369 39.1551 110.936 40.7678 107.894 40.7678C103.86 40.7678 100.209 37.5417 100.209 32.8638C100.209 28.1856 103.859 24.9595 107.894 24.9595C110.936 24.9595 113.337 26.5725 114.586 28.831L111.928 30.4437C111.416 29.1535 109.975 27.863 108.054 27.863C105.012 27.863 103.347 30.1215 103.347 32.8638C103.347 35.6061 105.012 37.8642 108.054 37.8642Z" fill="#222222"/>
<path d="M115.913 25.2812H128.721V28.1848H123.918V40.4453H120.716V28.1848H115.913V25.2812Z" fill="#222222"/>
<path d="M144.967 40.4453H142.085L141.765 39.1551L141.605 38.9935L141.445 39.1551C140.484 40.1227 138.883 40.7678 137.282 40.7678C133.119 40.7678 129.597 37.5417 129.597 32.8638C129.597 28.1856 133.119 24.9595 137.282 24.9595C138.883 24.9595 140.484 25.6049 141.445 26.5725L141.605 26.7338L141.765 26.5725L142.085 25.282H144.967V40.4453ZM137.442 27.8627C134.4 27.8627 132.767 30.1212 132.767 32.8634C132.767 35.6061 134.4 37.8642 137.442 37.8642C140.163 37.8642 142.085 35.6061 142.085 32.8634C142.085 30.1212 140.163 27.8627 137.442 27.8627Z" fill="#222222"/>
</svg>
