<svg width="76" height="80" viewBox="0 0 76 80" fill="none" xmlns="http://www.w3.org/2000/svg">
<path fill-rule="evenodd" clip-rule="evenodd" d="M38 26.6667C35.3812 26.6667 33.25 28.9101 33.25 31.6667C33.25 34.4234 35.3812 36.6667 38 36.6667C40.6188 36.6667 42.75 34.4234 42.75 31.6667C42.75 28.9101 40.6188 26.6667 38 26.6667ZM37.9999 43.3334C31.8883 43.3334 26.9166 38.1 26.9166 31.6667C26.9166 25.2334 31.8883 20 37.9999 20C44.1116 20 49.0833 25.2334 49.0833 31.6667C49.0833 38.1 44.1116 43.3334 37.9999 43.3334ZM37.9999 6.6665C24.0318 6.6665 12.6666 18.5132 12.6666 33.0765C12.6666 51.3232 34.9884 71.6732 35.9384 72.5298C36.5338 73.0665 37.2653 73.3332 37.9999 73.3332C38.7346 73.3332 39.4661 73.0665 40.0614 72.5298C41.0114 71.6732 63.3333 51.3232 63.3333 33.0765C63.3333 18.5132 51.9681 6.6665 37.9999 6.6665Z" fill="#FFD133"/>
<mask id="mask0" mask-type="alpha" maskUnits="userSpaceOnUse" x="12" y="6" width="52" height="68">
<path fill-rule="evenodd" clip-rule="evenodd" d="M38 26.6667C35.3812 26.6667 33.25 28.9101 33.25 31.6667C33.25 34.4234 35.3812 36.6667 38 36.6667C40.6188 36.6667 42.75 34.4234 42.75 31.6667C42.75 28.9101 40.6188 26.6667 38 26.6667ZM37.9999 43.3334C31.8883 43.3334 26.9166 38.1 26.9166 31.6667C26.9166 25.2334 31.8883 20 37.9999 20C44.1116 20 49.0833 25.2334 49.0833 31.6667C49.0833 38.1 44.1116 43.3334 37.9999 43.3334ZM37.9999 6.6665C24.0318 6.6665 12.6666 18.5132 12.6666 33.0765C12.6666 51.3232 34.9884 71.6732 35.9384 72.5298C36.5338 73.0665 37.2653 73.3332 37.9999 73.3332C38.7346 73.3332 39.4661 73.0665 40.0614 72.5298C41.0114 71.6732 63.3333 51.3232 63.3333 33.0765C63.3333 18.5132 51.9681 6.6665 37.9999 6.6665Z" fill="white"/>
</mask>
<g mask="url(#mask0)">
<rect width="76" height="80" fill="#FFD133"/>
</g>
</svg>
