<svg width="100" height="98" viewBox="0 0 100 98" fill="none" xmlns="http://www.w3.org/2000/svg">
<path d="M66.5424 85.7695C68.1604 85.7695 69.4721 84.4579 69.4721 82.8398C69.4721 81.2218 68.1604 79.9102 66.5424 79.9102C64.9244 79.9102 63.6127 81.2218 63.6127 82.8398C63.6127 84.4579 64.9244 85.7695 66.5424 85.7695Z" fill="#FFD133"/>
<path d="M33.3968 85.7695C35.0148 85.7695 36.3265 84.4579 36.3265 82.8398C36.3265 81.2218 35.0148 79.9102 33.3968 79.9102C31.7788 79.9102 30.4671 81.2218 30.4671 82.8398C30.4671 84.4579 31.7788 85.7695 33.3968 85.7695Z" fill="#FFD133"/>
<path d="M97.0703 0.568848H2.92969C1.31172 0.568848 0 1.88057 0 3.49854V59.1626C0 60.7806 1.31172 62.0923 2.92969 62.0923H25.0789L31.3312 68.3446C19.5121 70.0142 14.3371 84.7187 23.1754 93.3327C28.8824 98.8948 38.1699 98.7829 43.8783 93.0745L49.9697 86.9831L56.0611 93.0745C61.7629 98.7765 71.0506 98.9013 76.7641 93.3327C85.4236 84.8929 80.6785 70.0499 68.6086 68.3442L74.8605 62.0923H97.0703C98.6883 62.0923 100 60.7806 100 59.1626V3.49854C100 1.88057 98.6883 0.568848 97.0703 0.568848ZM94.1406 18.147H94.0744C87.6127 18.147 82.3557 12.8899 82.3557 6.42822H94.1406V18.147ZM5.85938 6.42822H17.5781C17.5781 12.8899 12.3211 18.147 5.85938 18.147V6.42822ZM5.85938 44.5142C12.3211 44.5142 17.5781 49.7712 17.5781 56.2329H5.85938V44.5142ZM5.85938 38.6548V24.0063C15.552 24.0063 23.4375 16.1208 23.4375 6.42822H76.4963C76.4963 16.1208 84.3818 24.0063 94.0744 24.0063H94.1406V38.6548C93.6176 38.728 89.3625 38.4173 84.7238 41.3479C84.0383 39.047 82.7891 36.9384 81.0436 35.1931C79.8996 34.0491 78.0445 34.0489 76.9004 35.1931L55.8605 56.2329H23.4375C23.4375 46.5403 15.552 38.6548 5.85938 38.6548ZM78.6199 41.7599C80.1508 44.9575 79.6576 49.0087 76.9004 51.7659L58.2559 70.4104L54.1127 66.2673C56.7986 63.5813 76.0768 44.303 78.6199 41.7599ZM50.0012 62.0923L41.6832 70.4102L33.3652 62.0923H50.0012ZM39.735 88.9313C36.2838 92.3825 30.6895 92.4745 27.2648 89.1368C21.585 83.6007 25.5914 74.0552 33.3967 74.0552C35.6475 74.0552 37.898 74.912 39.6115 76.6253C40.7576 77.7714 42.6147 77.7653 43.7547 76.6253L49.9695 70.4104L54.1127 74.5536C53.9596 74.7044 47.4066 81.2595 39.735 88.9313ZM72.7572 76.6251C76.217 80.0849 76.1959 85.7042 72.6742 89.1366C69.2492 92.4743 63.6553 92.3825 60.2041 88.9313L54.1127 82.8399L60.3275 76.6251C63.7543 73.1985 69.3303 73.1983 72.7572 76.6251ZM80.7197 56.2329C80.893 56.004 84.0744 53.3845 85.0549 48.4192C86.1598 47.7409 88.8053 44.5142 94.0744 44.5142H94.1406V56.2329H80.7197Z" fill="#FFD133"/>
<path d="M68.9406 31.3355C68.9406 20.8378 60.4002 12.2974 49.9025 12.2974C39.4049 12.2974 30.8644 20.8378 30.8644 31.3355C30.8644 41.8331 39.4049 50.3735 49.9025 50.3735C60.4002 50.3735 68.9406 41.8331 68.9406 31.3355ZM36.7238 31.3355C36.7238 24.0687 42.6357 18.1567 49.9025 18.1567C57.1693 18.1567 63.0812 24.0687 63.0812 31.3355C63.0812 38.6022 57.1693 44.5142 49.9025 44.5142C42.6357 44.5142 36.7238 38.6022 36.7238 31.3355Z" fill="#FFD133"/>
</svg>
