<svg width="100" height="100" viewBox="0 0 100 100" fill="none" xmlns="http://www.w3.org/2000/svg">
<path d="M93.2776 30.249L75.7167 12.7674C75.1676 12.2209 74.4245 11.9141 73.6499 11.9141H70.7202V5.84824C72.2341 5.73418 73.4276 4.47266 73.4276 2.92969C73.4276 1.31172 72.1159 0 70.4979 0H52.9198C51.3018 0 49.9901 1.31172 49.9901 2.92969C49.9901 4.54434 51.2966 5.85352 52.91 5.85879V11.9141H26.5721C25.8038 11.9141 25.0663 12.2158 24.5182 12.7545L6.73504 30.2361C4.87078 32.0689 6.17058 35.2551 8.78894 35.2551H11.8944V52.9303C10.2809 52.9355 8.97449 54.2447 8.97449 55.8594C8.97449 57.474 10.2809 58.7832 11.8944 58.7885V79.2969C11.8944 80.9148 13.2061 82.2266 14.8241 82.2266H29.6651C31.0061 92.2465 39.6093 100 49.9901 100C60.371 100 68.9741 92.2465 70.3151 82.2266H85.1364C86.7544 82.2266 88.0661 80.9148 88.0661 79.2969V58.7891H88.0758C89.6938 58.7891 91.0055 57.4773 91.0055 55.8594C91.0055 54.2414 89.6938 52.9297 88.0758 52.9297H88.0661V35.2551H91.2106C93.8151 35.2551 95.128 32.0912 93.2776 30.249ZM58.7692 5.85938H64.8606V11.9141H58.7692V5.85938ZM27.7708 17.7734H72.4401L84.1151 29.3957H62.713L51.7692 21.1025C50.7223 20.309 49.2749 20.3098 48.2284 21.1039L37.3048 29.3957H15.9481L27.7708 17.7734ZM17.7536 58.7891H35.361V64.6484H32.4118C30.7938 64.6484 29.4821 65.9602 29.4821 67.5781V76.3672H17.7536V58.7891ZM58.7692 64.6484H41.2204V55.8545C41.2204 51.0164 45.1565 47.0801 49.9948 47.0801C54.8329 47.0801 58.7692 51.0162 58.7692 55.8545V64.6484ZM64.6385 79.4922C64.6385 87.5693 58.0673 94.1406 49.9901 94.1406C41.913 94.1406 35.3417 87.5693 35.3417 79.4922V70.5078H64.6385V79.4922ZM82.2067 76.3672H70.4977V67.5781C70.4977 65.9602 69.186 64.6484 67.568 64.6484H64.6286V58.7891H82.2067V76.3672ZM82.2067 52.9297H64.3344C62.9755 46.2572 57.0626 41.2207 49.9948 41.2207C42.927 41.2207 37.0139 46.2574 35.6551 52.9297H17.7536V35.2551H38.2907C38.9303 35.2551 39.5524 35.0457 40.062 34.659L50.001 27.1145L59.9587 34.6604C60.4678 35.0463 61.0893 35.2551 61.7282 35.2551H82.2067V52.9297Z" fill="#FFD133"/>
<path d="M49.9901 76.5625C48.3721 76.5625 47.0604 77.8742 47.0604 79.4922V85.1562C47.0604 86.7742 48.3721 88.0859 49.9901 88.0859C51.6081 88.0859 52.9198 86.7742 52.9198 85.1562V79.4922C52.9198 77.8742 51.6081 76.5625 49.9901 76.5625Z" fill="#FFD133"/>
</svg>
