<svg width="90" height="100" viewBox="0 0 90 100" fill="none" xmlns="http://www.w3.org/2000/svg">
<path d="M88.2776 30.249L70.7167 12.7674C70.1676 12.2209 69.4245 11.9141 68.6499 11.9141H65.7202V5.84824C67.2341 5.73418 68.4276 4.47266 68.4276 2.92969C68.4276 1.31172 67.1159 0 65.4979 0H47.9198C46.3018 0 44.9901 1.31172 44.9901 2.92969C44.9901 4.54434 46.2966 5.85352 47.91 5.85879V11.9141H21.5721C20.8038 11.9141 20.0663 12.2158 19.5182 12.7545L1.73504 30.2361C-0.12922 32.0689 1.17058 35.2551 3.78894 35.2551H6.89441V52.9303C5.28093 52.9355 3.97449 54.2447 3.97449 55.8594C3.97449 57.474 5.28093 58.7832 6.89441 58.7885V79.2969C6.89441 80.9148 8.20613 82.2266 9.8241 82.2266H24.6651C26.0061 92.2465 34.6093 100 44.9901 100C55.371 100 63.9741 92.2465 65.3151 82.2266H80.1364C81.7544 82.2266 83.0661 80.9148 83.0661 79.2969V58.7891H83.0758C84.6938 58.7891 86.0055 57.4773 86.0055 55.8594C86.0055 54.2414 84.6938 52.9297 83.0758 52.9297H83.0661V35.2551H86.2106C88.8151 35.2551 90.128 32.0912 88.2776 30.249ZM53.7692 5.85938H59.8606V11.9141H53.7692V5.85938ZM22.7708 17.7734H67.4401L79.1151 29.3957H57.713L46.7692 21.1025C45.7223 20.309 44.2749 20.3098 43.2284 21.1039L32.3048 29.3957H10.9481L22.7708 17.7734ZM12.7536 58.7891H30.361V64.6484H27.4118C25.7938 64.6484 24.4821 65.9602 24.4821 67.5781V76.3672H12.7536V58.7891ZM53.7692 64.6484H36.2204V55.8545C36.2204 51.0164 40.1565 47.0801 44.9948 47.0801C49.8329 47.0801 53.7692 51.0162 53.7692 55.8545V64.6484ZM59.6385 79.4922C59.6385 87.5693 53.0673 94.1406 44.9901 94.1406C36.913 94.1406 30.3417 87.5693 30.3417 79.4922V70.5078H59.6385V79.4922ZM77.2067 76.3672H65.4977V67.5781C65.4977 65.9602 64.186 64.6484 62.568 64.6484H59.6286V58.7891H77.2067V76.3672ZM77.2067 52.9297H59.3344C57.9755 46.2572 52.0626 41.2207 44.9948 41.2207C37.927 41.2207 32.0139 46.2574 30.6551 52.9297H12.7536V35.2551H33.2907C33.9303 35.2551 34.5524 35.0457 35.062 34.659L45.001 27.1145L54.9587 34.6604C55.4678 35.0463 56.0893 35.2551 56.7282 35.2551H77.2067V52.9297Z" fill="#FFD133"/>
<path d="M44.9901 76.5625C43.3721 76.5625 42.0604 77.8742 42.0604 79.4922V85.1562C42.0604 86.7742 43.3721 88.0859 44.9901 88.0859C46.6081 88.0859 47.9198 86.7742 47.9198 85.1562V79.4922C47.9198 77.8742 46.6081 76.5625 44.9901 76.5625Z" fill="#FFD133"/>
</svg>
