<svg width="100" height="92" viewBox="0 0 100 92" fill="none" xmlns="http://www.w3.org/2000/svg">
<path d="M98.2793 35.4016C98.8723 34.904 99.243 34.1932 99.3102 33.4242L99.9887 25.6715C100.129 24.0675 98.9373 22.6538 97.3264 22.513L78.1629 20.8369L54.0677 1.61813C53.1434 0.880621 51.8638 0.769985 50.8255 1.33794L23.8505 16.087L3.92831 14.3446C2.31796 14.2021 0.893944 15.3916 0.753319 16.9969L0.0748045 24.7498C0.00761717 25.5179 0.248632 26.2812 0.745311 26.8731L4.28202 31.0862C5.37987 32.3936 6.81268 32.0728 7.71873 32.2476L5.43475 49.8594C5.23456 51.4042 6.28886 52.8331 7.82967 53.1048L11.8554 53.8145L8.36717 73.5227H2.92968C1.31172 73.5227 0 74.8285 0 76.4392V88.1056C0 89.7164 1.31172 91.0222 2.92968 91.0222H97.0063C98.6242 91.0222 99.9359 89.7164 99.9359 88.1056V76.4392C99.9359 74.8285 98.6242 73.5227 97.0063 73.5227H94.674L82.8366 53.0972L92.6979 39.5758C93.9965 39.3421 94.2705 38.6235 98.2793 35.4016ZM66.6704 60.2074L74.3872 73.5225H61.9661L63.5536 56.8915C64.6567 45.3334 51.1282 38.1251 42.0892 45.4718C39.339 47.7073 37.6378 50.8767 37.2995 54.396L35.4605 73.5225H26.1205L29.581 53.9704C29.8619 52.3844 28.798 50.8718 27.2048 50.5922L22.6543 49.7929L25.1183 33.7691L72.2129 37.8877L67.5842 44.2346C66.6413 45.5272 66.9188 47.3348 68.2065 48.2883L74.0461 52.6126L67.7465 56.222C67.0727 56.6082 66.5805 57.2451 66.3788 57.9926C66.1766 58.7402 66.2815 59.537 66.6704 60.2074ZM57.7204 56.3398L56.0804 73.5227H41.3464L43.1319 54.9521C43.3202 52.9953 44.2657 51.2331 45.7946 49.9904C50.8001 45.9214 58.3362 49.8854 57.7204 56.3398ZM78.7245 48.8073L74.0268 45.3287L79.0194 38.4831L85.8203 39.0779L78.7245 48.8073ZM51.9311 7.38851L67.638 19.9166L34.3437 17.0047L51.9311 7.38851ZM6.01718 24.0565L6.33632 20.4107L93.8975 28.0687L93.5781 31.7172C93.1006 32.1177 94.8033 30.6896 91.2205 33.6946C71.9833 32.0123 137.521 37.7473 7.99803 26.4164L6.01718 24.0565ZM13.5605 32.7584L19.2691 33.2577L16.8826 48.7769L11.6039 47.8463L13.5605 32.7584ZM17.6248 54.8329L23.3019 55.8302L20.1705 73.5227H14.3168L17.6248 54.8329ZM94.0766 85.189H5.85936V79.3558C5.87889 79.3558 100.109 79.4297 94.0766 79.3558V85.189ZM81.1516 73.5227L73.2112 59.8215L78.2844 56.9146L87.9096 73.5227H81.1516Z" fill="#FFD133"/>
</svg>
