<svg width="443" height="310" viewBox="0 0 443 310" fill="none" xmlns="http://www.w3.org/2000/svg">
<path d="M165 309.064C73.873 309.064 0 301.901 0 293.064C0 284.227 73.873 277.064 165 277.064C256.127 277.064 330 284.227 330 293.064C330 301.901 256.127 309.064 165 309.064Z" fill="#ECF5F7"/>
<path d="M278.123 88.2992L277.248 101.664L277.998 109.533L274.997 109.908C274.997 109.908 268.496 119.776 261.869 111.282L259.493 116.528L256.868 120.525L242.989 107.41L242.364 101.29L250.616 100.04C250.616 99.9155 270.121 87.7996 278.123 88.2992Z" fill="#F7C589"/>
<path d="M278.623 92.671C278.623 92.671 273.372 88.7989 270.996 89.7981C268.621 90.6725 266.745 102.164 266.745 102.164L264.62 102.414L263.869 94.7944C263.869 94.7944 259.368 93.4204 258.868 97.0427L259.243 100.54L250.866 100.04L255.867 80.555L262.869 77.6822C262.744 77.5573 290.376 83.303 278.623 92.671Z" fill="#002868"/>
<path d="M261.994 111.157L259.368 106.161L265.87 91.7967C265.87 91.7967 260.494 90.6725 256.993 100.29L253.117 100.04L250.616 99.9156V108.784L260.369 116.778L261.994 111.157Z" fill="#EDB170"/>
<path d="M81.0323 276.75L79.5619 296.319C79.5619 296.319 84.5659 300.012 87.6747 281.775L92.1272 280.784L92.1272 274.883C92.0992 274.924 84.558 274.772 81.0323 276.75Z" fill="#032349"/>
<path d="M272.27 299.167L292.192 299.244C292.192 299.244 295.888 294.762 278.713 293.248L275.94 287.095L270.009 287.674C270.03 287.67 270.039 296.287 272.27 299.167Z" fill="#032349"/>
<path d="M246.693 100.262L249.703 121.786L264 118.178C264 118.178 264 214.23 162.54 223.064L143.603 218.709C143.603 218.709 133.946 197.434 162.039 161.476C162.039 161.476 176.085 114.57 213.709 91.8012L220.607 89.064L246.693 100.262Z" fill="#19C6D8"/>
<path d="M261.318 116.369L296.717 152.354L310.916 92.064L318 93.2487L313.229 170.409C313.104 174.296 309.226 176.929 305.598 175.801L255.939 160.379C255.939 160.128 246.557 130.161 261.318 116.369Z" fill="#0AB4BC"/>
<path d="M193.698 181.583L262.077 165.232C265.709 164.365 269.215 166.966 269.466 170.558L280 291.893L271.726 293.064C271.726 293.064 242.039 228.159 247.925 200.411L198.206 229.645L166.271 207.224L155 199.916L193.698 181.583Z" fill="#0AB4BC"/>
<path d="M201 178.064L196.882 286.884C196.757 291.247 192.764 294.613 188.396 293.989L90 281.833L91.1779 274.766C91.1779 274.766 141.223 259.212 170.051 270.555L149.709 195.64L201 178.064Z" fill="#19C6D8"/>
<path d="M311.463 92.4947L310 87.3947L310.976 80.7255L316.22 77.064L320 80.2024L317.683 90.0101L316.707 94.064L311.463 92.4947Z" fill="#F7C589"/>
<path d="M246.285 100.064C246.285 100.064 214.648 168.392 201 178.064C201 178.064 211.422 177.31 214.399 175.049C217.377 172.789 245.789 154.325 251 118.025L246.285 100.064Z" fill="white"/>
<path d="M201 178.064C201 178.064 165.076 201.982 162.429 223.064L156 221.584L160.412 219.365C160.412 219.489 179.95 186.078 201 178.064Z" fill="#0AB4BC"/>
<path d="M250.529 100.064L257 120.261L246 125.064L246.388 100.557L250.529 100.064Z" fill="#E6E7E8"/>
<path d="M432.188 80.8278H67.4006C61.8294 80.8278 57.3977 76.4006 57.3977 70.835V70.7085H442.318V70.835C442.191 76.4006 437.759 80.8278 432.188 80.8278Z" fill="#DFAD00"/>
<path d="M437.126 73.9971H62.7158C57.5244 73.9971 55.6252 72.0998 58.2841 69.6964L134.635 1.51789C135.521 0.63245 138.687 0 141.726 0H358.243C361.282 0 364.321 0.63245 365.334 1.51789L441.685 69.6964C444.217 71.9733 442.191 73.9971 437.126 73.9971Z" fill="#FFD133"/>
<path d="M153.121 22.7682L155.021 20.4915H138.307L136.028 22.7682H153.121Z" fill="white"/>
<path d="M155.654 19.4794L157.426 17.3291H141.219L139.067 19.4794H155.654Z" fill="white"/>
<path d="M143.878 14.2932L141.979 16.4435H158.186L159.832 14.2932H143.878Z" fill="white"/>
<path d="M184.396 13.408H201.996L202.502 12.2695C202.756 11.5106 201.236 11.0046 198.957 11.0046H185.915L184.396 13.408Z" fill="white"/>
<path d="M173.634 27.1953L175.659 23.78H155.274L152.742 27.1953H173.634Z" fill="white"/>
<path d="M199.084 20.4915H157.806L156.034 22.7682H198.071L199.084 20.4915Z" fill="white"/>
<path d="M162.491 14.2932L160.845 16.4435H200.73L201.616 14.2932H162.491Z" fill="white"/>
<path d="M152.362 23.78H135.142L133.496 25.5509C132.736 26.4363 134.129 27.1953 136.788 27.1953H149.703L152.362 23.78Z" fill="white"/>
<path d="M178.572 23.78L176.672 27.1953H191.613C194.272 27.1953 196.678 26.4363 197.058 25.5509L197.818 23.78H178.572Z" fill="white"/>
<path d="M160.212 17.3291L158.566 19.4794H199.464L200.35 17.3291H160.212Z" fill="white"/>
<path d="M160.465 13.408L162.365 11.0046H151.095C148.816 11.0046 146.411 11.5106 145.778 12.2695L144.765 13.408H160.465Z" fill="white"/>
<path d="M164.897 11.0046L163.124 13.408H181.737L183.257 11.0046H164.897Z" fill="white"/>
<path d="M203.009 53.5054H95.2566L100.448 48.4458H204.528L203.009 53.5054Z" fill="white"/>
<path d="M312.027 53.5054H237.196L237.576 48.4458H310.001L312.027 53.5054Z" fill="white"/>
<path d="M293.414 65.0164H83.861L89.812 59.0713H291.895L293.414 65.0164Z" fill="white"/>
<path d="M129.95 36.9351H133.749L128.304 43.5126H124.252L127.924 39.3384L126.278 39.8443L124.126 38.9589L129.95 36.9351Z" fill="white"/>
<path d="M143.498 41.8682L142.359 43.386H130.71L132.103 41.7417C133.496 41.4887 134.762 41.2357 135.901 40.9827C137.041 40.7298 138.054 40.4768 138.814 40.2238C139.7 39.9708 140.333 39.7178 140.839 39.5913C141.346 39.3384 141.599 39.2119 141.726 39.0854C141.852 38.9589 141.852 38.7059 141.599 38.5794C141.346 38.4529 140.966 38.3264 140.46 38.3264C139.953 38.3264 139.447 38.4529 139.067 38.5794C138.687 38.7059 138.307 38.8324 138.18 39.0854H134.255C134.508 38.8324 134.888 38.4529 135.395 38.2C135.901 37.947 136.534 37.694 137.167 37.5675C137.801 37.3145 138.56 37.188 139.32 37.0615C140.08 36.935 140.839 36.9351 141.599 36.9351C142.359 36.9351 142.992 36.935 143.625 37.0615C144.258 37.188 144.638 37.3145 145.018 37.5675C145.398 37.8205 145.651 37.947 145.778 38.2C145.904 38.4529 145.778 38.7059 145.651 39.0854C145.018 39.9708 142.612 40.8562 138.434 41.8682H143.498Z" fill="white"/>
<path d="M155.78 39.2119C156.16 39.3384 156.54 39.4649 156.92 39.5914C157.173 39.7178 157.426 39.8443 157.68 40.0973C157.806 40.2238 157.933 40.4768 157.933 40.6033C157.933 40.8563 157.933 40.9828 157.806 41.2357C157.553 41.4887 157.3 41.8682 156.793 42.1212C156.287 42.3741 155.78 42.6271 155.147 42.8801C154.514 43.1331 153.754 43.2596 152.995 43.3861C152.235 43.5126 151.475 43.5126 150.589 43.5126C149.829 43.5126 149.07 43.5126 148.436 43.3861C147.803 43.2596 147.297 43.1331 146.917 42.8801C146.537 42.6271 146.284 42.5006 146.157 42.1212C146.031 41.8682 146.157 41.6152 146.284 41.2357H150.209C150.083 41.4887 150.083 41.6152 150.336 41.7417C150.589 41.8682 150.969 41.9947 151.475 41.9947C151.982 41.9947 152.488 41.8682 152.868 41.7417C153.248 41.6152 153.628 41.4887 153.754 41.2357C153.881 41.1092 153.754 40.8563 153.501 40.7298C153.248 40.6033 152.868 40.4768 152.362 40.4768H149.829L150.842 38.9589L153.248 38.3264H148.69L149.703 36.9351H160.212L159.452 38.2L155.78 39.2119Z" fill="white"/>
<path d="M169.455 36.9351H173.254L169.582 43.5126H165.53L166.163 42.3742H159.452L160.465 40.8563L169.455 36.9351ZM165.15 40.7298H167.303L167.936 39.5914L165.15 40.7298Z" fill="white"/>
<path d="M194.019 43.386C193.259 43.386 192.5 43.386 191.867 43.2596C191.234 43.1331 190.6 43.0066 190.221 42.7536C189.841 42.5006 189.461 42.3741 189.334 41.9947C189.208 41.7417 189.081 41.4887 189.208 41.1093H193.133C193.006 41.3622 193.133 41.4887 193.513 41.6152C193.766 41.7417 194.272 41.8682 194.652 41.8682C195.159 41.8682 195.539 41.7417 196.045 41.6152C196.425 41.4887 196.678 41.3622 196.805 41.1093C196.931 40.9828 196.805 40.7298 196.425 40.6033C196.172 40.4768 195.792 40.4768 195.285 40.4768H189.587L191.107 36.8086H201.49L200.983 38.2H194.399L194.146 38.8324H195.918C196.678 38.8324 197.438 38.8324 198.071 38.9589C198.704 39.0854 199.21 39.2119 199.717 39.4649C200.097 39.7179 200.477 39.8444 200.73 40.0973C200.983 40.3503 200.983 40.6033 200.857 40.9828C200.73 41.2357 200.477 41.6152 200.097 41.8682C199.717 42.1212 199.21 42.3741 198.577 42.6271C197.944 42.8801 197.311 43.0066 196.551 43.1331C195.665 43.3861 194.905 43.386 194.019 43.386Z" fill="white"/>
<path d="M210.1 38.7062C210.859 38.7062 211.619 38.8326 212.252 38.9591C212.885 39.0856 213.392 39.2121 213.898 39.4651C214.405 39.7181 214.658 39.9711 214.911 40.224C215.164 40.477 215.164 40.73 215.164 41.1095C215.038 41.489 214.784 41.7419 214.405 41.9949C214.025 42.2479 213.518 42.5009 212.885 42.7539C212.252 43.0068 211.492 43.1333 210.733 43.2598C209.973 43.3863 209.087 43.5128 208.2 43.5128C207.314 43.5128 206.554 43.3863 205.795 43.2598C205.035 43.1333 204.402 43.0068 204.022 42.7539C203.515 42.5009 203.135 42.2479 202.882 41.9949C202.629 41.7419 202.629 41.3625 202.756 41.1095C202.882 40.73 203.135 40.3505 203.642 40.0976L208.707 37.0618H213.012L210.1 38.7062ZM208.58 41.8684C209.213 41.8684 209.72 41.7419 210.226 41.6155C210.733 41.489 210.986 41.236 211.112 40.983C211.112 40.8565 211.112 40.73 210.986 40.6035C210.859 40.477 210.733 40.3505 210.606 40.3505C210.479 40.2241 210.226 40.224 209.973 40.224C209.72 40.224 209.466 40.0976 209.087 40.0976C208.833 40.0976 208.453 40.0976 208.2 40.224C207.947 40.224 207.694 40.3505 207.441 40.3505C207.187 40.477 207.061 40.477 206.807 40.6035C206.681 40.73 206.554 40.8565 206.554 40.983C206.554 41.1095 206.554 41.236 206.681 41.3625C206.807 41.489 206.934 41.6155 207.061 41.6155C207.187 41.7419 207.441 41.742 207.694 41.742C207.947 41.8684 208.327 41.8684 208.58 41.8684Z" fill="white"/>
<path d="M224.661 36.9351H228.459L227.446 43.5126H223.395L223.648 42.3742H216.684L217.064 40.8563L224.661 36.9351ZM221.748 40.7298H223.901L224.154 39.5914L221.748 40.7298Z" fill="white"/>
<path d="M239.222 39.5914C239.728 39.8443 240.108 39.9708 240.361 40.3503C240.615 40.6033 240.741 40.8563 240.741 41.2357C240.741 41.4887 240.488 41.8682 240.235 42.1212C239.855 42.3741 239.475 42.6271 238.969 42.8801C238.462 43.1331 237.829 43.2596 237.069 43.3861C236.31 43.5126 235.55 43.5126 234.79 43.5126C234.03 43.5126 233.271 43.5126 232.511 43.3861C231.878 43.2596 231.245 43.1331 230.738 42.8801C230.232 42.6271 229.852 42.3741 229.599 42.1212C229.346 41.8682 229.219 41.6152 229.219 41.2357C229.219 40.9828 229.472 40.6033 229.852 40.3503C230.232 40.0973 230.612 39.8443 231.245 39.5914C230.992 39.4649 230.865 39.3384 230.738 39.0854C230.612 38.9589 230.612 38.7059 230.612 38.5794C230.612 38.3265 230.738 38.0735 231.118 37.947C231.371 37.694 231.751 37.5675 232.131 37.441C232.638 37.3145 233.144 37.188 233.651 37.0615C234.284 36.935 234.79 36.9351 235.423 36.9351C236.056 36.9351 236.689 36.935 237.196 37.0615C237.702 37.188 238.209 37.3145 238.589 37.441C238.969 37.5675 239.348 37.8205 239.602 37.947C239.855 38.2 239.981 38.453 239.855 38.5794C239.855 38.7059 239.728 38.9589 239.602 39.0854C239.602 39.3384 239.348 39.4649 239.222 39.5914ZM234.917 41.8682C235.423 41.8682 235.803 41.7417 236.183 41.6152C236.563 41.4887 236.689 41.3622 236.816 41.1093C236.816 40.8563 236.689 40.7298 236.31 40.6033C235.93 40.4768 235.55 40.3503 235.043 40.3503C234.537 40.3503 234.157 40.4768 233.777 40.6033C233.397 40.7298 233.144 40.8563 233.144 41.1093C233.144 41.3622 233.271 41.4887 233.651 41.6152C234.03 41.8682 234.41 41.8682 234.917 41.8682ZM235.297 38.3264C235.043 38.3264 234.917 38.3265 234.664 38.4529C234.537 38.4529 234.41 38.5794 234.41 38.7059C234.41 38.8324 234.537 38.8324 234.664 38.9589C234.79 38.9589 235.043 39.0854 235.297 39.0854C235.55 39.0854 235.676 39.0854 235.93 38.9589C236.056 38.9589 236.183 38.8324 236.183 38.7059C236.183 38.5794 236.056 38.5794 235.93 38.4529C235.676 38.4529 235.55 38.3264 235.297 38.3264Z" fill="white"/>
<path d="M262.013 36.9351H265.812L266.571 43.5126H262.52L262.14 39.3384L261 39.8443L257.961 38.9589L262.013 36.9351Z" fill="white"/>
<path d="M280.246 41.8682L280.626 43.386H268.977L268.724 41.7417C269.863 41.4887 270.876 41.2357 271.763 40.9827C272.649 40.7298 273.409 40.4768 274.042 40.2238C274.675 39.9708 275.055 39.7178 275.435 39.5913C275.814 39.3384 275.941 39.2119 275.814 39.0854C275.814 38.9589 275.561 38.7059 275.181 38.5794C274.802 38.4529 274.422 38.3264 273.915 38.3264C273.409 38.3264 273.029 38.4529 272.649 38.5794C272.396 38.7059 272.143 38.8324 272.269 39.0854H268.344C268.344 38.8324 268.471 38.4529 268.724 38.2C268.977 37.947 269.357 37.694 269.863 37.5675C270.37 37.3145 270.876 37.188 271.509 37.0615C272.143 36.935 272.902 36.9351 273.662 36.9351C274.422 36.9351 275.181 36.935 275.814 37.0615C276.448 37.188 277.081 37.3145 277.714 37.5675C278.22 37.8205 278.727 37.947 279.107 38.2C279.486 38.4529 279.613 38.7059 279.74 39.0854C279.866 39.9708 278.473 40.8562 275.308 41.8682H280.246Z" fill="white"/>
<path d="M290.122 39.2119C290.629 39.3384 291.135 39.4649 291.515 39.5914C291.895 39.7178 292.275 39.8443 292.655 40.0973C293.035 40.2238 293.288 40.4768 293.541 40.6033C293.794 40.8563 293.921 40.9828 293.921 41.2357C294.048 41.4887 293.921 41.8682 293.794 42.1212C293.541 42.3741 293.288 42.6271 292.781 42.8801C292.275 43.1331 291.768 43.2596 291.135 43.3861C290.502 43.5126 289.743 43.5126 288.983 43.5126C288.223 43.5126 287.463 43.5126 286.704 43.3861C285.944 43.2596 285.311 43.1331 284.678 42.8801C284.171 42.6271 283.665 42.5006 283.285 42.1212C282.905 41.8682 282.652 41.6152 282.652 41.2357H286.577C286.577 41.4887 286.83 41.6152 287.21 41.7417C287.59 41.8682 288.097 41.9947 288.603 41.9947C289.109 41.9947 289.489 41.8682 289.869 41.7417C290.122 41.6152 290.249 41.4887 290.249 41.2357C290.249 41.1092 289.996 40.8563 289.616 40.7298C289.236 40.6033 288.856 40.4768 288.35 40.4768H285.817L285.438 38.9589L287.084 38.3264H282.272L281.892 36.9351H292.402L292.781 38.2L290.122 39.2119Z" fill="white"/>
<path d="M301.645 36.9351H305.443L308.102 43.5126H304.051L303.544 42.3742H296.58L296.074 40.8563L301.645 36.9351ZM300.885 40.7298H303.038L302.531 39.5914L300.885 40.7298Z" fill="white"/>
<path d="M332.413 43.386C331.653 43.386 330.767 43.386 330.007 43.2596C329.248 43.1331 328.488 43.0066 327.855 42.7536C327.222 42.5006 326.715 42.3741 326.209 41.9947C325.702 41.7417 325.449 41.4887 325.322 41.1093H329.248C329.374 41.3622 329.627 41.4887 330.007 41.6152C330.387 41.7417 330.894 41.8682 331.4 41.8682C331.906 41.8682 332.286 41.7417 332.54 41.6152C332.793 41.4887 332.919 41.3622 332.793 41.1093C332.666 40.9828 332.413 40.7298 332.033 40.6033C331.653 40.4768 331.147 40.4768 330.64 40.4768H324.942L323.043 36.8086H333.426L334.312 38.2H327.728L328.108 38.8324H329.881C330.64 38.8324 331.4 38.8324 332.16 38.9589C332.919 39.0854 333.553 39.2119 334.186 39.4649C334.819 39.7179 335.325 39.8444 335.832 40.0973C336.338 40.3503 336.591 40.6033 336.845 40.9828C336.971 41.2357 337.098 41.6152 336.971 41.8682C336.845 42.1212 336.591 42.3741 336.212 42.6271C335.832 42.8801 335.325 43.0066 334.692 43.1331C333.932 43.3861 333.173 43.386 332.413 43.386Z" fill="white"/>
<path d="M343.935 38.7062C344.695 38.7062 345.455 38.8326 346.214 38.9591C346.974 39.0856 347.607 39.2121 348.367 39.4651C349 39.7181 349.633 39.9711 350.013 40.224C350.519 40.477 350.899 40.73 351.026 41.1095C351.279 41.489 351.279 41.7419 351.152 41.9949C351.026 42.2479 350.773 42.5009 350.393 42.7539C350.013 43.0068 349.38 43.1333 348.747 43.2598C348.114 43.3863 347.354 43.5128 346.468 43.5128C345.581 43.5128 344.695 43.3863 343.935 43.2598C343.049 43.1333 342.289 43.0068 341.656 42.7539C340.896 42.5009 340.39 42.2479 339.883 41.9949C339.377 41.7419 338.997 41.3625 338.87 41.1095C338.617 40.73 338.617 40.3505 338.87 40.0976L341.023 37.0618H345.328L343.935 38.7062ZM345.455 41.8684C346.088 41.8684 346.594 41.7419 346.847 41.6155C347.227 41.489 347.227 41.236 347.101 40.983C346.974 40.8565 346.847 40.73 346.721 40.6035C346.594 40.477 346.341 40.3505 346.088 40.3505C345.834 40.2241 345.581 40.224 345.201 40.224C344.948 40.224 344.568 40.0976 344.315 40.0976C344.062 40.0976 343.682 40.0976 343.429 40.224C343.175 40.224 343.049 40.3505 342.796 40.3505C342.669 40.477 342.542 40.477 342.542 40.6035C342.542 40.73 342.542 40.8565 342.542 40.983C342.669 41.1095 342.796 41.236 342.922 41.3625C343.049 41.489 343.302 41.6155 343.555 41.6155C343.809 41.7419 344.062 41.742 344.442 41.742C344.821 41.8684 345.201 41.8684 345.455 41.8684Z" fill="white"/>
<path d="M356.724 36.9351H360.522L365.714 43.5126H361.662L360.775 42.3742H353.811L352.672 40.8563L356.724 36.9351ZM357.483 40.7298H359.636L358.75 39.5914L357.483 40.7298Z" fill="white"/>
<path d="M373.817 39.5914C374.577 39.8443 375.083 39.9708 375.716 40.3503C376.223 40.6033 376.729 40.8563 376.983 41.2357C377.236 41.4887 377.362 41.8682 377.362 42.1212C377.362 42.3741 377.109 42.6271 376.729 42.8801C376.349 43.1331 375.843 43.2596 375.337 43.3861C374.703 43.5126 374.07 43.5126 373.184 43.5126C372.424 43.5126 371.538 43.5126 370.778 43.3861C370.019 43.2596 369.259 43.1331 368.499 42.8801C367.866 42.6271 367.233 42.3741 366.6 42.1212C366.093 41.8682 365.714 41.6152 365.46 41.2357C365.207 40.9828 365.08 40.6033 365.207 40.3503C365.334 40.0973 365.46 39.8443 365.84 39.5914C365.46 39.4649 365.207 39.3384 364.954 39.0854C364.701 38.9589 364.447 38.7059 364.321 38.5794C364.067 38.3265 364.068 38.0735 364.068 37.947C364.194 37.694 364.321 37.5675 364.574 37.441C364.827 37.3145 365.207 37.188 365.714 37.0615C366.22 36.935 366.726 36.9351 367.36 36.9351C367.993 36.9351 368.626 36.935 369.259 37.0615C369.892 37.188 370.525 37.3145 371.032 37.441C371.538 37.5675 372.044 37.8205 372.551 37.947C372.931 38.2 373.311 38.453 373.564 38.5794C373.69 38.7059 373.817 38.9589 373.817 39.0854C373.944 39.3384 373.944 39.4649 373.817 39.5914ZM371.791 41.8682C372.298 41.8682 372.678 41.7417 372.931 41.6152C373.184 41.4887 373.184 41.3622 373.057 41.1093C372.931 40.8563 372.551 40.7298 372.044 40.6033C371.538 40.4768 371.031 40.3503 370.652 40.3503C370.145 40.3503 369.765 40.4768 369.512 40.6033C369.259 40.7298 369.259 40.8563 369.385 41.1093C369.512 41.3622 369.892 41.4887 370.398 41.6152C370.778 41.8682 371.285 41.8682 371.791 41.8682ZM368.752 38.3264C368.499 38.3264 368.373 38.3265 368.246 38.4529C368.119 38.4529 368.119 38.5794 368.246 38.7059C368.373 38.8324 368.499 38.8324 368.626 38.9589C368.879 38.9589 369.006 39.0854 369.259 39.0854C369.512 39.0854 369.639 39.0854 369.765 38.9589C369.892 38.9589 369.892 38.8324 369.765 38.7059C369.639 38.5794 369.512 38.5794 369.385 38.4529C369.259 38.4529 369.006 38.3264 368.752 38.3264Z" fill="white"/>
<path d="M218.107 89.1731C218.107 89.1731 237.738 87.6742 237.237 116.153L246.615 158.371L258.521 87.2195L266.782 89.58C266.782 89.58 267.245 169.613 253.492 191.222C253.492 191.222 220.608 191.222 202.353 106.285C202.353 106.285 206.229 88.6735 218.107 89.1731Z" fill="#19C6D8"/>
<path d="M265.744 89.6728V80.8044L255.867 74.9338L254.866 68.064C254.866 68.064 252.366 68.0639 252.366 69.5628C252.366 71.0617 253.366 78.4312 253.366 78.4312L258.242 83.8022L259.242 88.1739L265.744 89.6728Z" fill="#F7C589"/>
</svg>
